<svg width="179" height="146" viewBox="0 0 179 146" fill="none" xmlns="http://www.w3.org/2000/svg">
<g filter="url(#filter0_d_0_255)">
<rect x="10" y="8" width="159" height="126" rx="10" fill="#FFF3EB"/>
<rect x="10" y="8" width="159" height="126" rx="10" fill="white" fill-opacity="0.2"/>
<path d="M104.733 60.6162L104.011 60.4307L104.367 56.8906H108.015V57.7256H105.134L104.919 59.6592C105.049 59.5843 105.214 59.5143 105.412 59.4492C105.614 59.3841 105.845 59.3516 106.105 59.3516C106.434 59.3516 106.729 59.4085 106.989 59.5225C107.25 59.6331 107.471 59.7926 107.653 60.001C107.839 60.2093 107.98 60.46 108.078 60.7529C108.176 61.0459 108.225 61.373 108.225 61.7344C108.225 62.0762 108.177 62.3903 108.083 62.6768C107.992 62.9632 107.854 63.2139 107.668 63.4287C107.482 63.6403 107.248 63.8047 106.965 63.9219C106.685 64.0391 106.354 64.0977 105.974 64.0977C105.687 64.0977 105.415 64.0586 105.158 63.9805C104.904 63.8991 104.676 63.777 104.475 63.6143C104.276 63.4482 104.113 63.2432 103.986 62.999C103.863 62.7516 103.785 62.4619 103.752 62.1299H104.611C104.65 62.3968 104.729 62.6214 104.846 62.8037C104.963 62.986 105.116 63.1243 105.305 63.2188C105.497 63.3099 105.72 63.3555 105.974 63.3555C106.188 63.3555 106.379 63.318 106.545 63.2432C106.711 63.1683 106.851 63.0609 106.965 62.9209C107.079 62.7809 107.165 62.6117 107.224 62.4131C107.285 62.2145 107.316 61.9915 107.316 61.7441C107.316 61.5195 107.285 61.3112 107.224 61.1191C107.162 60.9271 107.069 60.7594 106.945 60.6162C106.825 60.473 106.677 60.3623 106.501 60.2842C106.325 60.2028 106.123 60.1621 105.896 60.1621C105.593 60.1621 105.363 60.2028 105.207 60.2842C105.054 60.3656 104.896 60.4762 104.733 60.6162ZM113.132 63.0625L114.489 58.7168H115.085L114.968 59.5811L113.586 64H113.005L113.132 63.0625ZM112.219 58.7168L113.376 63.1113L113.459 64H112.849L111.315 58.7168H112.219ZM116.384 63.0771L117.487 58.7168H118.386L116.853 64H116.247L116.384 63.0771ZM115.217 58.7168L116.545 62.9893L116.696 64H116.12L114.699 59.5713L114.582 58.7168H115.217ZM121.506 64.0977C121.138 64.0977 120.804 64.0358 120.505 63.9121C120.209 63.7852 119.953 63.6077 119.738 63.3799C119.527 63.152 119.364 62.8818 119.25 62.5693C119.136 62.2568 119.079 61.915 119.079 61.5439V61.3389C119.079 60.9092 119.143 60.5267 119.27 60.1914C119.396 59.8529 119.569 59.5664 119.787 59.332C120.005 59.0977 120.253 58.9202 120.529 58.7998C120.806 58.6794 121.092 58.6191 121.389 58.6191C121.766 58.6191 122.092 58.6842 122.365 58.8145C122.642 58.9447 122.868 59.127 123.044 59.3613C123.22 59.5924 123.35 59.8659 123.435 60.1816C123.519 60.4941 123.562 60.8359 123.562 61.207V61.6123H119.616V60.875H122.658V60.8066C122.645 60.5723 122.596 60.3444 122.512 60.123C122.43 59.9017 122.3 59.7194 122.121 59.5762C121.942 59.4329 121.698 59.3613 121.389 59.3613C121.184 59.3613 120.995 59.4053 120.822 59.4932C120.65 59.5778 120.502 59.7048 120.378 59.874C120.254 60.0433 120.158 60.25 120.09 60.4941C120.021 60.7383 119.987 61.0199 119.987 61.3389V61.5439C119.987 61.7946 120.021 62.0306 120.09 62.252C120.161 62.4701 120.264 62.6621 120.397 62.8281C120.534 62.9941 120.699 63.1243 120.891 63.2188C121.086 63.3132 121.307 63.3604 121.555 63.3604C121.874 63.3604 122.144 63.2952 122.365 63.165C122.587 63.0348 122.78 62.8607 122.946 62.6426L123.493 63.0771C123.379 63.2497 123.234 63.4141 123.059 63.5703C122.883 63.7266 122.666 63.8535 122.409 63.9512C122.155 64.0488 121.854 64.0977 121.506 64.0977ZM126.809 64.0977C126.441 64.0977 126.107 64.0358 125.808 63.9121C125.511 63.7852 125.256 63.6077 125.041 63.3799C124.829 63.152 124.667 62.8818 124.553 62.5693C124.439 62.2568 124.382 61.915 124.382 61.5439V61.3389C124.382 60.9092 124.445 60.5267 124.572 60.1914C124.699 59.8529 124.872 59.5664 125.09 59.332C125.308 59.0977 125.555 58.9202 125.832 58.7998C126.109 58.6794 126.395 58.6191 126.691 58.6191C127.069 58.6191 127.395 58.6842 127.668 58.8145C127.945 58.9447 128.171 59.127 128.347 59.3613C128.522 59.5924 128.653 59.8659 128.737 60.1816C128.822 60.4941 128.864 60.8359 128.864 61.207V61.6123H124.919V60.875H127.961V60.8066C127.948 60.5723 127.899 60.3444 127.814 60.123C127.733 59.9017 127.603 59.7194 127.424 59.5762C127.245 59.4329 127.001 59.3613 126.691 59.3613C126.486 59.3613 126.298 59.4053 126.125 59.4932C125.952 59.5778 125.804 59.7048 125.681 59.874C125.557 60.0433 125.461 60.25 125.393 60.4941C125.324 60.7383 125.29 61.0199 125.29 61.3389V61.5439C125.29 61.7946 125.324 62.0306 125.393 62.252C125.464 62.4701 125.567 62.6621 125.7 62.8281C125.837 62.9941 126.001 63.1243 126.193 63.2188C126.389 63.3132 126.61 63.3604 126.857 63.3604C127.176 63.3604 127.447 63.2952 127.668 63.165C127.889 63.0348 128.083 62.8607 128.249 62.6426L128.796 63.0771C128.682 63.2497 128.537 63.4141 128.361 63.5703C128.186 63.7266 127.969 63.8535 127.712 63.9512C127.458 64.0488 127.157 64.0977 126.809 64.0977ZM130.827 56.5V64H129.919V56.5H130.827ZM134.055 58.7168L131.75 61.1826L130.461 62.5205L130.388 61.5586L131.311 60.4551L132.951 58.7168H134.055ZM133.229 64L131.345 61.4805L131.813 60.6748L134.294 64H133.229ZM138.063 62.5986C138.063 62.4684 138.034 62.348 137.976 62.2373C137.92 62.1234 137.805 62.0208 137.629 61.9297C137.456 61.8353 137.196 61.7539 136.848 61.6855C136.555 61.6237 136.289 61.5505 136.052 61.4658C135.817 61.3812 135.617 61.2786 135.451 61.1582C135.288 61.0378 135.163 60.8962 135.075 60.7334C134.987 60.5706 134.943 60.3802 134.943 60.1621C134.943 59.9538 134.989 59.7568 135.08 59.5713C135.174 59.3857 135.306 59.2214 135.476 59.0781C135.648 58.9349 135.855 58.8226 136.096 58.7412C136.337 58.6598 136.605 58.6191 136.901 58.6191C137.325 58.6191 137.686 58.694 137.985 58.8438C138.285 58.9935 138.514 59.1937 138.674 59.4443C138.833 59.6917 138.913 59.9668 138.913 60.2695H138.01C138.01 60.123 137.966 59.9814 137.878 59.8447C137.793 59.7048 137.668 59.5892 137.502 59.498C137.339 59.4069 137.139 59.3613 136.901 59.3613C136.651 59.3613 136.447 59.4004 136.291 59.4785C136.138 59.5534 136.026 59.6494 135.954 59.7666C135.886 59.8838 135.852 60.0075 135.852 60.1377C135.852 60.2354 135.868 60.3232 135.9 60.4014C135.936 60.4762 135.998 60.5462 136.086 60.6113C136.174 60.6732 136.298 60.7318 136.457 60.7871C136.617 60.8424 136.82 60.8978 137.067 60.9531C137.5 61.0508 137.857 61.168 138.137 61.3047C138.417 61.4414 138.625 61.609 138.762 61.8076C138.898 62.0062 138.967 62.2471 138.967 62.5303C138.967 62.7614 138.918 62.973 138.82 63.165C138.726 63.3571 138.588 63.5231 138.405 63.6631C138.226 63.7998 138.011 63.9072 137.761 63.9854C137.513 64.0602 137.235 64.0977 136.926 64.0977C136.46 64.0977 136.066 64.0146 135.744 63.8486C135.422 63.6826 135.178 63.4678 135.012 63.2041C134.846 62.9404 134.763 62.6621 134.763 62.3691H135.671C135.684 62.6165 135.756 62.8135 135.886 62.96C136.016 63.1032 136.175 63.2057 136.364 63.2676C136.553 63.3262 136.74 63.3555 136.926 63.3555C137.173 63.3555 137.38 63.3229 137.546 63.2578C137.715 63.1927 137.844 63.1032 137.932 62.9893C138.02 62.8753 138.063 62.7451 138.063 62.5986Z" fill="#777777"/>
<path d="M108.249 82.2578V83H103.596V82.3506L105.925 79.7578C106.211 79.4388 106.433 79.1686 106.589 78.9473C106.748 78.7227 106.859 78.5225 106.921 78.3467C106.986 78.1676 107.019 77.9854 107.019 77.7998C107.019 77.5654 106.97 77.3538 106.872 77.165C106.778 76.973 106.638 76.82 106.452 76.7061C106.267 76.5921 106.042 76.5352 105.778 76.5352C105.463 76.5352 105.199 76.597 104.987 76.7207C104.779 76.8411 104.623 77.0104 104.519 77.2285C104.414 77.4466 104.362 77.6973 104.362 77.9805H103.459C103.459 77.5801 103.547 77.2139 103.723 76.8818C103.898 76.5498 104.159 76.2861 104.504 76.0908C104.849 75.8923 105.274 75.793 105.778 75.793C106.228 75.793 106.612 75.8727 106.931 76.0322C107.25 76.1885 107.494 76.4098 107.663 76.6963C107.836 76.9795 107.922 77.3115 107.922 77.6924C107.922 77.9007 107.886 78.1123 107.814 78.3271C107.746 78.5387 107.65 78.7503 107.526 78.9619C107.406 79.1735 107.264 79.3818 107.102 79.5869C106.942 79.792 106.771 79.9938 106.589 80.1924L104.685 82.2578H108.249ZM113.679 78.8789V79.9629C113.679 80.5456 113.627 81.0371 113.522 81.4375C113.418 81.8379 113.269 82.1602 113.073 82.4043C112.878 82.6484 112.642 82.8258 112.365 82.9365C112.092 83.0439 111.783 83.0977 111.438 83.0977C111.164 83.0977 110.912 83.0635 110.681 82.9951C110.45 82.9268 110.241 82.8177 110.056 82.668C109.873 82.515 109.717 82.3164 109.587 82.0723C109.457 81.8281 109.357 81.5319 109.289 81.1836C109.221 80.8353 109.187 80.4284 109.187 79.9629V78.8789C109.187 78.2962 109.239 77.8079 109.343 77.4141C109.45 77.0202 109.602 76.7044 109.797 76.4668C109.992 76.2259 110.227 76.0534 110.5 75.9492C110.777 75.8451 111.086 75.793 111.428 75.793C111.704 75.793 111.958 75.8271 112.189 75.8955C112.424 75.9606 112.632 76.0664 112.814 76.2129C112.997 76.3561 113.151 76.5482 113.278 76.7891C113.409 77.0267 113.508 77.318 113.576 77.6631C113.645 78.0081 113.679 78.4134 113.679 78.8789ZM112.771 80.1094V78.7275C112.771 78.4085 112.751 78.1286 112.712 77.8877C112.676 77.6436 112.622 77.4352 112.551 77.2627C112.479 77.0902 112.388 76.9502 112.277 76.8428C112.17 76.7354 112.045 76.6572 111.901 76.6084C111.761 76.5563 111.604 76.5303 111.428 76.5303C111.213 76.5303 111.022 76.571 110.856 76.6523C110.69 76.7305 110.55 76.8558 110.437 77.0283C110.326 77.2008 110.241 77.4271 110.183 77.707C110.124 77.987 110.095 78.3271 110.095 78.7275V80.1094C110.095 80.4284 110.113 80.71 110.148 80.9541C110.188 81.1982 110.244 81.4098 110.319 81.5889C110.394 81.7646 110.485 81.9095 110.593 82.0234C110.7 82.1374 110.824 82.222 110.964 82.2773C111.107 82.3294 111.265 82.3555 111.438 82.3555C111.659 82.3555 111.853 82.3132 112.019 82.2285C112.185 82.1439 112.323 82.012 112.434 81.833C112.548 81.6507 112.632 81.418 112.688 81.1348C112.743 80.8483 112.771 80.5065 112.771 80.1094ZM120.651 81.7793V77.7168H121.56V83H120.695L120.651 81.7793ZM120.822 80.666L121.198 80.6562C121.198 81.0078 121.161 81.3333 121.086 81.6328C121.014 81.929 120.897 82.1862 120.734 82.4043C120.572 82.6224 120.358 82.7933 120.095 82.917C119.831 83.0374 119.51 83.0977 119.133 83.0977C118.876 83.0977 118.64 83.0602 118.425 82.9854C118.213 82.9105 118.031 82.7949 117.878 82.6387C117.725 82.4824 117.606 82.279 117.521 82.0283C117.44 81.7777 117.399 81.4766 117.399 81.125V77.7168H118.303V81.1348C118.303 81.3724 118.329 81.5693 118.381 81.7256C118.436 81.8786 118.509 82.0007 118.601 82.0918C118.695 82.1797 118.799 82.2415 118.913 82.2773C119.03 82.3132 119.151 82.3311 119.274 82.3311C119.659 82.3311 119.963 82.2578 120.188 82.1113C120.412 81.9616 120.573 81.7614 120.671 81.5107C120.772 81.2568 120.822 80.9753 120.822 80.666ZM123.84 78.7324V85.0312H122.932V77.7168H123.762L123.84 78.7324ZM127.399 80.3145V80.417C127.399 80.8011 127.354 81.1576 127.263 81.4863C127.172 81.8118 127.038 82.0951 126.862 82.3359C126.69 82.5768 126.477 82.764 126.223 82.8975C125.969 83.0309 125.677 83.0977 125.349 83.0977C125.013 83.0977 124.717 83.0423 124.46 82.9316C124.203 82.821 123.985 82.6598 123.806 82.4482C123.627 82.2367 123.483 81.9827 123.376 81.6865C123.272 81.3903 123.2 81.0566 123.161 80.6855V80.1387C123.2 79.748 123.273 79.3981 123.381 79.0889C123.488 78.7796 123.63 78.516 123.806 78.2979C123.985 78.0765 124.201 77.9089 124.455 77.7949C124.709 77.6777 125.002 77.6191 125.334 77.6191C125.666 77.6191 125.961 77.6842 126.218 77.8145C126.475 77.9414 126.691 78.1237 126.867 78.3613C127.043 78.599 127.175 78.8838 127.263 79.2158C127.354 79.5446 127.399 79.9108 127.399 80.3145ZM126.491 80.417V80.3145C126.491 80.0508 126.464 79.8034 126.408 79.5723C126.353 79.3379 126.267 79.1328 126.149 78.957C126.035 78.778 125.889 78.638 125.71 78.5371C125.531 78.4329 125.318 78.3809 125.07 78.3809C124.842 78.3809 124.644 78.4199 124.475 78.498C124.309 78.5762 124.167 78.682 124.05 78.8154C123.933 78.9456 123.837 79.0954 123.762 79.2646C123.69 79.4307 123.636 79.6032 123.601 79.7822V81.0469C123.666 81.2747 123.757 81.4896 123.874 81.6914C123.991 81.89 124.147 82.0511 124.343 82.1748C124.538 82.2952 124.784 82.3555 125.08 82.3555C125.324 82.3555 125.534 82.305 125.71 82.2041C125.889 82.0999 126.035 81.9583 126.149 81.7793C126.267 81.6003 126.353 81.3952 126.408 81.1641C126.464 80.9297 126.491 80.6807 126.491 80.417ZM129.533 75.5V83H128.625V75.5H129.533ZM130.744 80.417V80.3047C130.744 79.9238 130.799 79.5706 130.91 79.2451C131.021 78.9163 131.18 78.6315 131.389 78.3906C131.597 78.1465 131.849 77.9577 132.146 77.8242C132.442 77.6875 132.774 77.6191 133.142 77.6191C133.513 77.6191 133.846 77.6875 134.143 77.8242C134.442 77.9577 134.696 78.1465 134.904 78.3906C135.116 78.6315 135.277 78.9163 135.388 79.2451C135.498 79.5706 135.554 79.9238 135.554 80.3047V80.417C135.554 80.7979 135.498 81.151 135.388 81.4766C135.277 81.8021 135.116 82.0869 134.904 82.3311C134.696 82.5719 134.444 82.7607 134.147 82.8975C133.854 83.0309 133.522 83.0977 133.151 83.0977C132.78 83.0977 132.447 83.0309 132.15 82.8975C131.854 82.7607 131.6 82.5719 131.389 82.3311C131.18 82.0869 131.021 81.8021 130.91 81.4766C130.799 81.151 130.744 80.7979 130.744 80.417ZM131.647 80.3047V80.417C131.647 80.6807 131.678 80.9297 131.74 81.1641C131.802 81.3952 131.895 81.6003 132.019 81.7793C132.146 81.9583 132.303 82.0999 132.492 82.2041C132.681 82.305 132.901 82.3555 133.151 82.3555C133.399 82.3555 133.615 82.305 133.801 82.2041C133.99 82.0999 134.146 81.9583 134.27 81.7793C134.393 81.6003 134.486 81.3952 134.548 81.1641C134.613 80.9297 134.646 80.6807 134.646 80.417V80.3047C134.646 80.0443 134.613 79.7985 134.548 79.5674C134.486 79.333 134.392 79.1263 134.265 78.9473C134.141 78.765 133.985 78.6217 133.796 78.5176C133.61 78.4134 133.392 78.3613 133.142 78.3613C132.894 78.3613 132.676 78.4134 132.487 78.5176C132.302 78.6217 132.146 78.765 132.019 78.9473C131.895 79.1263 131.802 79.333 131.74 79.5674C131.678 79.7985 131.647 80.0443 131.647 80.3047ZM139.802 82.0967V79.377C139.802 79.1686 139.759 78.988 139.675 78.835C139.593 78.6787 139.47 78.5583 139.304 78.4736C139.138 78.389 138.933 78.3467 138.688 78.3467C138.461 78.3467 138.26 78.3857 138.088 78.4639C137.919 78.542 137.785 78.6445 137.688 78.7715C137.593 78.8984 137.546 79.0352 137.546 79.1816H136.643C136.643 78.9928 136.691 78.8057 136.789 78.6201C136.887 78.4346 137.027 78.2669 137.209 78.1172C137.395 77.9642 137.616 77.8438 137.873 77.7559C138.133 77.6647 138.423 77.6191 138.742 77.6191C139.126 77.6191 139.465 77.6842 139.758 77.8145C140.054 77.9447 140.285 78.1416 140.451 78.4053C140.62 78.6657 140.705 78.9928 140.705 79.3867V81.8477C140.705 82.0234 140.72 82.2106 140.749 82.4092C140.782 82.6077 140.829 82.7786 140.891 82.9219V83H139.948C139.903 82.8958 139.867 82.7575 139.841 82.585C139.815 82.4092 139.802 82.2464 139.802 82.0967ZM139.958 79.7969L139.968 80.4316H139.055C138.798 80.4316 138.568 80.4528 138.366 80.4951C138.164 80.5342 137.995 80.5944 137.858 80.6758C137.722 80.7572 137.618 80.8597 137.546 80.9834C137.474 81.1038 137.438 81.2454 137.438 81.4082C137.438 81.5742 137.476 81.7256 137.551 81.8623C137.626 81.999 137.738 82.1081 137.888 82.1895C138.041 82.2676 138.228 82.3066 138.449 82.3066C138.726 82.3066 138.97 82.248 139.182 82.1309C139.393 82.0137 139.561 81.8704 139.685 81.7012C139.812 81.5319 139.88 81.3675 139.89 81.208L140.275 81.6426C140.253 81.7793 140.191 81.9307 140.09 82.0967C139.989 82.2627 139.854 82.4222 139.685 82.5752C139.519 82.7249 139.32 82.8503 139.089 82.9512C138.861 83.0488 138.604 83.0977 138.317 83.0977C137.959 83.0977 137.645 83.0277 137.375 82.8877C137.108 82.7477 136.9 82.5605 136.75 82.3262C136.604 82.0885 136.53 81.8232 136.53 81.5303C136.53 81.2471 136.586 80.998 136.696 80.7832C136.807 80.5651 136.966 80.3844 137.175 80.2412C137.383 80.0947 137.634 79.984 137.927 79.9092C138.22 79.8343 138.547 79.7969 138.908 79.7969H139.958ZM145.456 81.9746V75.5H146.364V83H145.534L145.456 81.9746ZM141.901 80.417V80.3145C141.901 79.9108 141.95 79.5446 142.048 79.2158C142.149 78.8838 142.29 78.599 142.473 78.3613C142.658 78.1237 142.878 77.9414 143.132 77.8145C143.389 77.6842 143.675 77.6191 143.991 77.6191C144.323 77.6191 144.613 77.6777 144.86 77.7949C145.111 77.9089 145.323 78.0765 145.495 78.2979C145.671 78.516 145.809 78.7796 145.91 79.0889C146.011 79.3981 146.081 79.748 146.12 80.1387V80.5879C146.084 80.9753 146.014 81.3236 145.91 81.6328C145.809 81.9421 145.671 82.2057 145.495 82.4238C145.323 82.6419 145.111 82.8096 144.86 82.9268C144.61 83.0407 144.317 83.0977 143.981 83.0977C143.672 83.0977 143.389 83.0309 143.132 82.8975C142.878 82.764 142.658 82.5768 142.473 82.3359C142.29 82.0951 142.149 81.8118 142.048 81.4863C141.95 81.1576 141.901 80.8011 141.901 80.417ZM142.81 80.3145V80.417C142.81 80.6807 142.836 80.9281 142.888 81.1592C142.943 81.3903 143.028 81.5938 143.142 81.7695C143.256 81.9453 143.4 82.0837 143.576 82.1846C143.752 82.2822 143.962 82.3311 144.206 82.3311C144.506 82.3311 144.751 82.2676 144.943 82.1406C145.139 82.0137 145.295 81.846 145.412 81.6377C145.529 81.4294 145.62 81.2031 145.686 80.959V79.7822C145.646 79.6032 145.59 79.4307 145.515 79.2646C145.443 79.0954 145.349 78.9456 145.231 78.8154C145.118 78.682 144.976 78.5762 144.807 78.498C144.641 78.4199 144.444 78.3809 144.216 78.3809C143.968 78.3809 143.755 78.4329 143.576 78.5371C143.4 78.638 143.256 78.778 143.142 78.957C143.028 79.1328 142.943 79.3379 142.888 79.5723C142.836 79.8034 142.81 80.0508 142.81 80.3145ZM150.847 81.5986C150.847 81.4684 150.817 81.348 150.759 81.2373C150.703 81.1234 150.588 81.0208 150.412 80.9297C150.24 80.8353 149.979 80.7539 149.631 80.6855C149.338 80.6237 149.073 80.5505 148.835 80.4658C148.601 80.3812 148.4 80.2786 148.234 80.1582C148.072 80.0378 147.946 79.8962 147.858 79.7334C147.771 79.5706 147.727 79.3802 147.727 79.1621C147.727 78.9538 147.772 78.7568 147.863 78.5713C147.958 78.3857 148.09 78.2214 148.259 78.0781C148.431 77.9349 148.638 77.8226 148.879 77.7412C149.12 77.6598 149.388 77.6191 149.685 77.6191C150.108 77.6191 150.469 77.694 150.769 77.8438C151.068 77.9935 151.298 78.1937 151.457 78.4443C151.617 78.6917 151.696 78.9668 151.696 79.2695H150.793C150.793 79.123 150.749 78.9814 150.661 78.8447C150.576 78.7048 150.451 78.5892 150.285 78.498C150.122 78.4069 149.922 78.3613 149.685 78.3613C149.434 78.3613 149.23 78.4004 149.074 78.4785C148.921 78.5534 148.809 78.6494 148.737 78.7666C148.669 78.8838 148.635 79.0075 148.635 79.1377C148.635 79.2354 148.651 79.3232 148.684 79.4014C148.719 79.4762 148.781 79.5462 148.869 79.6113C148.957 79.6732 149.081 79.7318 149.24 79.7871C149.4 79.8424 149.603 79.8978 149.851 79.9531C150.284 80.0508 150.64 80.168 150.92 80.3047C151.2 80.4414 151.408 80.609 151.545 80.8076C151.682 81.0062 151.75 81.2471 151.75 81.5303C151.75 81.7614 151.701 81.973 151.604 82.165C151.509 82.3571 151.371 82.5231 151.188 82.6631C151.009 82.7998 150.795 82.9072 150.544 82.9854C150.297 83.0602 150.018 83.0977 149.709 83.0977C149.243 83.0977 148.85 83.0146 148.527 82.8486C148.205 82.6826 147.961 82.4678 147.795 82.2041C147.629 81.9404 147.546 81.6621 147.546 81.3691H148.454C148.467 81.6165 148.539 81.8135 148.669 81.96C148.799 82.1032 148.959 82.2057 149.147 82.2676C149.336 82.3262 149.523 82.3555 149.709 82.3555C149.956 82.3555 150.163 82.3229 150.329 82.2578C150.498 82.1927 150.627 82.1032 150.715 81.9893C150.803 81.8753 150.847 81.7451 150.847 81.5986Z" fill="#777777"/>
<path d="M94.1 75C94.3387 75 94.5676 75.1054 94.7364 75.2929C94.9052 75.4804 95 75.7348 95 76V83C95 83.2652 94.9052 83.5196 94.7364 83.7071C94.5676 83.8946 94.3387 84 94.1 84H86.9C86.6613 84 86.4324 83.8946 86.2636 83.7071C86.0948 83.5196 86 83.2652 86 83V76C86 75.7348 86.0948 75.4804 86.2636 75.2929C86.4324 75.1054 86.6613 75 86.9 75H94.1ZM94.1 76H86.9V81.05L89.1477 78.553C89.2 78.4949 89.262 78.4489 89.3303 78.4175C89.3985 78.3861 89.4717 78.3699 89.5455 78.3699C89.6194 78.3699 89.6926 78.3861 89.7608 78.4175C89.8291 78.4489 89.8911 78.4949 89.9433 78.553L91.7726 80.586L92.3297 79.967C92.3819 79.9089 92.444 79.8629 92.5122 79.8315C92.5805 79.8001 92.6536 79.7839 92.7275 79.7839C92.8014 79.7839 92.8745 79.8001 92.9428 79.8315C93.011 79.8629 93.0731 79.9089 93.1253 79.967L94.1 81.0505V76ZM92.075 77C92.254 77 92.4257 77.079 92.5523 77.2197C92.6789 77.3603 92.75 77.5511 92.75 77.75C92.75 77.9489 92.6789 78.1397 92.5523 78.2803C92.4257 78.421 92.254 78.5 92.075 78.5C91.896 78.5 91.7243 78.421 91.5977 78.2803C91.4711 78.1397 91.4 77.9489 91.4 77.75C91.4 77.5511 91.4711 77.3603 91.5977 77.2197C91.7243 77.079 91.896 77 92.075 77Z" fill="#DD7700"/>
<path d="M91 66C93.2093 66 95 64.625 95 62.2188C95 61.1875 94.6667 59.4688 93.3333 58.0938C93.5 59.125 92.5 59.4688 92.5 59.4688C93 57.75 91.6667 55.3438 89.6667 55C89.9047 56.375 90 57.75 88.3333 59.125C87.5 59.8125 87 61.0012 87 62.2188C87 64.625 88.7907 66 91 66ZM91 65.3125C89.8953 65.3125 89 64.625 89 63.4219C89 62.9062 89.1667 62.0469 89.8333 61.3594C89.75 61.875 90.3333 62.2188 90.3333 62.2188C90.0833 61.3594 90.6667 59.9844 91.6667 59.8125C91.5473 60.5 91.5 61.1875 92.3333 61.875C92.75 62.2188 93 62.8127 93 63.4219C93 64.625 92.1047 65.3125 91 65.3125Z" fill="#E75151"/>
</g>
<path d="M48.7383 72.8633V76.6133H28.2305L28.0742 73.7812L40.3398 54.5625H44.1094L40.0273 61.5547L32.9766 72.8633H48.7383ZM45.1836 54.5625V83H40.4766V54.5625H45.1836ZM56.8242 69.7773L53.0742 68.8594L54.6172 54.5625H69.9492V58.5469H58.5234L57.7422 65.5195C58.1849 65.2591 58.7969 65.0052 59.5781 64.7578C60.3594 64.4974 61.2513 64.3672 62.2539 64.3672C63.5951 64.3672 64.793 64.5885 65.8477 65.0312C66.9154 65.4609 67.8203 66.0924 68.5625 66.9258C69.3047 67.7461 69.8711 68.7487 70.2617 69.9336C70.6523 71.1055 70.8477 72.4271 70.8477 73.8984C70.8477 75.2135 70.6523 76.444 70.2617 77.5898C69.8841 78.7357 69.3112 79.7448 68.543 80.6172C67.7747 81.4896 66.8047 82.1732 65.6328 82.668C64.474 83.1497 63.1003 83.3906 61.5117 83.3906C60.3268 83.3906 59.1875 83.2214 58.0938 82.8828C57.013 82.5312 56.043 82.0169 55.1836 81.3398C54.3242 80.6497 53.6341 79.8034 53.1133 78.8008C52.5924 77.7852 52.293 76.6198 52.2148 75.3047H56.8242C56.9414 76.2292 57.1953 77.0169 57.5859 77.668C57.9896 78.306 58.5234 78.7943 59.1875 79.1328C59.8516 79.4714 60.6198 79.6406 61.4922 79.6406C62.2865 79.6406 62.9701 79.5039 63.543 79.2305C64.1159 78.944 64.5911 78.5404 64.9688 78.0195C65.3594 77.4857 65.6458 76.8607 65.8281 76.1445C66.0234 75.4284 66.1211 74.6341 66.1211 73.7617C66.1211 72.9284 66.0104 72.1667 65.7891 71.4766C65.5807 70.7865 65.2617 70.1875 64.832 69.6797C64.4154 69.1719 63.888 68.7812 63.25 68.5078C62.612 68.2214 61.8763 68.0781 61.043 68.0781C59.9232 68.0781 59.0638 68.2409 58.4648 68.5664C57.8789 68.8919 57.332 69.2956 56.8242 69.7773Z" fill="#333333"/>
<path d="M34.6699 29.5V29.9688C34.6699 30.6133 34.5859 31.1914 34.418 31.7031C34.25 32.2148 34.0098 32.6504 33.6973 33.0098C33.3887 33.3691 33.0176 33.6445 32.584 33.8359C32.1504 34.0234 31.6699 34.1172 31.1426 34.1172C30.6191 34.1172 30.1406 34.0234 29.707 33.8359C29.2773 33.6445 28.9043 33.3691 28.5879 33.0098C28.2715 32.6504 28.0254 32.2148 27.8496 31.7031C27.6777 31.1914 27.5918 30.6133 27.5918 29.9688V29.5C27.5918 28.8555 27.6777 28.2793 27.8496 27.7715C28.0215 27.2598 28.2637 26.8242 28.5762 26.4648C28.8926 26.1016 29.2656 25.8262 29.6953 25.6387C30.1289 25.4473 30.6074 25.3516 31.1309 25.3516C31.6582 25.3516 32.1387 25.4473 32.5723 25.6387C33.0059 25.8262 33.3789 26.1016 33.6914 26.4648C34.0039 26.8242 34.2441 27.2598 34.4121 27.7715C34.584 28.2793 34.6699 28.8555 34.6699 29.5ZM33.1992 29.9688V29.4883C33.1992 29.0117 33.1523 28.5918 33.0586 28.2285C32.9688 27.8613 32.834 27.5547 32.6543 27.3086C32.4785 27.0586 32.2617 26.8711 32.0039 26.7461C31.7461 26.6172 31.4551 26.5527 31.1309 26.5527C30.8066 26.5527 30.5176 26.6172 30.2637 26.7461C30.0098 26.8711 29.793 27.0586 29.6133 27.3086C29.4375 27.5547 29.3027 27.8613 29.209 28.2285C29.1152 28.5918 29.0684 29.0117 29.0684 29.4883V29.9688C29.0684 30.4453 29.1152 30.8672 29.209 31.2344C29.3027 31.6016 29.4395 31.9121 29.6191 32.166C29.8027 32.416 30.0215 32.6055 30.2754 32.7344C30.5293 32.8594 30.8184 32.9219 31.1426 32.9219C31.4707 32.9219 31.7617 32.8594 32.0156 32.7344C32.2695 32.6055 32.4844 32.416 32.6602 32.166C32.8359 31.9121 32.9688 31.6016 33.0586 31.2344C33.1523 30.8672 33.1992 30.4453 33.1992 29.9688ZM38.0625 32.8809L39.6152 27.6602H41.0801L38.877 34H37.9629L38.0625 32.8809ZM36.873 27.6602L38.4551 32.9043L38.5312 34H37.6172L35.4023 27.6602H36.873ZM44.666 34.1172C44.1973 34.1172 43.7734 34.041 43.3945 33.8887C43.0195 33.7324 42.6992 33.5156 42.4336 33.2383C42.1719 32.9609 41.9707 32.6348 41.8301 32.2598C41.6895 31.8848 41.6191 31.4805 41.6191 31.0469V30.8125C41.6191 30.3164 41.6914 29.8672 41.8359 29.4648C41.9805 29.0625 42.1816 28.7188 42.4395 28.4336C42.6973 28.1445 43.002 27.9238 43.3535 27.7715C43.7051 27.6191 44.0859 27.543 44.4961 27.543C44.9492 27.543 45.3457 27.6191 45.6855 27.7715C46.0254 27.9238 46.3066 28.1387 46.5293 28.416C46.7559 28.6895 46.9238 29.0156 47.0332 29.3945C47.1465 29.7734 47.2031 30.1914 47.2031 30.6484V31.252H42.3047V30.2383H45.8086V30.127C45.8008 29.873 45.75 29.6348 45.6562 29.4121C45.5664 29.1895 45.4277 29.0098 45.2402 28.873C45.0527 28.7363 44.8027 28.668 44.4902 28.668C44.2559 28.668 44.0469 28.7188 43.8633 28.8203C43.6836 28.918 43.5332 29.0605 43.4121 29.248C43.291 29.4355 43.1973 29.6621 43.1309 29.9277C43.0684 30.1895 43.0371 30.4844 43.0371 30.8125V31.0469C43.0371 31.3242 43.0742 31.582 43.1484 31.8203C43.2266 32.0547 43.3398 32.2598 43.4883 32.4355C43.6367 32.6113 43.8164 32.75 44.0273 32.8516C44.2383 32.9492 44.4785 32.998 44.748 32.998C45.0879 32.998 45.3906 32.9297 45.6562 32.793C45.9219 32.6562 46.1523 32.4629 46.3477 32.2129L47.0918 32.9336C46.9551 33.1328 46.7773 33.3242 46.5586 33.5078C46.3398 33.6875 46.0723 33.834 45.7559 33.9473C45.4434 34.0605 45.0801 34.1172 44.666 34.1172ZM49.7227 28.8672V34H48.3105V27.6602H49.6582L49.7227 28.8672ZM51.6621 27.6191L51.6504 28.9316C51.5645 28.916 51.4707 28.9043 51.3691 28.8965C51.2715 28.8887 51.1738 28.8848 51.0762 28.8848C50.834 28.8848 50.6211 28.9199 50.4375 28.9902C50.2539 29.0566 50.0996 29.1543 49.9746 29.2832C49.8535 29.4082 49.7598 29.5605 49.6934 29.7402C49.627 29.9199 49.5879 30.1211 49.5762 30.3438L49.2539 30.3672C49.2539 29.9688 49.293 29.5996 49.3711 29.2598C49.4492 28.9199 49.5664 28.6211 49.7227 28.3633C49.8828 28.1055 50.082 27.9043 50.3203 27.7598C50.5625 27.6152 50.8418 27.543 51.1582 27.543C51.2441 27.543 51.3359 27.5508 51.4336 27.5664C51.5352 27.582 51.6113 27.5996 51.6621 27.6191ZM55.9102 32.7285V29.7051C55.9102 29.4785 55.8691 29.2832 55.7871 29.1191C55.7051 28.9551 55.5801 28.8281 55.4121 28.7383C55.248 28.6484 55.041 28.6035 54.791 28.6035C54.5605 28.6035 54.3613 28.6426 54.1934 28.7207C54.0254 28.7988 53.8945 28.9043 53.8008 29.0371C53.707 29.1699 53.6602 29.3203 53.6602 29.4883H52.2539C52.2539 29.2383 52.3145 28.9961 52.4355 28.7617C52.5566 28.5273 52.7324 28.3184 52.9629 28.1348C53.1934 27.9512 53.4688 27.8066 53.7891 27.7012C54.1094 27.5957 54.4688 27.543 54.8672 27.543C55.3438 27.543 55.7656 27.623 56.1328 27.7832C56.5039 27.9434 56.7949 28.1855 57.0059 28.5098C57.2207 28.8301 57.3281 29.2324 57.3281 29.7168V32.5352C57.3281 32.8242 57.3477 33.084 57.3867 33.3145C57.4297 33.541 57.4902 33.7383 57.5684 33.9062V34H56.1211C56.0547 33.8477 56.002 33.6543 55.9629 33.4199C55.9277 33.1816 55.9102 32.9512 55.9102 32.7285ZM56.1152 30.1445L56.127 31.0176H55.1133C54.8516 31.0176 54.6211 31.043 54.4219 31.0938C54.2227 31.1406 54.0566 31.2109 53.9238 31.3047C53.791 31.3984 53.6914 31.5117 53.625 31.6445C53.5586 31.7773 53.5254 31.9277 53.5254 32.0957C53.5254 32.2637 53.5645 32.418 53.6426 32.5586C53.7207 32.6953 53.834 32.8027 53.9824 32.8809C54.1348 32.959 54.3184 32.998 54.5332 32.998C54.8223 32.998 55.0742 32.9395 55.2891 32.8223C55.5078 32.7012 55.6797 32.5547 55.8047 32.3828C55.9297 32.207 55.9961 32.041 56.0039 31.8848L56.4609 32.5117C56.4141 32.6719 56.334 32.8438 56.2207 33.0273C56.1074 33.2109 55.959 33.3867 55.7754 33.5547C55.5957 33.7188 55.3789 33.8535 55.125 33.959C54.875 34.0645 54.5859 34.1172 54.2578 34.1172C53.8438 34.1172 53.4746 34.0352 53.1504 33.8711C52.8262 33.7031 52.5723 33.4785 52.3887 33.1973C52.2051 32.9121 52.1133 32.5898 52.1133 32.2305C52.1133 31.8945 52.1758 31.5977 52.3008 31.3398C52.4297 31.0781 52.6172 30.8594 52.8633 30.6836C53.1133 30.5078 53.418 30.375 53.7773 30.2852C54.1367 30.1914 54.5469 30.1445 55.0078 30.1445H56.1152ZM60.3164 25V34H58.8984V25H60.3164ZM63.375 25V34H61.957V25H63.375ZM72.5391 31.8027C72.5391 31.627 72.5117 31.4707 72.457 31.334C72.4062 31.1973 72.3145 31.0723 72.1816 30.959C72.0488 30.8457 71.8613 30.7363 71.6191 30.6309C71.3809 30.5215 71.0762 30.4102 70.7051 30.2969C70.2988 30.1719 69.9238 30.0332 69.5801 29.8809C69.2402 29.7246 68.9434 29.5449 68.6895 29.3418C68.4355 29.1348 68.2383 28.8984 68.0977 28.6328C67.957 28.3633 67.8867 28.0527 67.8867 27.7012C67.8867 27.3535 67.959 27.0371 68.1035 26.752C68.252 26.4668 68.4609 26.2207 68.7305 26.0137C69.0039 25.8027 69.3262 25.6406 69.6973 25.5273C70.0684 25.4102 70.4785 25.3516 70.9277 25.3516C71.5605 25.3516 72.1055 25.4688 72.5625 25.7031C73.0234 25.9375 73.377 26.252 73.623 26.6465C73.873 27.041 73.998 27.4766 73.998 27.9531H72.5391C72.5391 27.6719 72.4785 27.4238 72.3574 27.209C72.2402 26.9902 72.0605 26.8184 71.8184 26.6934C71.5801 26.5684 71.2773 26.5059 70.9102 26.5059C70.5625 26.5059 70.2734 26.5586 70.043 26.6641C69.8125 26.7695 69.6406 26.9121 69.5273 27.0918C69.4141 27.2715 69.3574 27.4746 69.3574 27.7012C69.3574 27.8613 69.3945 28.0078 69.4688 28.1406C69.543 28.2695 69.6562 28.3906 69.8086 28.5039C69.9609 28.6133 70.1523 28.7168 70.3828 28.8145C70.6133 28.9121 70.8848 29.0059 71.1973 29.0957C71.6699 29.2363 72.082 29.3926 72.4336 29.5645C72.7852 29.7324 73.0781 29.9238 73.3125 30.1387C73.5469 30.3535 73.7227 30.5977 73.8398 30.8711C73.957 31.1406 74.0156 31.4473 74.0156 31.791C74.0156 32.1504 73.9434 32.4746 73.7988 32.7637C73.6543 33.0488 73.4473 33.293 73.1777 33.4961C72.9121 33.6953 72.5918 33.8496 72.2168 33.959C71.8457 34.0645 71.4316 34.1172 70.9746 34.1172C70.5645 34.1172 70.1602 34.0625 69.7617 33.9531C69.3672 33.8438 69.0078 33.6777 68.6836 33.4551C68.3594 33.2285 68.1016 32.9473 67.9102 32.6113C67.7188 32.2715 67.623 31.875 67.623 31.4219H69.0938C69.0938 31.6992 69.1406 31.9355 69.2344 32.1309C69.332 32.3262 69.4668 32.4863 69.6387 32.6113C69.8105 32.7324 70.0098 32.8223 70.2363 32.8809C70.4668 32.9395 70.7129 32.9688 70.9746 32.9688C71.3184 32.9688 71.6055 32.9199 71.8359 32.8223C72.0703 32.7246 72.2461 32.5879 72.3633 32.4121C72.4805 32.2363 72.5391 32.0332 72.5391 31.8027ZM76.5996 25V34H75.1816V25H76.5996ZM80.5371 27.6602L77.7773 30.7188L76.2656 32.2656L75.8965 31.0703L77.0391 29.6582L78.832 27.6602H80.5371ZM79.1367 34L77.0801 31.0234L77.9707 30.0332L80.7715 34H79.1367ZM82.9453 27.6602V34H81.5273V27.6602H82.9453ZM81.4336 25.9961C81.4336 25.7812 81.5039 25.6035 81.6445 25.4629C81.7891 25.3184 81.9883 25.2461 82.2422 25.2461C82.4922 25.2461 82.6895 25.3184 82.834 25.4629C82.9785 25.6035 83.0508 25.7812 83.0508 25.9961C83.0508 26.207 82.9785 26.3828 82.834 26.5234C82.6895 26.6641 82.4922 26.7344 82.2422 26.7344C81.9883 26.7344 81.7891 26.6641 81.6445 26.5234C81.5039 26.3828 81.4336 26.207 81.4336 25.9961ZM85.8926 29.0137V34H84.4805V27.6602H85.8105L85.8926 29.0137ZM85.6406 30.5957L85.1836 30.5898C85.1875 30.1406 85.25 29.7285 85.3711 29.3535C85.4961 28.9785 85.668 28.6562 85.8867 28.3867C86.1094 28.1172 86.375 27.9102 86.6836 27.7656C86.9922 27.6172 87.3359 27.543 87.7148 27.543C88.0195 27.543 88.2949 27.5859 88.541 27.6719C88.791 27.7539 89.0039 27.8887 89.1797 28.0762C89.3594 28.2637 89.4961 28.5078 89.5898 28.8086C89.6836 29.1055 89.7305 29.4707 89.7305 29.9043V34H88.3125V29.8984C88.3125 29.5938 88.2676 29.3535 88.1777 29.1777C88.0918 28.998 87.9648 28.8711 87.7969 28.7969C87.6328 28.7188 87.4277 28.6797 87.1816 28.6797C86.9395 28.6797 86.7227 28.7305 86.5312 28.832C86.3398 28.9336 86.1777 29.0723 86.0449 29.248C85.916 29.4238 85.8164 29.627 85.7461 29.8574C85.6758 30.0879 85.6406 30.334 85.6406 30.5957ZM97.7168 32.2832C97.7168 32.1426 97.6816 32.0156 97.6113 31.9023C97.541 31.7852 97.4062 31.6797 97.207 31.5859C97.0117 31.4922 96.7227 31.4062 96.3398 31.3281C96.0039 31.2539 95.6953 31.166 95.4141 31.0645C95.1367 30.959 94.8984 30.832 94.6992 30.6836C94.5 30.5352 94.3457 30.3594 94.2363 30.1562C94.127 29.9531 94.0723 29.7188 94.0723 29.4531C94.0723 29.1953 94.1289 28.9512 94.2422 28.7207C94.3555 28.4902 94.5176 28.2871 94.7285 28.1113C94.9395 27.9355 95.1953 27.7969 95.4961 27.6953C95.8008 27.5938 96.1406 27.543 96.5156 27.543C97.0469 27.543 97.502 27.6328 97.8809 27.8125C98.2637 27.9883 98.5566 28.2285 98.7598 28.5332C98.9629 28.834 99.0645 29.1738 99.0645 29.5527H97.6523C97.6523 29.3848 97.6094 29.2285 97.5234 29.084C97.4414 28.9355 97.3164 28.8164 97.1484 28.7266C96.9805 28.6328 96.7695 28.5859 96.5156 28.5859C96.2734 28.5859 96.0723 28.625 95.9121 28.7031C95.7559 28.7773 95.6387 28.875 95.5605 28.9961C95.4863 29.1172 95.4492 29.25 95.4492 29.3945C95.4492 29.5 95.4688 29.5957 95.5078 29.6816C95.5508 29.7637 95.6211 29.8398 95.7188 29.9102C95.8164 29.9766 95.9492 30.0391 96.1172 30.0977C96.2891 30.1562 96.5039 30.2129 96.7617 30.2676C97.2461 30.3691 97.6621 30.5 98.0098 30.6602C98.3613 30.8164 98.6309 31.0195 98.8184 31.2695C99.0059 31.5156 99.0996 31.8281 99.0996 32.207C99.0996 32.4883 99.0391 32.7461 98.918 32.9805C98.8008 33.2109 98.6289 33.4121 98.4023 33.584C98.1758 33.752 97.9043 33.8828 97.5879 33.9766C97.2754 34.0703 96.9238 34.1172 96.5332 34.1172C95.959 34.1172 95.4727 34.0156 95.0742 33.8125C94.6758 33.6055 94.373 33.3418 94.166 33.0215C93.9629 32.6973 93.8613 32.3613 93.8613 32.0137H95.2266C95.2422 32.2754 95.3145 32.4844 95.4434 32.6406C95.5762 32.793 95.7402 32.9043 95.9355 32.9746C96.1348 33.041 96.3398 33.0742 96.5508 33.0742C96.8047 33.0742 97.0176 33.041 97.1895 32.9746C97.3613 32.9043 97.4922 32.8105 97.582 32.6934C97.6719 32.5723 97.7168 32.4355 97.7168 32.2832ZM102.926 32.9922C103.156 32.9922 103.363 32.9473 103.547 32.8574C103.734 32.7637 103.885 32.6348 103.998 32.4707C104.115 32.3066 104.18 32.1172 104.191 31.9023H105.521C105.514 32.3125 105.393 32.6855 105.158 33.0215C104.924 33.3574 104.613 33.625 104.227 33.8242C103.84 34.0195 103.412 34.1172 102.943 34.1172C102.459 34.1172 102.037 34.0352 101.678 33.8711C101.318 33.7031 101.02 33.4727 100.781 33.1797C100.543 32.8867 100.363 32.5488 100.242 32.166C100.125 31.7832 100.066 31.373 100.066 30.9355V30.7305C100.066 30.293 100.125 29.8828 100.242 29.5C100.363 29.1133 100.543 28.7734 100.781 28.4805C101.02 28.1875 101.318 27.959 101.678 27.7949C102.037 27.627 102.457 27.543 102.938 27.543C103.445 27.543 103.891 27.6445 104.273 27.8477C104.656 28.0469 104.957 28.3262 105.176 28.6855C105.398 29.041 105.514 29.4551 105.521 29.9277H104.191C104.18 29.6934 104.121 29.4824 104.016 29.2949C103.914 29.1035 103.77 28.9512 103.582 28.8379C103.398 28.7246 103.178 28.668 102.92 28.668C102.635 28.668 102.398 28.7266 102.211 28.8438C102.023 28.957 101.877 29.1133 101.771 29.3125C101.666 29.5078 101.59 29.7285 101.543 29.9746C101.5 30.2168 101.479 30.4688 101.479 30.7305V30.9355C101.479 31.1973 101.5 31.4512 101.543 31.6973C101.586 31.9434 101.66 32.1641 101.766 32.3594C101.875 32.5508 102.023 32.7051 102.211 32.8223C102.398 32.9355 102.637 32.9922 102.926 32.9922ZM106.336 30.9004V30.7656C106.336 30.3086 106.402 29.8848 106.535 29.4941C106.668 29.0996 106.859 28.7578 107.109 28.4688C107.363 28.1758 107.672 27.9492 108.035 27.7891C108.402 27.625 108.816 27.543 109.277 27.543C109.742 27.543 110.156 27.625 110.52 27.7891C110.887 27.9492 111.197 28.1758 111.451 28.4688C111.705 28.7578 111.898 29.0996 112.031 29.4941C112.164 29.8848 112.23 30.3086 112.23 30.7656V30.9004C112.23 31.3574 112.164 31.7812 112.031 32.1719C111.898 32.5625 111.705 32.9043 111.451 33.1973C111.197 33.4863 110.889 33.7129 110.525 33.877C110.162 34.0371 109.75 34.1172 109.289 34.1172C108.824 34.1172 108.408 34.0371 108.041 33.877C107.678 33.7129 107.369 33.4863 107.115 33.1973C106.861 32.9043 106.668 32.5625 106.535 32.1719C106.402 31.7812 106.336 31.3574 106.336 30.9004ZM107.748 30.7656V30.9004C107.748 31.1855 107.777 31.4551 107.836 31.709C107.895 31.9629 107.986 32.1855 108.111 32.377C108.236 32.5684 108.396 32.7188 108.592 32.8281C108.787 32.9375 109.02 32.9922 109.289 32.9922C109.551 32.9922 109.777 32.9375 109.969 32.8281C110.164 32.7188 110.324 32.5684 110.449 32.377C110.574 32.1855 110.666 31.9629 110.725 31.709C110.787 31.4551 110.818 31.1855 110.818 30.9004V30.7656C110.818 30.4844 110.787 30.2188 110.725 29.9688C110.666 29.7148 110.572 29.4902 110.443 29.2949C110.318 29.0996 110.158 28.9473 109.963 28.8379C109.771 28.7246 109.543 28.668 109.277 28.668C109.012 28.668 108.781 28.7246 108.586 28.8379C108.395 28.9473 108.236 29.0996 108.111 29.2949C107.986 29.4902 107.895 29.7148 107.836 29.9688C107.777 30.2188 107.748 30.4844 107.748 30.7656ZM114.832 28.8672V34H113.42V27.6602H114.768L114.832 28.8672ZM116.771 27.6191L116.76 28.9316C116.674 28.916 116.58 28.9043 116.479 28.8965C116.381 28.8887 116.283 28.8848 116.186 28.8848C115.943 28.8848 115.73 28.9199 115.547 28.9902C115.363 29.0566 115.209 29.1543 115.084 29.2832C114.963 29.4082 114.869 29.5605 114.803 29.7402C114.736 29.9199 114.697 30.1211 114.686 30.3438L114.363 30.3672C114.363 29.9688 114.402 29.5996 114.48 29.2598C114.559 28.9199 114.676 28.6211 114.832 28.3633C114.992 28.1055 115.191 27.9043 115.43 27.7598C115.672 27.6152 115.951 27.543 116.268 27.543C116.354 27.543 116.445 27.5508 116.543 27.5664C116.645 27.582 116.721 27.5996 116.771 27.6191ZM120.334 34.1172C119.865 34.1172 119.441 34.041 119.062 33.8887C118.688 33.7324 118.367 33.5156 118.102 33.2383C117.84 32.9609 117.639 32.6348 117.498 32.2598C117.357 31.8848 117.287 31.4805 117.287 31.0469V30.8125C117.287 30.3164 117.359 29.8672 117.504 29.4648C117.648 29.0625 117.85 28.7188 118.107 28.4336C118.365 28.1445 118.67 27.9238 119.021 27.7715C119.373 27.6191 119.754 27.543 120.164 27.543C120.617 27.543 121.014 27.6191 121.354 27.7715C121.693 27.9238 121.975 28.1387 122.197 28.416C122.424 28.6895 122.592 29.0156 122.701 29.3945C122.814 29.7734 122.871 30.1914 122.871 30.6484V31.252H117.973V30.2383H121.477V30.127C121.469 29.873 121.418 29.6348 121.324 29.4121C121.234 29.1895 121.096 29.0098 120.908 28.873C120.721 28.7363 120.471 28.668 120.158 28.668C119.924 28.668 119.715 28.7188 119.531 28.8203C119.352 28.918 119.201 29.0605 119.08 29.248C118.959 29.4355 118.865 29.6621 118.799 29.9277C118.736 30.1895 118.705 30.4844 118.705 30.8125V31.0469C118.705 31.3242 118.742 31.582 118.816 31.8203C118.895 32.0547 119.008 32.2598 119.156 32.4355C119.305 32.6113 119.484 32.75 119.695 32.8516C119.906 32.9492 120.146 32.998 120.416 32.998C120.756 32.998 121.059 32.9297 121.324 32.793C121.59 32.6562 121.82 32.4629 122.016 32.2129L122.76 32.9336C122.623 33.1328 122.445 33.3242 122.227 33.5078C122.008 33.6875 121.74 33.834 121.424 33.9473C121.111 34.0605 120.748 34.1172 120.334 34.1172ZM123.99 33.2969C123.99 33.0781 124.064 32.8945 124.213 32.7461C124.361 32.5938 124.562 32.5176 124.816 32.5176C125.074 32.5176 125.275 32.5938 125.42 32.7461C125.568 32.8945 125.643 33.0781 125.643 33.2969C125.643 33.5156 125.568 33.6992 125.42 33.8477C125.275 33.9961 125.074 34.0703 124.816 34.0703C124.562 34.0703 124.361 33.9961 124.213 33.8477C124.064 33.6992 123.99 33.5156 123.99 33.2969ZM123.996 28.3047C123.996 28.0859 124.07 27.9023 124.219 27.7539C124.367 27.6016 124.568 27.5254 124.822 27.5254C125.08 27.5254 125.281 27.6016 125.426 27.7539C125.574 27.9023 125.648 28.0859 125.648 28.3047C125.648 28.5234 125.574 28.707 125.426 28.8555C125.281 29.0039 125.08 29.0781 124.822 29.0781C124.568 29.0781 124.367 29.0039 124.219 28.8555C124.07 28.707 123.996 28.5234 123.996 28.3047Z" fill="#333333"/>
<path d="M25.6953 118.852L27.1064 113.891H27.79L27.3945 115.819L25.876 121H25.1973L25.6953 118.852ZM24.2354 113.891L25.3584 118.754L25.6953 121H25.0215L23.2979 113.891H24.2354ZM29.6162 118.749L30.7148 113.891H31.6572L29.9385 121H29.2646L29.6162 118.749ZM27.8926 113.891L29.2646 118.852L29.7627 121H29.084L27.6191 115.819L27.2188 113.891H27.8926ZM34.6016 121.098C34.2337 121.098 33.9001 121.036 33.6006 120.912C33.3044 120.785 33.0488 120.608 32.834 120.38C32.6224 120.152 32.4596 119.882 32.3457 119.569C32.2318 119.257 32.1748 118.915 32.1748 118.544V118.339C32.1748 117.909 32.2383 117.527 32.3652 117.191C32.4922 116.853 32.6647 116.566 32.8828 116.332C33.1009 116.098 33.3483 115.92 33.625 115.8C33.9017 115.679 34.1882 115.619 34.4844 115.619C34.862 115.619 35.1875 115.684 35.4609 115.814C35.7376 115.945 35.9639 116.127 36.1396 116.361C36.3154 116.592 36.4456 116.866 36.5303 117.182C36.6149 117.494 36.6572 117.836 36.6572 118.207V118.612H32.7119V117.875H35.7539V117.807C35.7409 117.572 35.6921 117.344 35.6074 117.123C35.526 116.902 35.3958 116.719 35.2168 116.576C35.0378 116.433 34.7936 116.361 34.4844 116.361C34.2793 116.361 34.0905 116.405 33.918 116.493C33.7454 116.578 33.5973 116.705 33.4736 116.874C33.3499 117.043 33.2539 117.25 33.1855 117.494C33.1172 117.738 33.083 118.02 33.083 118.339V118.544C33.083 118.795 33.1172 119.031 33.1855 119.252C33.2572 119.47 33.3597 119.662 33.4932 119.828C33.6299 119.994 33.7943 120.124 33.9863 120.219C34.1816 120.313 34.403 120.36 34.6504 120.36C34.9694 120.36 35.2396 120.295 35.4609 120.165C35.6823 120.035 35.876 119.861 36.042 119.643L36.5889 120.077C36.4749 120.25 36.3301 120.414 36.1543 120.57C35.9785 120.727 35.762 120.854 35.5049 120.951C35.251 121.049 34.9499 121.098 34.6016 121.098ZM39.9043 121.098C39.5365 121.098 39.2028 121.036 38.9033 120.912C38.6071 120.785 38.3516 120.608 38.1367 120.38C37.9251 120.152 37.7624 119.882 37.6484 119.569C37.5345 119.257 37.4775 118.915 37.4775 118.544V118.339C37.4775 117.909 37.541 117.527 37.668 117.191C37.7949 116.853 37.9674 116.566 38.1855 116.332C38.4036 116.098 38.651 115.92 38.9277 115.8C39.2044 115.679 39.4909 115.619 39.7871 115.619C40.1647 115.619 40.4902 115.684 40.7637 115.814C41.0404 115.945 41.2666 116.127 41.4424 116.361C41.6182 116.592 41.7484 116.866 41.833 117.182C41.9176 117.494 41.96 117.836 41.96 118.207V118.612H38.0146V117.875H41.0566V117.807C41.0436 117.572 40.9948 117.344 40.9102 117.123C40.8288 116.902 40.6986 116.719 40.5195 116.576C40.3405 116.433 40.0964 116.361 39.7871 116.361C39.582 116.361 39.3932 116.405 39.2207 116.493C39.0482 116.578 38.9001 116.705 38.7764 116.874C38.6527 117.043 38.5566 117.25 38.4883 117.494C38.4199 117.738 38.3857 118.02 38.3857 118.339V118.544C38.3857 118.795 38.4199 119.031 38.4883 119.252C38.5599 119.47 38.6624 119.662 38.7959 119.828C38.9326 119.994 39.097 120.124 39.2891 120.219C39.4844 120.313 39.7057 120.36 39.9531 120.36C40.2721 120.36 40.5423 120.295 40.7637 120.165C40.985 120.035 41.1787 119.861 41.3447 119.643L41.8916 120.077C41.7777 120.25 41.6328 120.414 41.457 120.57C41.2812 120.727 41.0648 120.854 40.8076 120.951C40.5537 121.049 40.2526 121.098 39.9043 121.098ZM43.9229 113.5V121H43.0146V113.5H43.9229ZM47.1504 115.717L44.8457 118.183L43.5566 119.521L43.4834 118.559L44.4062 117.455L46.0469 115.717H47.1504ZM46.3252 121L44.4404 118.48L44.9092 117.675L47.3896 121H46.3252ZM48.0439 120.521C48.0439 120.368 48.0911 120.24 48.1855 120.136C48.2832 120.028 48.4232 119.975 48.6055 119.975C48.7878 119.975 48.9261 120.028 49.0205 120.136C49.1182 120.24 49.167 120.368 49.167 120.521C49.167 120.671 49.1182 120.798 49.0205 120.902C48.9261 121.007 48.7878 121.059 48.6055 121.059C48.4232 121.059 48.2832 121.007 48.1855 120.902C48.0911 120.798 48.0439 120.671 48.0439 120.521ZM48.0488 116.21C48.0488 116.057 48.096 115.928 48.1904 115.824C48.2881 115.717 48.4281 115.663 48.6104 115.663C48.7926 115.663 48.931 115.717 49.0254 115.824C49.123 115.928 49.1719 116.057 49.1719 116.21C49.1719 116.36 49.123 116.487 49.0254 116.591C48.931 116.695 48.7926 116.747 48.6104 116.747C48.4281 116.747 48.2881 116.695 48.1904 116.591C48.096 116.487 48.0488 116.36 48.0488 116.21Z" fill="#777777"/>
<path d="M58.4688 118.344V119.447H53.3467L53.2783 118.593L56.2422 113.891H57.3604L56.1494 115.917L54.6748 118.344H58.4688ZM57.6631 113.891V121H56.2568V113.891H57.6631ZM64.0156 116.82V118.051C64.0156 118.585 63.9587 119.045 63.8447 119.433C63.7308 119.817 63.5664 120.132 63.3516 120.38C63.14 120.624 62.8877 120.805 62.5947 120.922C62.3018 121.039 61.9762 121.098 61.6182 121.098C61.3317 121.098 61.0648 121.062 60.8174 120.99C60.57 120.915 60.347 120.8 60.1484 120.644C59.9531 120.487 59.7839 120.29 59.6406 120.053C59.5007 119.812 59.3932 119.525 59.3184 119.193C59.2435 118.861 59.2061 118.48 59.2061 118.051V116.82C59.2061 116.286 59.263 115.829 59.377 115.448C59.4941 115.064 59.6585 114.75 59.8701 114.506C60.085 114.262 60.3389 114.083 60.6318 113.969C60.9248 113.852 61.2503 113.793 61.6084 113.793C61.8949 113.793 62.1602 113.83 62.4043 113.905C62.6517 113.977 62.8747 114.089 63.0732 114.242C63.2718 114.395 63.4411 114.592 63.5811 114.833C63.721 115.071 63.8285 115.355 63.9033 115.688C63.9782 116.016 64.0156 116.394 64.0156 116.82ZM62.6045 118.236V116.63C62.6045 116.373 62.5898 116.148 62.5605 115.956C62.5345 115.764 62.4938 115.601 62.4385 115.468C62.3831 115.331 62.3148 115.22 62.2334 115.136C62.152 115.051 62.0592 114.989 61.9551 114.95C61.8509 114.911 61.7354 114.892 61.6084 114.892C61.4489 114.892 61.3073 114.923 61.1836 114.984C61.0632 115.046 60.9606 115.146 60.876 115.282C60.7913 115.416 60.7262 115.595 60.6807 115.819C60.6383 116.041 60.6172 116.311 60.6172 116.63V118.236C60.6172 118.493 60.6302 118.72 60.6562 118.915C60.6855 119.11 60.7279 119.278 60.7832 119.418C60.8418 119.555 60.9102 119.667 60.9883 119.755C61.0697 119.84 61.1624 119.901 61.2666 119.94C61.374 119.979 61.4912 119.999 61.6182 119.999C61.7744 119.999 61.9128 119.968 62.0332 119.906C62.1569 119.841 62.2611 119.74 62.3457 119.604C62.4336 119.464 62.4987 119.281 62.541 119.057C62.5833 118.832 62.6045 118.559 62.6045 118.236ZM68.0684 113.891L65.4609 121.61H64.416L67.0234 113.891H68.0684ZM70.0068 117.763L68.8838 117.494L69.2891 113.891H73.2832V115.028H70.4463L70.2705 116.605C70.3649 116.55 70.5081 116.492 70.7002 116.43C70.8923 116.365 71.1071 116.332 71.3447 116.332C71.6898 116.332 71.9958 116.386 72.2627 116.493C72.5296 116.601 72.7559 116.757 72.9414 116.962C73.1302 117.167 73.2734 117.418 73.3711 117.714C73.4688 118.01 73.5176 118.345 73.5176 118.72C73.5176 119.035 73.4688 119.337 73.3711 119.623C73.2734 119.906 73.1253 120.16 72.9268 120.385C72.7282 120.606 72.4792 120.78 72.1797 120.907C71.8802 121.034 71.5254 121.098 71.1152 121.098C70.8092 121.098 70.513 121.052 70.2266 120.961C69.9434 120.87 69.6878 120.735 69.46 120.556C69.2354 120.377 69.0547 120.16 68.918 119.906C68.7845 119.649 68.7145 119.356 68.708 119.027H70.1045C70.124 119.229 70.1761 119.403 70.2607 119.55C70.3486 119.693 70.4642 119.804 70.6074 119.882C70.7507 119.96 70.9183 119.999 71.1104 119.999C71.2894 119.999 71.4424 119.965 71.5693 119.896C71.6963 119.828 71.7988 119.734 71.877 119.613C71.9551 119.49 72.012 119.346 72.0479 119.184C72.0869 119.018 72.1064 118.839 72.1064 118.646C72.1064 118.454 72.0837 118.28 72.0381 118.124C71.9925 117.968 71.9225 117.833 71.8281 117.719C71.7337 117.605 71.6133 117.517 71.4668 117.455C71.3236 117.393 71.1559 117.362 70.9639 117.362C70.7035 117.362 70.5016 117.403 70.3584 117.484C70.2184 117.566 70.1012 117.659 70.0068 117.763ZM79.4062 118.344V119.447H74.2842L74.2158 118.593L77.1797 113.891H78.2979L77.0869 115.917L75.6123 118.344H79.4062ZM78.6006 113.891V121H77.1943V113.891H78.6006Z" fill="#777777"/>
<rect x="23" y="102" width="123" height="4" rx="2" fill="#FE8276" fill-opacity="0.29"/>
<rect x="23" y="102" width="67.9062" height="4" rx="2" fill="url(#paint0_linear_0_255)"/>
<defs>
<filter id="filter0_d_0_255" x="0" y="0" width="179" height="146" filterUnits="userSpaceOnUse" color-interpolation-filters="sRGB">
<feFlood flood-opacity="0" result="BackgroundImageFix"/>
<feColorMatrix in="SourceAlpha" type="matrix" values="0 0 0 0 0 0 0 0 0 0 0 0 0 0 0 0 0 0 127 0" result="hardAlpha"/>
<feOffset dy="2"/>
<feGaussianBlur stdDeviation="5"/>
<feComposite in2="hardAlpha" operator="out"/>
<feColorMatrix type="matrix" values="0 0 0 0 0 0 0 0 0 0 0 0 0 0 0 0 0 0 0.16 0"/>
<feBlend mode="normal" in2="BackgroundImageFix" result="effect1_dropShadow_0_255"/>
<feBlend mode="normal" in="SourceGraphic" in2="effect1_dropShadow_0_255" result="shape"/>
</filter>
<linearGradient id="paint0_linear_0_255" x1="23" y1="106" x2="56.9531" y2="106" gradientUnits="userSpaceOnUse">
<stop offset="0.1125" stop-color="#FE8276"/>
<stop offset="1" stop-color="#FF4747"/>
</linearGradient>
</defs>
</svg>
