<svg width="179" height="146" viewBox="0 0 179 146" fill="none" xmlns="http://www.w3.org/2000/svg">
<g filter="url(#filter0_d_0_282)">
<rect x="10" y="8" width="159" height="126" rx="10" fill="#FFECF3"/>
<rect x="10" y="8" width="159" height="126" rx="10" fill="white" fill-opacity="0.2"/>
<path d="M45.7334 55.6162L45.0107 55.4307L45.3672 51.8906H49.0146V52.7256H46.1338L45.9189 54.6592C46.0492 54.5843 46.2135 54.5143 46.4121 54.4492C46.6139 54.3841 46.8451 54.3516 47.1055 54.3516C47.4342 54.3516 47.7288 54.4085 47.9893 54.5225C48.2497 54.6331 48.471 54.7926 48.6533 55.001C48.8389 55.2093 48.9805 55.46 49.0781 55.7529C49.1758 56.0459 49.2246 56.373 49.2246 56.7344C49.2246 57.0762 49.1774 57.3903 49.083 57.6768C48.9919 57.9632 48.8535 58.2139 48.668 58.4287C48.4824 58.6403 48.248 58.8047 47.9648 58.9219C47.6849 59.0391 47.3545 59.0977 46.9736 59.0977C46.6872 59.0977 46.4154 59.0586 46.1582 58.9805C45.9043 58.8991 45.6764 58.777 45.4746 58.6143C45.276 58.4482 45.1133 58.2432 44.9863 57.999C44.8626 57.7516 44.7845 57.4619 44.752 57.1299H45.6113C45.6504 57.3968 45.7285 57.6214 45.8457 57.8037C45.9629 57.986 46.1159 58.1243 46.3047 58.2188C46.4967 58.3099 46.7197 58.3555 46.9736 58.3555C47.1885 58.3555 47.3789 58.318 47.5449 58.2432C47.7109 58.1683 47.8509 58.0609 47.9648 57.9209C48.0788 57.7809 48.165 57.6117 48.2236 57.4131C48.2855 57.2145 48.3164 56.9915 48.3164 56.7441C48.3164 56.5195 48.2855 56.3112 48.2236 56.1191C48.1618 55.9271 48.069 55.7594 47.9453 55.6162C47.8249 55.473 47.6768 55.3623 47.501 55.2842C47.3252 55.2028 47.1234 55.1621 46.8955 55.1621C46.5928 55.1621 46.3633 55.2028 46.207 55.2842C46.054 55.3656 45.8962 55.4762 45.7334 55.6162ZM54.1318 58.0625L55.4893 53.7168H56.085L55.9678 54.5811L54.5859 59H54.0049L54.1318 58.0625ZM53.2188 53.7168L54.376 58.1113L54.459 59H53.8486L52.3154 53.7168H53.2188ZM57.3838 58.0771L58.4873 53.7168H59.3857L57.8525 59H57.2471L57.3838 58.0771ZM56.2168 53.7168L57.5449 57.9893L57.6963 59H57.1201L55.6992 54.5713L55.582 53.7168H56.2168ZM62.5059 59.0977C62.138 59.0977 61.8044 59.0358 61.5049 58.9121C61.2087 58.7852 60.9531 58.6077 60.7383 58.3799C60.5267 58.152 60.3639 57.8818 60.25 57.5693C60.1361 57.2568 60.0791 56.915 60.0791 56.5439V56.3389C60.0791 55.9092 60.1426 55.5267 60.2695 55.1914C60.3965 54.8529 60.569 54.5664 60.7871 54.332C61.0052 54.0977 61.2526 53.9202 61.5293 53.7998C61.806 53.6794 62.0924 53.6191 62.3887 53.6191C62.7663 53.6191 63.0918 53.6842 63.3652 53.8145C63.6419 53.9447 63.8682 54.127 64.0439 54.3613C64.2197 54.5924 64.3499 54.8659 64.4346 55.1816C64.5192 55.4941 64.5615 55.8359 64.5615 56.207V56.6123H60.6162V55.875H63.6582V55.8066C63.6452 55.5723 63.5964 55.3444 63.5117 55.123C63.4303 54.9017 63.3001 54.7194 63.1211 54.5762C62.9421 54.4329 62.6979 54.3613 62.3887 54.3613C62.1836 54.3613 61.9948 54.4053 61.8223 54.4932C61.6497 54.5778 61.5016 54.7048 61.3779 54.874C61.2542 55.0433 61.1582 55.25 61.0898 55.4941C61.0215 55.7383 60.9873 56.0199 60.9873 56.3389V56.5439C60.9873 56.7946 61.0215 57.0306 61.0898 57.252C61.1615 57.4701 61.264 57.6621 61.3975 57.8281C61.5342 57.9941 61.6986 58.1243 61.8906 58.2188C62.0859 58.3132 62.3073 58.3604 62.5547 58.3604C62.8737 58.3604 63.1439 58.2952 63.3652 58.165C63.5866 58.0348 63.7803 57.8607 63.9463 57.6426L64.4932 58.0771C64.3792 58.2497 64.2344 58.4141 64.0586 58.5703C63.8828 58.7266 63.6663 58.8535 63.4092 58.9512C63.1553 59.0488 62.8542 59.0977 62.5059 59.0977ZM67.8086 59.0977C67.4408 59.0977 67.1071 59.0358 66.8076 58.9121C66.5114 58.7852 66.2559 58.6077 66.041 58.3799C65.8294 58.152 65.6667 57.8818 65.5527 57.5693C65.4388 57.2568 65.3818 56.915 65.3818 56.5439V56.3389C65.3818 55.9092 65.4453 55.5267 65.5723 55.1914C65.6992 54.8529 65.8717 54.5664 66.0898 54.332C66.3079 54.0977 66.5553 53.9202 66.832 53.7998C67.1087 53.6794 67.3952 53.6191 67.6914 53.6191C68.069 53.6191 68.3945 53.6842 68.668 53.8145C68.9447 53.9447 69.1709 54.127 69.3467 54.3613C69.5225 54.5924 69.6527 54.8659 69.7373 55.1816C69.8219 55.4941 69.8643 55.8359 69.8643 56.207V56.6123H65.9189V55.875H68.9609V55.8066C68.9479 55.5723 68.8991 55.3444 68.8145 55.123C68.7331 54.9017 68.6029 54.7194 68.4238 54.5762C68.2448 54.4329 68.0007 54.3613 67.6914 54.3613C67.4863 54.3613 67.2975 54.4053 67.125 54.4932C66.9525 54.5778 66.8044 54.7048 66.6807 54.874C66.557 55.0433 66.4609 55.25 66.3926 55.4941C66.3242 55.7383 66.29 56.0199 66.29 56.3389V56.5439C66.29 56.7946 66.3242 57.0306 66.3926 57.252C66.4642 57.4701 66.5667 57.6621 66.7002 57.8281C66.8369 57.9941 67.0013 58.1243 67.1934 58.2188C67.3887 58.3132 67.61 58.3604 67.8574 58.3604C68.1764 58.3604 68.4466 58.2952 68.668 58.165C68.8893 58.0348 69.083 57.8607 69.249 57.6426L69.7959 58.0771C69.682 58.2497 69.5371 58.4141 69.3613 58.5703C69.1855 58.7266 68.9691 58.8535 68.7119 58.9512C68.458 59.0488 68.1569 59.0977 67.8086 59.0977ZM71.8271 51.5V59H70.9189V51.5H71.8271ZM75.0547 53.7168L72.75 56.1826L71.4609 57.5205L71.3877 56.5586L72.3105 55.4551L73.9512 53.7168H75.0547ZM74.2295 59L72.3447 56.4805L72.8135 55.6748L75.2939 59H74.2295ZM79.0635 57.5986C79.0635 57.4684 79.0342 57.348 78.9756 57.2373C78.9202 57.1234 78.8047 57.0208 78.6289 56.9297C78.4564 56.8353 78.196 56.7539 77.8477 56.6855C77.5547 56.6237 77.2894 56.5505 77.0518 56.4658C76.8174 56.3812 76.6172 56.2786 76.4512 56.1582C76.2884 56.0378 76.1631 55.8962 76.0752 55.7334C75.9873 55.5706 75.9434 55.3802 75.9434 55.1621C75.9434 54.9538 75.9889 54.7568 76.0801 54.5713C76.1745 54.3857 76.3063 54.2214 76.4756 54.0781C76.6481 53.9349 76.8548 53.8226 77.0957 53.7412C77.3366 53.6598 77.6051 53.6191 77.9014 53.6191C78.3245 53.6191 78.6859 53.694 78.9854 53.8438C79.2848 53.9935 79.5143 54.1937 79.6738 54.4443C79.8333 54.6917 79.9131 54.9668 79.9131 55.2695H79.0098C79.0098 55.123 78.9658 54.9814 78.8779 54.8447C78.7933 54.7048 78.668 54.5892 78.502 54.498C78.3392 54.4069 78.139 54.3613 77.9014 54.3613C77.6507 54.3613 77.4473 54.4004 77.291 54.4785C77.138 54.5534 77.0257 54.6494 76.9541 54.7666C76.8857 54.8838 76.8516 55.0075 76.8516 55.1377C76.8516 55.2354 76.8678 55.3232 76.9004 55.4014C76.9362 55.4762 76.998 55.5462 77.0859 55.6113C77.1738 55.6732 77.2975 55.7318 77.457 55.7871C77.6165 55.8424 77.82 55.8978 78.0674 55.9531C78.5003 56.0508 78.8568 56.168 79.1367 56.3047C79.4167 56.4414 79.625 56.609 79.7617 56.8076C79.8984 57.0062 79.9668 57.2471 79.9668 57.5303C79.9668 57.7614 79.918 57.973 79.8203 58.165C79.7259 58.3571 79.5876 58.5231 79.4053 58.6631C79.2262 58.7998 79.0114 58.9072 78.7607 58.9854C78.5133 59.0602 78.235 59.0977 77.9258 59.0977C77.4603 59.0977 77.0664 59.0146 76.7441 58.8486C76.4219 58.6826 76.1777 58.4678 76.0117 58.2041C75.8457 57.9404 75.7627 57.6621 75.7627 57.3691H76.6709C76.6839 57.6165 76.7555 57.8135 76.8857 57.96C77.016 58.1032 77.1755 58.2057 77.3643 58.2676C77.5531 58.3262 77.7402 58.3555 77.9258 58.3555C78.1732 58.3555 78.3799 58.3229 78.5459 58.2578C78.7152 58.1927 78.8438 58.1032 78.9316 57.9893C79.0195 57.8753 79.0635 57.7451 79.0635 57.5986Z" fill="#777777"/>
<path d="M49.249 77.2578V78H44.5957V77.3506L46.9248 74.7578C47.2113 74.4388 47.4326 74.1686 47.5889 73.9473C47.7484 73.7227 47.859 73.5225 47.9209 73.3467C47.986 73.1676 48.0186 72.9854 48.0186 72.7998C48.0186 72.5654 47.9697 72.3538 47.8721 72.165C47.7777 71.973 47.6377 71.82 47.4521 71.7061C47.2666 71.5921 47.042 71.5352 46.7783 71.5352C46.4626 71.5352 46.1989 71.597 45.9873 71.7207C45.779 71.8411 45.6227 72.0104 45.5186 72.2285C45.4144 72.4466 45.3623 72.6973 45.3623 72.9805H44.459C44.459 72.5801 44.5469 72.2139 44.7227 71.8818C44.8984 71.5498 45.1589 71.2861 45.5039 71.0908C45.849 70.8923 46.2738 70.793 46.7783 70.793C47.2275 70.793 47.6117 70.8727 47.9307 71.0322C48.2497 71.1885 48.4938 71.4098 48.6631 71.6963C48.8356 71.9795 48.9219 72.3115 48.9219 72.6924C48.9219 72.9007 48.8861 73.1123 48.8145 73.3271C48.7461 73.5387 48.6501 73.7503 48.5264 73.9619C48.4059 74.1735 48.2643 74.3818 48.1016 74.5869C47.9421 74.792 47.7712 74.9938 47.5889 75.1924L45.6846 77.2578H49.249ZM54.6787 73.8789V74.9629C54.6787 75.5456 54.6266 76.0371 54.5225 76.4375C54.4183 76.8379 54.2686 77.1602 54.0732 77.4043C53.8779 77.6484 53.6419 77.8258 53.3652 77.9365C53.0918 78.0439 52.7826 78.0977 52.4375 78.0977C52.1641 78.0977 51.9118 78.0635 51.6807 77.9951C51.4495 77.9268 51.2412 77.8177 51.0557 77.668C50.8734 77.515 50.7171 77.3164 50.5869 77.0723C50.4567 76.8281 50.3574 76.5319 50.2891 76.1836C50.2207 75.8353 50.1865 75.4284 50.1865 74.9629V73.8789C50.1865 73.2962 50.2386 72.8079 50.3428 72.4141C50.4502 72.0202 50.6016 71.7044 50.7969 71.4668C50.9922 71.2259 51.2266 71.0534 51.5 70.9492C51.7767 70.8451 52.0859 70.793 52.4277 70.793C52.7044 70.793 52.9583 70.8271 53.1895 70.8955C53.4238 70.9606 53.6322 71.0664 53.8145 71.2129C53.9967 71.3561 54.1514 71.5482 54.2783 71.7891C54.4085 72.0267 54.5078 72.318 54.5762 72.6631C54.6445 73.0081 54.6787 73.4134 54.6787 73.8789ZM53.7705 75.1094V73.7275C53.7705 73.4085 53.751 73.1286 53.7119 72.8877C53.6761 72.6436 53.6224 72.4352 53.5508 72.2627C53.4792 72.0902 53.388 71.9502 53.2773 71.8428C53.1699 71.7354 53.0446 71.6572 52.9014 71.6084C52.7614 71.5563 52.6035 71.5303 52.4277 71.5303C52.2129 71.5303 52.0225 71.571 51.8564 71.6523C51.6904 71.7305 51.5505 71.8558 51.4365 72.0283C51.3258 72.2008 51.2412 72.4271 51.1826 72.707C51.124 72.987 51.0947 73.3271 51.0947 73.7275V75.1094C51.0947 75.4284 51.1126 75.71 51.1484 75.9541C51.1875 76.1982 51.2445 76.4098 51.3193 76.5889C51.3942 76.7646 51.4854 76.9095 51.5928 77.0234C51.7002 77.1374 51.8239 77.222 51.9639 77.2773C52.1071 77.3294 52.265 77.3555 52.4375 77.3555C52.6589 77.3555 52.8525 77.3132 53.0186 77.2285C53.1846 77.1439 53.3229 77.012 53.4336 76.833C53.5475 76.6507 53.6322 76.418 53.6875 76.1348C53.7428 75.8483 53.7705 75.5065 53.7705 75.1094ZM61.6514 76.7793V72.7168H62.5596V78H61.6953L61.6514 76.7793ZM61.8223 75.666L62.1982 75.6562C62.1982 76.0078 62.1608 76.3333 62.0859 76.6328C62.0143 76.929 61.8971 77.1862 61.7344 77.4043C61.5716 77.6224 61.3584 77.7933 61.0947 77.917C60.8311 78.0374 60.5104 78.0977 60.1328 78.0977C59.8757 78.0977 59.6396 78.0602 59.4248 77.9854C59.2132 77.9105 59.0309 77.7949 58.8779 77.6387C58.7249 77.4824 58.6061 77.279 58.5215 77.0283C58.4401 76.7777 58.3994 76.4766 58.3994 76.125V72.7168H59.3027V76.1348C59.3027 76.3724 59.3288 76.5693 59.3809 76.7256C59.4362 76.8786 59.5094 77.0007 59.6006 77.0918C59.695 77.1797 59.7992 77.2415 59.9131 77.2773C60.0303 77.3132 60.1507 77.3311 60.2744 77.3311C60.6585 77.3311 60.9629 77.2578 61.1875 77.1113C61.4121 76.9616 61.5732 76.7614 61.6709 76.5107C61.7718 76.2568 61.8223 75.9753 61.8223 75.666ZM64.8398 73.7324V80.0312H63.9316V72.7168H64.7617L64.8398 73.7324ZM68.3994 75.3145V75.417C68.3994 75.8011 68.3538 76.1576 68.2627 76.4863C68.1715 76.8118 68.0381 77.0951 67.8623 77.3359C67.6898 77.5768 67.4766 77.764 67.2227 77.8975C66.9688 78.0309 66.6774 78.0977 66.3486 78.0977C66.0133 78.0977 65.7171 78.0423 65.46 77.9316C65.2028 77.821 64.9847 77.6598 64.8057 77.4482C64.6266 77.2367 64.4834 76.9827 64.376 76.6865C64.2718 76.3903 64.2002 76.0566 64.1611 75.6855V75.1387C64.2002 74.748 64.2734 74.3981 64.3809 74.0889C64.4883 73.7796 64.6299 73.516 64.8057 73.2979C64.9847 73.0765 65.2012 72.9089 65.4551 72.7949C65.709 72.6777 66.002 72.6191 66.334 72.6191C66.666 72.6191 66.9606 72.6842 67.2178 72.8145C67.4749 72.9414 67.6914 73.1237 67.8672 73.3613C68.043 73.599 68.1748 73.8838 68.2627 74.2158C68.3538 74.5446 68.3994 74.9108 68.3994 75.3145ZM67.4912 75.417V75.3145C67.4912 75.0508 67.4635 74.8034 67.4082 74.5723C67.3529 74.3379 67.2666 74.1328 67.1494 73.957C67.0355 73.778 66.889 73.638 66.71 73.5371C66.5309 73.4329 66.3177 73.3809 66.0703 73.3809C65.8424 73.3809 65.6439 73.4199 65.4746 73.498C65.3086 73.5762 65.167 73.682 65.0498 73.8154C64.9326 73.9456 64.8366 74.0954 64.7617 74.2646C64.6901 74.4307 64.6364 74.6032 64.6006 74.7822V76.0469C64.6657 76.2747 64.7568 76.4896 64.874 76.6914C64.9912 76.89 65.1475 77.0511 65.3428 77.1748C65.5381 77.2952 65.7839 77.3555 66.0801 77.3555C66.3242 77.3555 66.5342 77.305 66.71 77.2041C66.889 77.0999 67.0355 76.9583 67.1494 76.7793C67.2666 76.6003 67.3529 76.3952 67.4082 76.1641C67.4635 75.9297 67.4912 75.6807 67.4912 75.417ZM70.5332 70.5V78H69.625V70.5H70.5332ZM71.7441 75.417V75.3047C71.7441 74.9238 71.7995 74.5706 71.9102 74.2451C72.0208 73.9163 72.1803 73.6315 72.3887 73.3906C72.597 73.1465 72.8493 72.9577 73.1455 72.8242C73.4417 72.6875 73.7738 72.6191 74.1416 72.6191C74.5127 72.6191 74.8464 72.6875 75.1426 72.8242C75.4421 72.9577 75.696 73.1465 75.9043 73.3906C76.1159 73.6315 76.277 73.9163 76.3877 74.2451C76.4984 74.5706 76.5537 74.9238 76.5537 75.3047V75.417C76.5537 75.7979 76.4984 76.151 76.3877 76.4766C76.277 76.8021 76.1159 77.0869 75.9043 77.3311C75.696 77.5719 75.4437 77.7607 75.1475 77.8975C74.8545 78.0309 74.5225 78.0977 74.1514 78.0977C73.7803 78.0977 73.4466 78.0309 73.1504 77.8975C72.8542 77.7607 72.6003 77.5719 72.3887 77.3311C72.1803 77.0869 72.0208 76.8021 71.9102 76.4766C71.7995 76.151 71.7441 75.7979 71.7441 75.417ZM72.6475 75.3047V75.417C72.6475 75.6807 72.6784 75.9297 72.7402 76.1641C72.8021 76.3952 72.8949 76.6003 73.0186 76.7793C73.1455 76.9583 73.3034 77.0999 73.4922 77.2041C73.681 77.305 73.9007 77.3555 74.1514 77.3555C74.3988 77.3555 74.6152 77.305 74.8008 77.2041C74.9896 77.0999 75.1458 76.9583 75.2695 76.7793C75.3932 76.6003 75.486 76.3952 75.5479 76.1641C75.613 75.9297 75.6455 75.6807 75.6455 75.417V75.3047C75.6455 75.0443 75.613 74.7985 75.5479 74.5674C75.486 74.333 75.3916 74.1263 75.2646 73.9473C75.141 73.765 74.9847 73.6217 74.7959 73.5176C74.6104 73.4134 74.3923 73.3613 74.1416 73.3613C73.8942 73.3613 73.6761 73.4134 73.4873 73.5176C73.3018 73.6217 73.1455 73.765 73.0186 73.9473C72.8949 74.1263 72.8021 74.333 72.7402 74.5674C72.6784 74.7985 72.6475 75.0443 72.6475 75.3047ZM80.8018 77.0967V74.377C80.8018 74.1686 80.7594 73.988 80.6748 73.835C80.5934 73.6787 80.4697 73.5583 80.3037 73.4736C80.1377 73.389 79.9326 73.3467 79.6885 73.3467C79.4606 73.3467 79.2604 73.3857 79.0879 73.4639C78.9186 73.542 78.7852 73.6445 78.6875 73.7715C78.5931 73.8984 78.5459 74.0352 78.5459 74.1816H77.6426C77.6426 73.9928 77.6914 73.8057 77.7891 73.6201C77.8867 73.4346 78.0267 73.2669 78.209 73.1172C78.3945 72.9642 78.6159 72.8438 78.873 72.7559C79.1335 72.6647 79.4232 72.6191 79.7422 72.6191C80.1263 72.6191 80.4648 72.6842 80.7578 72.8145C81.054 72.9447 81.2852 73.1416 81.4512 73.4053C81.6204 73.6657 81.7051 73.9928 81.7051 74.3867V76.8477C81.7051 77.0234 81.7197 77.2106 81.749 77.4092C81.7816 77.6077 81.8288 77.7786 81.8906 77.9219V78H80.9482C80.9027 77.8958 80.8669 77.7575 80.8408 77.585C80.8148 77.4092 80.8018 77.2464 80.8018 77.0967ZM80.958 74.7969L80.9678 75.4316H80.0547C79.7975 75.4316 79.568 75.4528 79.3662 75.4951C79.1644 75.5342 78.9951 75.5944 78.8584 75.6758C78.7217 75.7572 78.6175 75.8597 78.5459 75.9834C78.4743 76.1038 78.4385 76.2454 78.4385 76.4082C78.4385 76.5742 78.4759 76.7256 78.5508 76.8623C78.6257 76.999 78.738 77.1081 78.8877 77.1895C79.0407 77.2676 79.2279 77.3066 79.4492 77.3066C79.7259 77.3066 79.9701 77.248 80.1816 77.1309C80.3932 77.0137 80.5609 76.8704 80.6846 76.7012C80.8115 76.5319 80.8799 76.3675 80.8896 76.208L81.2754 76.6426C81.2526 76.7793 81.1908 76.9307 81.0898 77.0967C80.9889 77.2627 80.8538 77.4222 80.6846 77.5752C80.5186 77.7249 80.32 77.8503 80.0889 77.9512C79.861 78.0488 79.6038 78.0977 79.3174 78.0977C78.9593 78.0977 78.6452 78.0277 78.375 77.8877C78.1081 77.7477 77.8997 77.5605 77.75 77.3262C77.6035 77.0885 77.5303 76.8232 77.5303 76.5303C77.5303 76.2471 77.5856 75.998 77.6963 75.7832C77.807 75.5651 77.9665 75.3844 78.1748 75.2412C78.3831 75.0947 78.6338 74.984 78.9268 74.9092C79.2197 74.8343 79.5469 74.7969 79.9082 74.7969H80.958ZM86.4561 76.9746V70.5H87.3643V78H86.5342L86.4561 76.9746ZM82.9014 75.417V75.3145C82.9014 74.9108 82.9502 74.5446 83.0479 74.2158C83.1488 73.8838 83.2904 73.599 83.4727 73.3613C83.6582 73.1237 83.8779 72.9414 84.1318 72.8145C84.389 72.6842 84.6755 72.6191 84.9912 72.6191C85.3232 72.6191 85.613 72.6777 85.8604 72.7949C86.111 72.9089 86.3226 73.0765 86.4951 73.2979C86.6709 73.516 86.8092 73.7796 86.9102 74.0889C87.0111 74.3981 87.0811 74.748 87.1201 75.1387V75.5879C87.0843 75.9753 87.0143 76.3236 86.9102 76.6328C86.8092 76.9421 86.6709 77.2057 86.4951 77.4238C86.3226 77.6419 86.111 77.8096 85.8604 77.9268C85.6097 78.0407 85.3167 78.0977 84.9814 78.0977C84.6722 78.0977 84.389 78.0309 84.1318 77.8975C83.8779 77.764 83.6582 77.5768 83.4727 77.3359C83.2904 77.0951 83.1488 76.8118 83.0479 76.4863C82.9502 76.1576 82.9014 75.8011 82.9014 75.417ZM83.8096 75.3145V75.417C83.8096 75.6807 83.8356 75.9281 83.8877 76.1592C83.943 76.3903 84.0277 76.5938 84.1416 76.7695C84.2555 76.9453 84.4004 77.0837 84.5762 77.1846C84.752 77.2822 84.9619 77.3311 85.2061 77.3311C85.5055 77.3311 85.7513 77.2676 85.9434 77.1406C86.1387 77.0137 86.2949 76.846 86.4121 76.6377C86.5293 76.4294 86.6204 76.2031 86.6855 75.959V74.7822C86.6465 74.6032 86.5895 74.4307 86.5146 74.2646C86.443 74.0954 86.3486 73.9456 86.2314 73.8154C86.1175 73.682 85.9759 73.5762 85.8066 73.498C85.6406 73.4199 85.4437 73.3809 85.2158 73.3809C84.9684 73.3809 84.7552 73.4329 84.5762 73.5371C84.4004 73.638 84.2555 73.778 84.1416 73.957C84.0277 74.1328 83.943 74.3379 83.8877 74.5723C83.8356 74.8034 83.8096 75.0508 83.8096 75.3145ZM91.8467 76.5986C91.8467 76.4684 91.8174 76.348 91.7588 76.2373C91.7035 76.1234 91.5879 76.0208 91.4121 75.9297C91.2396 75.8353 90.9792 75.7539 90.6309 75.6855C90.3379 75.6237 90.0726 75.5505 89.835 75.4658C89.6006 75.3812 89.4004 75.2786 89.2344 75.1582C89.0716 75.0378 88.9463 74.8962 88.8584 74.7334C88.7705 74.5706 88.7266 74.3802 88.7266 74.1621C88.7266 73.9538 88.7721 73.7568 88.8633 73.5713C88.9577 73.3857 89.0895 73.2214 89.2588 73.0781C89.4313 72.9349 89.638 72.8226 89.8789 72.7412C90.1198 72.6598 90.3883 72.6191 90.6846 72.6191C91.1077 72.6191 91.4691 72.694 91.7686 72.8438C92.068 72.9935 92.2975 73.1937 92.457 73.4443C92.6165 73.6917 92.6963 73.9668 92.6963 74.2695H91.793C91.793 74.123 91.749 73.9814 91.6611 73.8447C91.5765 73.7048 91.4512 73.5892 91.2852 73.498C91.1224 73.4069 90.9222 73.3613 90.6846 73.3613C90.4339 73.3613 90.2305 73.4004 90.0742 73.4785C89.9212 73.5534 89.8089 73.6494 89.7373 73.7666C89.6689 73.8838 89.6348 74.0075 89.6348 74.1377C89.6348 74.2354 89.651 74.3232 89.6836 74.4014C89.7194 74.4762 89.7812 74.5462 89.8691 74.6113C89.957 74.6732 90.0807 74.7318 90.2402 74.7871C90.3997 74.8424 90.6032 74.8978 90.8506 74.9531C91.2835 75.0508 91.64 75.168 91.9199 75.3047C92.1999 75.4414 92.4082 75.609 92.5449 75.8076C92.6816 76.0062 92.75 76.2471 92.75 76.5303C92.75 76.7614 92.7012 76.973 92.6035 77.165C92.5091 77.3571 92.3708 77.5231 92.1885 77.6631C92.0094 77.7998 91.7946 77.9072 91.5439 77.9854C91.2965 78.0602 91.0182 78.0977 90.709 78.0977C90.2435 78.0977 89.8496 78.0146 89.5273 77.8486C89.2051 77.6826 88.9609 77.4678 88.7949 77.2041C88.6289 76.9404 88.5459 76.6621 88.5459 76.3691H89.4541C89.4671 76.6165 89.5387 76.8135 89.6689 76.96C89.7992 77.1032 89.9587 77.2057 90.1475 77.2676C90.3363 77.3262 90.5234 77.3555 90.709 77.3555C90.9564 77.3555 91.1631 77.3229 91.3291 77.2578C91.4984 77.1927 91.627 77.1032 91.7148 76.9893C91.8027 76.8753 91.8467 76.7451 91.8467 76.5986Z" fill="#777777"/>
<path d="M35.1 70C35.3387 70 35.5676 70.1054 35.7364 70.2929C35.9052 70.4804 36 70.7348 36 71V78C36 78.2652 35.9052 78.5196 35.7364 78.7071C35.5676 78.8946 35.3387 79 35.1 79H27.9C27.6613 79 27.4324 78.8946 27.2636 78.7071C27.0948 78.5196 27 78.2652 27 78V71C27 70.7348 27.0948 70.4804 27.2636 70.2929C27.4324 70.1054 27.6613 70 27.9 70H35.1ZM35.1 71H27.9V76.05L30.1477 73.553C30.2 73.4949 30.262 73.4489 30.3303 73.4175C30.3985 73.3861 30.4717 73.3699 30.5455 73.3699C30.6194 73.3699 30.6926 73.3861 30.7608 73.4175C30.8291 73.4489 30.8911 73.4949 30.9433 73.553L32.7726 75.586L33.3297 74.967C33.3819 74.9089 33.444 74.8629 33.5122 74.8315C33.5805 74.8001 33.6536 74.7839 33.7275 74.7839C33.8014 74.7839 33.8745 74.8001 33.9428 74.8315C34.011 74.8629 34.0731 74.9089 34.1253 74.967L35.1 76.0505V71ZM33.075 72C33.254 72 33.4257 72.079 33.5523 72.2197C33.6789 72.3603 33.75 72.5511 33.75 72.75C33.75 72.9489 33.6789 73.1397 33.5523 73.2803C33.4257 73.421 33.254 73.5 33.075 73.5C32.896 73.5 32.7243 73.421 32.5977 73.2803C32.4711 73.1397 32.4 72.9489 32.4 72.75C32.4 72.5511 32.4711 72.3603 32.5977 72.2197C32.7243 72.079 32.896 72 33.075 72Z" fill="#DD7700"/>
<path d="M32 61C34.2093 61 36 59.625 36 57.2188C36 56.1875 35.6667 54.4688 34.3333 53.0938C34.5 54.125 33.5 54.4688 33.5 54.4688C34 52.75 32.6667 50.3438 30.6667 50C30.9047 51.375 31 52.75 29.3333 54.125C28.5 54.8125 28 56.0012 28 57.2188C28 59.625 29.7907 61 32 61ZM32 60.3125C30.8953 60.3125 30 59.625 30 58.4219C30 57.9062 30.1667 57.0469 30.8333 56.3594C30.75 56.875 31.3333 57.2188 31.3333 57.2188C31.0833 56.3594 31.6667 54.9844 32.6667 54.8125C32.5473 55.5 32.5 56.1875 33.3333 56.875C33.75 57.2188 34 57.8127 34 58.4219C34 59.625 33.1047 60.3125 32 60.3125Z" fill="#E75151"/>
<path d="M28.6953 118.852L30.1064 113.891H30.79L30.3945 115.819L28.876 121H28.1973L28.6953 118.852ZM27.2354 113.891L28.3584 118.754L28.6953 121H28.0215L26.2979 113.891H27.2354ZM32.6162 118.749L33.7148 113.891H34.6572L32.9385 121H32.2646L32.6162 118.749ZM30.8926 113.891L32.2646 118.852L32.7627 121H32.084L30.6191 115.819L30.2188 113.891H30.8926ZM37.6016 121.098C37.2337 121.098 36.9001 121.036 36.6006 120.912C36.3044 120.785 36.0488 120.608 35.834 120.38C35.6224 120.152 35.4596 119.882 35.3457 119.569C35.2318 119.257 35.1748 118.915 35.1748 118.544V118.339C35.1748 117.909 35.2383 117.527 35.3652 117.191C35.4922 116.853 35.6647 116.566 35.8828 116.332C36.1009 116.098 36.3483 115.92 36.625 115.8C36.9017 115.679 37.1882 115.619 37.4844 115.619C37.862 115.619 38.1875 115.684 38.4609 115.814C38.7376 115.945 38.9639 116.127 39.1396 116.361C39.3154 116.592 39.4456 116.866 39.5303 117.182C39.6149 117.494 39.6572 117.836 39.6572 118.207V118.612H35.7119V117.875H38.7539V117.807C38.7409 117.572 38.6921 117.344 38.6074 117.123C38.526 116.902 38.3958 116.719 38.2168 116.576C38.0378 116.433 37.7936 116.361 37.4844 116.361C37.2793 116.361 37.0905 116.405 36.918 116.493C36.7454 116.578 36.5973 116.705 36.4736 116.874C36.3499 117.043 36.2539 117.25 36.1855 117.494C36.1172 117.738 36.083 118.02 36.083 118.339V118.544C36.083 118.795 36.1172 119.031 36.1855 119.252C36.2572 119.47 36.3597 119.662 36.4932 119.828C36.6299 119.994 36.7943 120.124 36.9863 120.219C37.1816 120.313 37.403 120.36 37.6504 120.36C37.9694 120.36 38.2396 120.295 38.4609 120.165C38.6823 120.035 38.876 119.861 39.042 119.643L39.5889 120.077C39.4749 120.25 39.3301 120.414 39.1543 120.57C38.9785 120.727 38.762 120.854 38.5049 120.951C38.251 121.049 37.9499 121.098 37.6016 121.098ZM42.9043 121.098C42.5365 121.098 42.2028 121.036 41.9033 120.912C41.6071 120.785 41.3516 120.608 41.1367 120.38C40.9251 120.152 40.7624 119.882 40.6484 119.569C40.5345 119.257 40.4775 118.915 40.4775 118.544V118.339C40.4775 117.909 40.541 117.527 40.668 117.191C40.7949 116.853 40.9674 116.566 41.1855 116.332C41.4036 116.098 41.651 115.92 41.9277 115.8C42.2044 115.679 42.4909 115.619 42.7871 115.619C43.1647 115.619 43.4902 115.684 43.7637 115.814C44.0404 115.945 44.2666 116.127 44.4424 116.361C44.6182 116.592 44.7484 116.866 44.833 117.182C44.9176 117.494 44.96 117.836 44.96 118.207V118.612H41.0146V117.875H44.0566V117.807C44.0436 117.572 43.9948 117.344 43.9102 117.123C43.8288 116.902 43.6986 116.719 43.5195 116.576C43.3405 116.433 43.0964 116.361 42.7871 116.361C42.582 116.361 42.3932 116.405 42.2207 116.493C42.0482 116.578 41.9001 116.705 41.7764 116.874C41.6527 117.043 41.5566 117.25 41.4883 117.494C41.4199 117.738 41.3857 118.02 41.3857 118.339V118.544C41.3857 118.795 41.4199 119.031 41.4883 119.252C41.5599 119.47 41.6624 119.662 41.7959 119.828C41.9326 119.994 42.097 120.124 42.2891 120.219C42.4844 120.313 42.7057 120.36 42.9531 120.36C43.2721 120.36 43.5423 120.295 43.7637 120.165C43.985 120.035 44.1787 119.861 44.3447 119.643L44.8916 120.077C44.7777 120.25 44.6328 120.414 44.457 120.57C44.2812 120.727 44.0648 120.854 43.8076 120.951C43.5537 121.049 43.2526 121.098 42.9043 121.098ZM46.9229 113.5V121H46.0146V113.5H46.9229ZM50.1504 115.717L47.8457 118.183L46.5566 119.521L46.4834 118.559L47.4062 117.455L49.0469 115.717H50.1504ZM49.3252 121L47.4404 118.48L47.9092 117.675L50.3896 121H49.3252ZM51.0439 120.521C51.0439 120.368 51.0911 120.24 51.1855 120.136C51.2832 120.028 51.4232 119.975 51.6055 119.975C51.7878 119.975 51.9261 120.028 52.0205 120.136C52.1182 120.24 52.167 120.368 52.167 120.521C52.167 120.671 52.1182 120.798 52.0205 120.902C51.9261 121.007 51.7878 121.059 51.6055 121.059C51.4232 121.059 51.2832 121.007 51.1855 120.902C51.0911 120.798 51.0439 120.671 51.0439 120.521ZM51.0488 116.21C51.0488 116.057 51.096 115.928 51.1904 115.824C51.2881 115.717 51.4281 115.663 51.6104 115.663C51.7926 115.663 51.931 115.717 52.0254 115.824C52.123 115.928 52.1719 116.057 52.1719 116.21C52.1719 116.36 52.123 116.487 52.0254 116.591C51.931 116.695 51.7926 116.747 51.6104 116.747C51.4281 116.747 51.2881 116.695 51.1904 116.591C51.096 116.487 51.0488 116.36 51.0488 116.21Z" fill="#777777"/>
<path d="M61.4688 118.344V119.447H56.3467L56.2783 118.593L59.2422 113.891H60.3604L59.1494 115.917L57.6748 118.344H61.4688ZM60.6631 113.891V121H59.2568V113.891H60.6631ZM67.0156 116.82V118.051C67.0156 118.585 66.9587 119.045 66.8447 119.433C66.7308 119.817 66.5664 120.132 66.3516 120.38C66.14 120.624 65.8877 120.805 65.5947 120.922C65.3018 121.039 64.9762 121.098 64.6182 121.098C64.3317 121.098 64.0648 121.062 63.8174 120.99C63.57 120.915 63.347 120.8 63.1484 120.644C62.9531 120.487 62.7839 120.29 62.6406 120.053C62.5007 119.812 62.3932 119.525 62.3184 119.193C62.2435 118.861 62.2061 118.48 62.2061 118.051V116.82C62.2061 116.286 62.263 115.829 62.377 115.448C62.4941 115.064 62.6585 114.75 62.8701 114.506C63.085 114.262 63.3389 114.083 63.6318 113.969C63.9248 113.852 64.2503 113.793 64.6084 113.793C64.8949 113.793 65.1602 113.83 65.4043 113.905C65.6517 113.977 65.8747 114.089 66.0732 114.242C66.2718 114.395 66.4411 114.592 66.5811 114.833C66.721 115.071 66.8285 115.355 66.9033 115.688C66.9782 116.016 67.0156 116.394 67.0156 116.82ZM65.6045 118.236V116.63C65.6045 116.373 65.5898 116.148 65.5605 115.956C65.5345 115.764 65.4938 115.601 65.4385 115.468C65.3831 115.331 65.3148 115.22 65.2334 115.136C65.152 115.051 65.0592 114.989 64.9551 114.95C64.8509 114.911 64.7354 114.892 64.6084 114.892C64.4489 114.892 64.3073 114.923 64.1836 114.984C64.0632 115.046 63.9606 115.146 63.876 115.282C63.7913 115.416 63.7262 115.595 63.6807 115.819C63.6383 116.041 63.6172 116.311 63.6172 116.63V118.236C63.6172 118.493 63.6302 118.72 63.6562 118.915C63.6855 119.11 63.7279 119.278 63.7832 119.418C63.8418 119.555 63.9102 119.667 63.9883 119.755C64.0697 119.84 64.1624 119.901 64.2666 119.94C64.374 119.979 64.4912 119.999 64.6182 119.999C64.7744 119.999 64.9128 119.968 65.0332 119.906C65.1569 119.841 65.2611 119.74 65.3457 119.604C65.4336 119.464 65.4987 119.281 65.541 119.057C65.5833 118.832 65.6045 118.559 65.6045 118.236ZM71.0684 113.891L68.4609 121.61H67.416L70.0234 113.891H71.0684ZM73.0068 117.763L71.8838 117.494L72.2891 113.891H76.2832V115.028H73.4463L73.2705 116.605C73.3649 116.55 73.5081 116.492 73.7002 116.43C73.8923 116.365 74.1071 116.332 74.3447 116.332C74.6898 116.332 74.9958 116.386 75.2627 116.493C75.5296 116.601 75.7559 116.757 75.9414 116.962C76.1302 117.167 76.2734 117.418 76.3711 117.714C76.4688 118.01 76.5176 118.345 76.5176 118.72C76.5176 119.035 76.4688 119.337 76.3711 119.623C76.2734 119.906 76.1253 120.16 75.9268 120.385C75.7282 120.606 75.4792 120.78 75.1797 120.907C74.8802 121.034 74.5254 121.098 74.1152 121.098C73.8092 121.098 73.513 121.052 73.2266 120.961C72.9434 120.87 72.6878 120.735 72.46 120.556C72.2354 120.377 72.0547 120.16 71.918 119.906C71.7845 119.649 71.7145 119.356 71.708 119.027H73.1045C73.124 119.229 73.1761 119.403 73.2607 119.55C73.3486 119.693 73.4642 119.804 73.6074 119.882C73.7507 119.96 73.9183 119.999 74.1104 119.999C74.2894 119.999 74.4424 119.965 74.5693 119.896C74.6963 119.828 74.7988 119.734 74.877 119.613C74.9551 119.49 75.012 119.346 75.0479 119.184C75.0869 119.018 75.1064 118.839 75.1064 118.646C75.1064 118.454 75.0837 118.28 75.0381 118.124C74.9925 117.968 74.9225 117.833 74.8281 117.719C74.7337 117.605 74.6133 117.517 74.4668 117.455C74.3236 117.393 74.1559 117.362 73.9639 117.362C73.7035 117.362 73.5016 117.403 73.3584 117.484C73.2184 117.566 73.1012 117.659 73.0068 117.763ZM82.4062 118.344V119.447H77.2842L77.2158 118.593L80.1797 113.891H81.2979L80.0869 115.917L78.6123 118.344H82.4062ZM81.6006 113.891V121H80.1943V113.891H81.6006Z" fill="#777777"/>
<rect x="26" y="102" width="123" height="4" rx="2" fill="#FE8276" fill-opacity="0.29"/>
<rect x="26" y="102" width="67.9062" height="4" rx="2" fill="url(#paint0_linear_0_282)"/>
</g>
<path d="M33.5039 29.0312V30.1973H28.9746V29.0312H33.5039ZM29.3379 25.4688V34H27.8672V25.4688H29.3379ZM34.6348 25.4688V34H33.1699V25.4688H34.6348ZM39.8203 32.7285V29.7051C39.8203 29.4785 39.7793 29.2832 39.6973 29.1191C39.6152 28.9551 39.4902 28.8281 39.3223 28.7383C39.1582 28.6484 38.9512 28.6035 38.7012 28.6035C38.4707 28.6035 38.2715 28.6426 38.1035 28.7207C37.9355 28.7988 37.8047 28.9043 37.7109 29.0371C37.6172 29.1699 37.5703 29.3203 37.5703 29.4883H36.1641C36.1641 29.2383 36.2246 28.9961 36.3457 28.7617C36.4668 28.5273 36.6426 28.3184 36.873 28.1348C37.1035 27.9512 37.3789 27.8066 37.6992 27.7012C38.0195 27.5957 38.3789 27.543 38.7773 27.543C39.2539 27.543 39.6758 27.623 40.043 27.7832C40.4141 27.9434 40.7051 28.1855 40.916 28.5098C41.1309 28.8301 41.2383 29.2324 41.2383 29.7168V32.5352C41.2383 32.8242 41.2578 33.084 41.2969 33.3145C41.3398 33.541 41.4004 33.7383 41.4785 33.9062V34H40.0312C39.9648 33.8477 39.9121 33.6543 39.873 33.4199C39.8379 33.1816 39.8203 32.9512 39.8203 32.7285ZM40.0254 30.1445L40.0371 31.0176H39.0234C38.7617 31.0176 38.5312 31.043 38.332 31.0938C38.1328 31.1406 37.9668 31.2109 37.834 31.3047C37.7012 31.3984 37.6016 31.5117 37.5352 31.6445C37.4688 31.7773 37.4355 31.9277 37.4355 32.0957C37.4355 32.2637 37.4746 32.418 37.5527 32.5586C37.6309 32.6953 37.7441 32.8027 37.8926 32.8809C38.0449 32.959 38.2285 32.998 38.4434 32.998C38.7324 32.998 38.9844 32.9395 39.1992 32.8223C39.418 32.7012 39.5898 32.5547 39.7148 32.3828C39.8398 32.207 39.9062 32.041 39.9141 31.8848L40.3711 32.5117C40.3242 32.6719 40.2441 32.8438 40.1309 33.0273C40.0176 33.2109 39.8691 33.3867 39.6855 33.5547C39.5059 33.7188 39.2891 33.8535 39.0352 33.959C38.7852 34.0645 38.4961 34.1172 38.168 34.1172C37.7539 34.1172 37.3848 34.0352 37.0605 33.8711C36.7363 33.7031 36.4824 33.4785 36.2988 33.1973C36.1152 32.9121 36.0234 32.5898 36.0234 32.2305C36.0234 31.8945 36.0859 31.5977 36.2109 31.3398C36.3398 31.0781 36.5273 30.8594 36.7734 30.6836C37.0234 30.5078 37.3281 30.375 37.6875 30.2852C38.0469 30.1914 38.457 30.1445 38.918 30.1445H40.0254ZM44.2266 27.6602V34H42.8086V27.6602H44.2266ZM42.7148 25.9961C42.7148 25.7812 42.7852 25.6035 42.9258 25.4629C43.0703 25.3184 43.2695 25.2461 43.5234 25.2461C43.7734 25.2461 43.9707 25.3184 44.1152 25.4629C44.2598 25.6035 44.332 25.7812 44.332 25.9961C44.332 26.207 44.2598 26.3828 44.1152 26.5234C43.9707 26.6641 43.7734 26.7344 43.5234 26.7344C43.2695 26.7344 43.0703 26.6641 42.9258 26.5234C42.7852 26.3828 42.7148 26.207 42.7148 25.9961ZM47.1914 28.8672V34H45.7793V27.6602H47.127L47.1914 28.8672ZM49.1309 27.6191L49.1191 28.9316C49.0332 28.916 48.9395 28.9043 48.8379 28.8965C48.7402 28.8887 48.6426 28.8848 48.5449 28.8848C48.3027 28.8848 48.0898 28.9199 47.9062 28.9902C47.7227 29.0566 47.5684 29.1543 47.4434 29.2832C47.3223 29.4082 47.2285 29.5605 47.1621 29.7402C47.0957 29.9199 47.0566 30.1211 47.0449 30.3438L46.7227 30.3672C46.7227 29.9688 46.7617 29.5996 46.8398 29.2598C46.918 28.9199 47.0352 28.6211 47.1914 28.3633C47.3516 28.1055 47.5508 27.9043 47.7891 27.7598C48.0312 27.6152 48.3105 27.543 48.627 27.543C48.7129 27.543 48.8047 27.5508 48.9023 27.5664C49.0039 27.582 49.0801 27.5996 49.1309 27.6191ZM56.373 25.4688V34H54.9141V25.4688H56.373ZM59.0508 25.4688V26.6406H52.2598V25.4688H59.0508ZM61.0312 28.8672V34H59.6191V27.6602H60.9668L61.0312 28.8672ZM62.9707 27.6191L62.959 28.9316C62.873 28.916 62.7793 28.9043 62.6777 28.8965C62.5801 28.8887 62.4824 28.8848 62.3848 28.8848C62.1426 28.8848 61.9297 28.9199 61.7461 28.9902C61.5625 29.0566 61.4082 29.1543 61.2832 29.2832C61.1621 29.4082 61.0684 29.5605 61.002 29.7402C60.9355 29.9199 60.8965 30.1211 60.8848 30.3438L60.5625 30.3672C60.5625 29.9688 60.6016 29.5996 60.6797 29.2598C60.7578 28.9199 60.875 28.6211 61.0312 28.3633C61.1914 28.1055 61.3906 27.9043 61.6289 27.7598C61.8711 27.6152 62.1504 27.543 62.4668 27.543C62.5527 27.543 62.6445 27.5508 62.7422 27.5664C62.8438 27.582 62.9199 27.5996 62.9707 27.6191ZM67.2188 32.7285V29.7051C67.2188 29.4785 67.1777 29.2832 67.0957 29.1191C67.0137 28.9551 66.8887 28.8281 66.7207 28.7383C66.5566 28.6484 66.3496 28.6035 66.0996 28.6035C65.8691 28.6035 65.6699 28.6426 65.502 28.7207C65.334 28.7988 65.2031 28.9043 65.1094 29.0371C65.0156 29.1699 64.9688 29.3203 64.9688 29.4883H63.5625C63.5625 29.2383 63.623 28.9961 63.7441 28.7617C63.8652 28.5273 64.041 28.3184 64.2715 28.1348C64.502 27.9512 64.7773 27.8066 65.0977 27.7012C65.418 27.5957 65.7773 27.543 66.1758 27.543C66.6523 27.543 67.0742 27.623 67.4414 27.7832C67.8125 27.9434 68.1035 28.1855 68.3145 28.5098C68.5293 28.8301 68.6367 29.2324 68.6367 29.7168V32.5352C68.6367 32.8242 68.6562 33.084 68.6953 33.3145C68.7383 33.541 68.7988 33.7383 68.877 33.9062V34H67.4297C67.3633 33.8477 67.3105 33.6543 67.2715 33.4199C67.2363 33.1816 67.2188 32.9512 67.2188 32.7285ZM67.4238 30.1445L67.4355 31.0176H66.4219C66.1602 31.0176 65.9297 31.043 65.7305 31.0938C65.5312 31.1406 65.3652 31.2109 65.2324 31.3047C65.0996 31.3984 65 31.5117 64.9336 31.6445C64.8672 31.7773 64.834 31.9277 64.834 32.0957C64.834 32.2637 64.873 32.418 64.9512 32.5586C65.0293 32.6953 65.1426 32.8027 65.291 32.8809C65.4434 32.959 65.627 32.998 65.8418 32.998C66.1309 32.998 66.3828 32.9395 66.5977 32.8223C66.8164 32.7012 66.9883 32.5547 67.1133 32.3828C67.2383 32.207 67.3047 32.041 67.3125 31.8848L67.7695 32.5117C67.7227 32.6719 67.6426 32.8438 67.5293 33.0273C67.416 33.2109 67.2676 33.3867 67.084 33.5547C66.9043 33.7188 66.6875 33.8535 66.4336 33.959C66.1836 34.0645 65.8945 34.1172 65.5664 34.1172C65.1523 34.1172 64.7832 34.0352 64.459 33.8711C64.1348 33.7031 63.8809 33.4785 63.6973 33.1973C63.5137 32.9121 63.4219 32.5898 63.4219 32.2305C63.4219 31.8945 63.4844 31.5977 63.6094 31.3398C63.7383 31.0781 63.9258 30.8594 64.1719 30.6836C64.4219 30.5078 64.7266 30.375 65.0859 30.2852C65.4453 30.1914 65.8555 30.1445 66.3164 30.1445H67.4238ZM72.7031 32.9922C72.9336 32.9922 73.1406 32.9473 73.3242 32.8574C73.5117 32.7637 73.6621 32.6348 73.7754 32.4707C73.8926 32.3066 73.957 32.1172 73.9688 31.9023H75.2988C75.291 32.3125 75.1699 32.6855 74.9355 33.0215C74.7012 33.3574 74.3906 33.625 74.0039 33.8242C73.6172 34.0195 73.1895 34.1172 72.7207 34.1172C72.2363 34.1172 71.8145 34.0352 71.4551 33.8711C71.0957 33.7031 70.7969 33.4727 70.5586 33.1797C70.3203 32.8867 70.1406 32.5488 70.0195 32.166C69.9023 31.7832 69.8438 31.373 69.8438 30.9355V30.7305C69.8438 30.293 69.9023 29.8828 70.0195 29.5C70.1406 29.1133 70.3203 28.7734 70.5586 28.4805C70.7969 28.1875 71.0957 27.959 71.4551 27.7949C71.8145 27.627 72.2344 27.543 72.7148 27.543C73.2227 27.543 73.668 27.6445 74.0508 27.8477C74.4336 28.0469 74.7344 28.3262 74.9531 28.6855C75.1758 29.041 75.291 29.4551 75.2988 29.9277H73.9688C73.957 29.6934 73.8984 29.4824 73.793 29.2949C73.6914 29.1035 73.5469 28.9512 73.3594 28.8379C73.1758 28.7246 72.9551 28.668 72.6973 28.668C72.4121 28.668 72.1758 28.7266 71.9883 28.8438C71.8008 28.957 71.6543 29.1133 71.5488 29.3125C71.4434 29.5078 71.3672 29.7285 71.3203 29.9746C71.2773 30.2168 71.2559 30.4688 71.2559 30.7305V30.9355C71.2559 31.1973 71.2773 31.4512 71.3203 31.6973C71.3633 31.9434 71.4375 32.1641 71.543 32.3594C71.6523 32.5508 71.8008 32.7051 71.9883 32.8223C72.1758 32.9355 72.4141 32.9922 72.7031 32.9922ZM77.8066 25V34H76.3887V25H77.8066ZM81.7441 27.6602L78.9844 30.7188L77.4727 32.2656L77.1035 31.0703L78.2461 29.6582L80.0391 27.6602H81.7441ZM80.3438 34L78.2871 31.0234L79.1777 30.0332L81.9785 34H80.3438ZM85.3184 34.1172C84.8496 34.1172 84.4258 34.041 84.0469 33.8887C83.6719 33.7324 83.3516 33.5156 83.0859 33.2383C82.8242 32.9609 82.623 32.6348 82.4824 32.2598C82.3418 31.8848 82.2715 31.4805 82.2715 31.0469V30.8125C82.2715 30.3164 82.3438 29.8672 82.4883 29.4648C82.6328 29.0625 82.834 28.7188 83.0918 28.4336C83.3496 28.1445 83.6543 27.9238 84.0059 27.7715C84.3574 27.6191 84.7383 27.543 85.1484 27.543C85.6016 27.543 85.998 27.6191 86.3379 27.7715C86.6777 27.9238 86.959 28.1387 87.1816 28.416C87.4082 28.6895 87.5762 29.0156 87.6855 29.3945C87.7988 29.7734 87.8555 30.1914 87.8555 30.6484V31.252H82.957V30.2383H86.4609V30.127C86.4531 29.873 86.4023 29.6348 86.3086 29.4121C86.2188 29.1895 86.0801 29.0098 85.8926 28.873C85.7051 28.7363 85.4551 28.668 85.1426 28.668C84.9082 28.668 84.6992 28.7188 84.5156 28.8203C84.3359 28.918 84.1855 29.0605 84.0645 29.248C83.9434 29.4355 83.8496 29.6621 83.7832 29.9277C83.7207 30.1895 83.6895 30.4844 83.6895 30.8125V31.0469C83.6895 31.3242 83.7266 31.582 83.8008 31.8203C83.8789 32.0547 83.9922 32.2598 84.1406 32.4355C84.2891 32.6113 84.4688 32.75 84.6797 32.8516C84.8906 32.9492 85.1309 32.998 85.4004 32.998C85.7402 32.998 86.043 32.9297 86.3086 32.793C86.5742 32.6562 86.8047 32.4629 87 32.2129L87.7441 32.9336C87.6074 33.1328 87.4297 33.3242 87.2109 33.5078C86.9922 33.6875 86.7246 33.834 86.4082 33.9473C86.0957 34.0605 85.7324 34.1172 85.3184 34.1172ZM90.375 28.8672V34H88.9629V27.6602H90.3105L90.375 28.8672ZM92.3145 27.6191L92.3027 28.9316C92.2168 28.916 92.123 28.9043 92.0215 28.8965C91.9238 28.8887 91.8262 28.8848 91.7285 28.8848C91.4863 28.8848 91.2734 28.9199 91.0898 28.9902C90.9062 29.0566 90.752 29.1543 90.627 29.2832C90.5059 29.4082 90.4121 29.5605 90.3457 29.7402C90.2793 29.9199 90.2402 30.1211 90.2285 30.3438L89.9062 30.3672C89.9062 29.9688 89.9453 29.5996 90.0234 29.2598C90.1016 28.9199 90.2188 28.6211 90.375 28.3633C90.5352 28.1055 90.7344 27.9043 90.9727 27.7598C91.2148 27.6152 91.4941 27.543 91.8105 27.543C91.8965 27.543 91.9883 27.5508 92.0859 27.5664C92.1875 27.582 92.2637 27.5996 92.3145 27.6191ZM93.2168 33.2969C93.2168 33.0781 93.291 32.8945 93.4395 32.7461C93.5879 32.5938 93.7891 32.5176 94.043 32.5176C94.3008 32.5176 94.502 32.5938 94.6465 32.7461C94.7949 32.8945 94.8691 33.0781 94.8691 33.2969C94.8691 33.5156 94.7949 33.6992 94.6465 33.8477C94.502 33.9961 94.3008 34.0703 94.043 34.0703C93.7891 34.0703 93.5879 33.9961 93.4395 33.8477C93.291 33.6992 93.2168 33.5156 93.2168 33.2969ZM93.2227 28.3047C93.2227 28.0859 93.2969 27.9023 93.4453 27.7539C93.5938 27.6016 93.7949 27.5254 94.0488 27.5254C94.3066 27.5254 94.5078 27.6016 94.6523 27.7539C94.8008 27.9023 94.875 28.0859 94.875 28.3047C94.875 28.5234 94.8008 28.707 94.6523 28.8555C94.5078 29.0039 94.3066 29.0781 94.0488 29.0781C93.7949 29.0781 93.5938 29.0039 93.4453 28.8555C93.2969 28.707 93.2227 28.5234 93.2227 28.3047Z" fill="#333333"/>
<defs>
<filter id="filter0_d_0_282" x="0" y="0" width="179" height="146" filterUnits="userSpaceOnUse" color-interpolation-filters="sRGB">
<feFlood flood-opacity="0" result="BackgroundImageFix"/>
<feColorMatrix in="SourceAlpha" type="matrix" values="0 0 0 0 0 0 0 0 0 0 0 0 0 0 0 0 0 0 127 0" result="hardAlpha"/>
<feOffset dy="2"/>
<feGaussianBlur stdDeviation="5"/>
<feComposite in2="hardAlpha" operator="out"/>
<feColorMatrix type="matrix" values="0 0 0 0 0 0 0 0 0 0 0 0 0 0 0 0 0 0 0.16 0"/>
<feBlend mode="normal" in2="BackgroundImageFix" result="effect1_dropShadow_0_282"/>
<feBlend mode="normal" in="SourceGraphic" in2="effect1_dropShadow_0_282" result="shape"/>
</filter>
<linearGradient id="paint0_linear_0_282" x1="26" y1="106" x2="59.9531" y2="106" gradientUnits="userSpaceOnUse">
<stop offset="0.1125" stop-color="#FE8276"/>
<stop offset="1" stop-color="#FF4747"/>
</linearGradient>
</defs>
</svg>
