<svg width="350" height="134" viewBox="0 0 350 134" fill="none" xmlns="http://www.w3.org/2000/svg">
<g filter="url(#filter0_d_0_208)">
<g clip-path="url(#clip0_0_208)">
<rect x="10" y="8" width="330" height="114" rx="10" fill="#EFEEFB"/>
<rect x="10" y="8" width="330" height="114" rx="10" fill="white" fill-opacity="0.2"/>
<g filter="url(#filter1_d_0_208)">
<rect x="214" y="84" width="100" height="26" rx="13" fill="white"/>
<path d="M254.469 97.3438V98.4473H249.347L249.278 97.5928L252.242 92.8906H253.36L252.149 94.917L250.675 97.3438H254.469ZM253.663 92.8906V100H252.257V92.8906H253.663ZM258.326 92.8906L255.719 100.61H254.674L257.281 92.8906H258.326ZM263.731 98.0518C263.731 98.4977 263.627 98.8737 263.419 99.1797C263.211 99.4824 262.924 99.7119 262.56 99.8682C262.198 100.021 261.788 100.098 261.329 100.098C260.87 100.098 260.458 100.021 260.094 99.8682C259.729 99.7119 259.441 99.4824 259.229 99.1797C259.018 98.8737 258.912 98.4977 258.912 98.0518C258.912 97.7523 258.972 97.4821 259.093 97.2412C259.213 96.9971 259.381 96.7887 259.596 96.6162C259.814 96.4404 260.069 96.307 260.362 96.2158C260.655 96.1214 260.974 96.0742 261.319 96.0742C261.782 96.0742 262.195 96.1556 262.56 96.3184C262.924 96.4811 263.211 96.7106 263.419 97.0068C263.627 97.3031 263.731 97.6514 263.731 98.0518ZM262.315 97.959C262.315 97.7409 262.273 97.5537 262.188 97.3975C262.107 97.238 261.992 97.1159 261.842 97.0312C261.692 96.9466 261.518 96.9043 261.319 96.9043C261.121 96.9043 260.947 96.9466 260.797 97.0312C260.647 97.1159 260.53 97.238 260.445 97.3975C260.364 97.5537 260.323 97.7409 260.323 97.959C260.323 98.1738 260.364 98.3594 260.445 98.5156C260.53 98.6719 260.647 98.7923 260.797 98.877C260.95 98.9583 261.127 98.999 261.329 98.999C261.531 98.999 261.705 98.9583 261.852 98.877C262.001 98.7923 262.115 98.6719 262.193 98.5156C262.275 98.3594 262.315 98.1738 262.315 97.959ZM263.58 94.7754C263.58 95.1367 263.484 95.4574 263.292 95.7373C263.1 96.014 262.833 96.2305 262.491 96.3867C262.153 96.543 261.765 96.6211 261.329 96.6211C260.89 96.6211 260.499 96.543 260.157 96.3867C259.815 96.2305 259.549 96.014 259.356 95.7373C259.164 95.4574 259.068 95.1367 259.068 94.7754C259.068 94.3457 259.164 93.9844 259.356 93.6914C259.552 93.3952 259.819 93.1706 260.157 93.0176C260.499 92.8646 260.886 92.7881 261.319 92.7881C261.759 92.7881 262.148 92.8646 262.486 93.0176C262.828 93.1706 263.095 93.3952 263.287 93.6914C263.482 93.9844 263.58 94.3457 263.58 94.7754ZM262.174 94.8389C262.174 94.6468 262.14 94.4808 262.071 94.3408C262.003 94.1976 261.905 94.0869 261.778 94.0088C261.655 93.9307 261.502 93.8916 261.319 93.8916C261.144 93.8916 260.992 93.929 260.865 94.0039C260.742 94.0788 260.646 94.1878 260.577 94.3311C260.512 94.471 260.479 94.6403 260.479 94.8389C260.479 95.0309 260.512 95.2002 260.577 95.3467C260.646 95.4899 260.743 95.6022 260.87 95.6836C260.997 95.765 261.15 95.8057 261.329 95.8057C261.508 95.8057 261.66 95.765 261.783 95.6836C261.91 95.6022 262.006 95.4899 262.071 95.3467C262.14 95.2002 262.174 95.0309 262.174 94.8389ZM272.955 96.2842V99.1016C272.844 99.235 272.674 99.3799 272.442 99.5361C272.211 99.6891 271.913 99.821 271.549 99.9316C271.184 100.042 270.743 100.098 270.226 100.098C269.767 100.098 269.348 100.023 268.971 99.873C268.593 99.7201 268.268 99.4971 267.994 99.2041C267.724 98.9111 267.516 98.5531 267.369 98.1299C267.223 97.7035 267.149 97.2168 267.149 96.6699V96.2256C267.149 95.6787 267.219 95.1921 267.359 94.7656C267.503 94.3392 267.706 93.9795 267.97 93.6865C268.233 93.3936 268.548 93.1706 268.912 93.0176C269.277 92.8646 269.682 92.7881 270.128 92.7881C270.746 92.7881 271.254 92.889 271.651 93.0908C272.049 93.2894 272.351 93.5661 272.56 93.9209C272.771 94.2725 272.901 94.6761 272.95 95.1318H271.529C271.493 94.891 271.425 94.681 271.324 94.502C271.223 94.3229 271.078 94.1829 270.89 94.082C270.704 93.9811 270.463 93.9307 270.167 93.9307C269.923 93.9307 269.705 93.9811 269.513 94.082C269.324 94.1797 269.164 94.3245 269.034 94.5166C268.904 94.7087 268.805 94.9463 268.736 95.2295C268.668 95.5127 268.634 95.8415 268.634 96.2158V96.6699C268.634 97.041 268.67 97.3698 268.741 97.6562C268.813 97.9395 268.919 98.1787 269.059 98.374C269.202 98.5661 269.378 98.7109 269.586 98.8086C269.794 98.9062 270.037 98.9551 270.313 98.9551C270.545 98.9551 270.737 98.9355 270.89 98.8965C271.046 98.8574 271.171 98.8102 271.266 98.7549C271.363 98.6963 271.438 98.641 271.49 98.5889V97.3291H270.152V96.2842H272.955ZM275.533 92.5V100H274.122V92.5H275.533ZM279.547 98.8086V96.4551C279.547 96.2858 279.519 96.141 279.464 96.0205C279.409 95.8968 279.322 95.8008 279.205 95.7324C279.091 95.6641 278.943 95.6299 278.761 95.6299C278.604 95.6299 278.469 95.6576 278.355 95.7129C278.242 95.765 278.154 95.8415 278.092 95.9424C278.03 96.04 277.999 96.1556 277.999 96.2891H276.593C276.593 96.0645 276.645 95.8512 276.749 95.6494C276.853 95.4476 277.005 95.2702 277.203 95.1172C277.402 94.9609 277.638 94.8389 277.911 94.751C278.188 94.6631 278.497 94.6191 278.839 94.6191C279.249 94.6191 279.614 94.6875 279.933 94.8242C280.252 94.9609 280.502 95.166 280.685 95.4395C280.87 95.7129 280.963 96.0547 280.963 96.4648V98.7256C280.963 99.0153 280.981 99.2529 281.017 99.4385C281.052 99.6208 281.104 99.7803 281.173 99.917V100H279.752C279.684 99.8568 279.632 99.6777 279.596 99.4629C279.563 99.2448 279.547 99.0267 279.547 98.8086ZM279.732 96.7822L279.742 97.5781H278.956C278.771 97.5781 278.609 97.5993 278.473 97.6416C278.336 97.6839 278.224 97.7441 278.136 97.8223C278.048 97.8971 277.983 97.985 277.94 98.0859C277.901 98.1868 277.882 98.2975 277.882 98.418C277.882 98.5384 277.91 98.6475 277.965 98.7451C278.02 98.8395 278.1 98.9144 278.204 98.9697C278.308 99.0218 278.43 99.0479 278.57 99.0479C278.782 99.0479 278.966 99.0055 279.122 98.9209C279.278 98.8363 279.399 98.7321 279.483 98.6084C279.571 98.4847 279.617 98.3675 279.62 98.2568L279.991 98.8525C279.939 98.986 279.868 99.1243 279.776 99.2676C279.688 99.4108 279.576 99.5459 279.439 99.6729C279.303 99.7965 279.138 99.8991 278.946 99.9805C278.754 100.059 278.526 100.098 278.263 100.098C277.927 100.098 277.623 100.031 277.35 99.8975C277.079 99.7607 276.865 99.5736 276.705 99.3359C276.549 99.0951 276.471 98.8216 276.471 98.5156C276.471 98.2389 276.523 97.9932 276.627 97.7783C276.731 97.5635 276.884 97.3828 277.086 97.2363C277.291 97.0866 277.547 96.9743 277.853 96.8994C278.159 96.8213 278.513 96.7822 278.917 96.7822H279.732ZM284.903 98.54C284.903 98.4391 284.874 98.348 284.815 98.2666C284.757 98.1852 284.648 98.1104 284.488 98.042C284.332 97.9704 284.106 97.9053 283.81 97.8467C283.543 97.7881 283.294 97.7148 283.062 97.627C282.835 97.5358 282.636 97.4268 282.467 97.2998C282.301 97.1729 282.171 97.0231 282.076 96.8506C281.982 96.6748 281.935 96.4746 281.935 96.25C281.935 96.0286 281.982 95.8203 282.076 95.625C282.174 95.4297 282.312 95.2572 282.491 95.1074C282.674 94.9544 282.895 94.8356 283.155 94.751C283.419 94.6631 283.715 94.6191 284.044 94.6191C284.503 94.6191 284.897 94.6924 285.226 94.8389C285.558 94.9854 285.812 95.1872 285.987 95.4443C286.166 95.6982 286.256 95.988 286.256 96.3135H284.85C284.85 96.1768 284.82 96.0547 284.762 95.9473C284.706 95.8366 284.618 95.7503 284.498 95.6885C284.381 95.6234 284.228 95.5908 284.039 95.5908C283.883 95.5908 283.748 95.6185 283.634 95.6738C283.52 95.7259 283.432 95.7975 283.37 95.8887C283.312 95.9766 283.282 96.0742 283.282 96.1816C283.282 96.263 283.299 96.3363 283.331 96.4014C283.367 96.4632 283.424 96.5202 283.502 96.5723C283.58 96.6243 283.681 96.6732 283.805 96.7188C283.932 96.7611 284.088 96.8001 284.273 96.8359C284.654 96.9141 284.994 97.0166 285.294 97.1436C285.593 97.2673 285.831 97.4365 286.007 97.6514C286.183 97.863 286.271 98.1413 286.271 98.4863C286.271 98.7207 286.218 98.9355 286.114 99.1309C286.01 99.3262 285.86 99.4971 285.665 99.6436C285.47 99.7868 285.235 99.8991 284.962 99.9805C284.692 100.059 284.387 100.098 284.049 100.098C283.557 100.098 283.141 100.01 282.799 99.834C282.46 99.6582 282.203 99.4352 282.027 99.165C281.855 98.8916 281.769 98.6117 281.769 98.3252H283.102C283.108 98.5173 283.157 98.6719 283.248 98.7891C283.342 98.9062 283.461 98.9909 283.604 99.043C283.751 99.0951 283.909 99.1211 284.078 99.1211C284.26 99.1211 284.412 99.0967 284.532 99.0479C284.653 98.9958 284.744 98.9274 284.806 98.8428C284.871 98.7549 284.903 98.654 284.903 98.54ZM290.04 98.54C290.04 98.4391 290.011 98.348 289.952 98.2666C289.894 98.1852 289.785 98.1104 289.625 98.042C289.469 97.9704 289.243 97.9053 288.946 97.8467C288.679 97.7881 288.43 97.7148 288.199 97.627C287.971 97.5358 287.773 97.4268 287.604 97.2998C287.438 97.1729 287.307 97.0231 287.213 96.8506C287.118 96.6748 287.071 96.4746 287.071 96.25C287.071 96.0286 287.118 95.8203 287.213 95.625C287.311 95.4297 287.449 95.2572 287.628 95.1074C287.81 94.9544 288.032 94.8356 288.292 94.751C288.556 94.6631 288.852 94.6191 289.181 94.6191C289.64 94.6191 290.034 94.6924 290.362 94.8389C290.694 94.9854 290.948 95.1872 291.124 95.4443C291.303 95.6982 291.393 95.988 291.393 96.3135H289.986C289.986 96.1768 289.957 96.0547 289.898 95.9473C289.843 95.8366 289.755 95.7503 289.635 95.6885C289.518 95.6234 289.365 95.5908 289.176 95.5908C289.02 95.5908 288.884 95.6185 288.771 95.6738C288.657 95.7259 288.569 95.7975 288.507 95.8887C288.448 95.9766 288.419 96.0742 288.419 96.1816C288.419 96.263 288.435 96.3363 288.468 96.4014C288.504 96.4632 288.561 96.5202 288.639 96.5723C288.717 96.6243 288.818 96.6732 288.941 96.7188C289.068 96.7611 289.225 96.8001 289.41 96.8359C289.791 96.9141 290.131 97.0166 290.431 97.1436C290.73 97.2673 290.968 97.4365 291.144 97.6514C291.319 97.863 291.407 98.1413 291.407 98.4863C291.407 98.7207 291.355 98.9355 291.251 99.1309C291.147 99.3262 290.997 99.4971 290.802 99.6436C290.606 99.7868 290.372 99.8991 290.099 99.9805C289.828 100.059 289.524 100.098 289.186 100.098C288.694 100.098 288.277 100.01 287.936 99.834C287.597 99.6582 287.34 99.4352 287.164 99.165C286.992 98.8916 286.905 98.6117 286.905 98.3252H288.238C288.245 98.5173 288.294 98.6719 288.385 98.7891C288.479 98.9062 288.598 98.9909 288.741 99.043C288.888 99.0951 289.046 99.1211 289.215 99.1211C289.397 99.1211 289.549 99.0967 289.669 99.0479C289.789 98.9958 289.881 98.9274 289.942 98.8428C290.007 98.7549 290.04 98.654 290.04 98.54ZM294.752 100.098C294.342 100.098 293.974 100.033 293.648 99.9023C293.323 99.7689 293.046 99.585 292.818 99.3506C292.594 99.1162 292.421 98.8444 292.301 98.5352C292.18 98.2227 292.12 97.8906 292.12 97.5391V97.3438C292.12 96.9434 292.177 96.5771 292.291 96.2451C292.405 95.9131 292.568 95.625 292.779 95.3809C292.994 95.1367 293.255 94.9495 293.561 94.8193C293.867 94.6859 294.212 94.6191 294.596 94.6191C294.97 94.6191 295.302 94.681 295.592 94.8047C295.882 94.9284 296.124 95.1042 296.319 95.332C296.518 95.5599 296.668 95.8333 296.769 96.1523C296.869 96.4681 296.92 96.8197 296.92 97.207V97.793H292.721V96.8555H295.538V96.748C295.538 96.5527 295.502 96.3786 295.431 96.2256C295.362 96.0693 295.258 95.9456 295.118 95.8545C294.978 95.7633 294.799 95.7178 294.581 95.7178C294.396 95.7178 294.236 95.7585 294.103 95.8398C293.969 95.9212 293.86 96.0352 293.775 96.1816C293.694 96.3281 293.632 96.5007 293.59 96.6992C293.551 96.8945 293.531 97.1094 293.531 97.3438V97.5391C293.531 97.7507 293.561 97.946 293.619 98.125C293.681 98.304 293.767 98.4587 293.878 98.5889C293.992 98.7191 294.129 98.82 294.288 98.8916C294.451 98.9632 294.635 98.999 294.84 98.999C295.094 98.999 295.33 98.9502 295.548 98.8525C295.769 98.7516 295.96 98.6003 296.119 98.3984L296.803 99.1406C296.692 99.3001 296.541 99.4531 296.349 99.5996C296.16 99.7461 295.932 99.8665 295.665 99.9609C295.398 100.052 295.094 100.098 294.752 100.098ZM300.577 98.54C300.577 98.4391 300.548 98.348 300.489 98.2666C300.431 98.1852 300.322 98.1104 300.162 98.042C300.006 97.9704 299.78 97.9053 299.483 97.8467C299.216 97.7881 298.967 97.7148 298.736 97.627C298.508 97.5358 298.31 97.4268 298.141 97.2998C297.975 97.1729 297.844 97.0231 297.75 96.8506C297.656 96.6748 297.608 96.4746 297.608 96.25C297.608 96.0286 297.656 95.8203 297.75 95.625C297.848 95.4297 297.986 95.2572 298.165 95.1074C298.347 94.9544 298.569 94.8356 298.829 94.751C299.093 94.6631 299.389 94.6191 299.718 94.6191C300.177 94.6191 300.571 94.6924 300.899 94.8389C301.231 94.9854 301.485 95.1872 301.661 95.4443C301.84 95.6982 301.93 95.988 301.93 96.3135H300.523C300.523 96.1768 300.494 96.0547 300.436 95.9473C300.38 95.8366 300.292 95.7503 300.172 95.6885C300.055 95.6234 299.902 95.5908 299.713 95.5908C299.557 95.5908 299.422 95.6185 299.308 95.6738C299.194 95.7259 299.106 95.7975 299.044 95.8887C298.985 95.9766 298.956 96.0742 298.956 96.1816C298.956 96.263 298.972 96.3363 299.005 96.4014C299.041 96.4632 299.098 96.5202 299.176 96.5723C299.254 96.6243 299.355 96.6732 299.479 96.7188C299.605 96.7611 299.762 96.8001 299.947 96.8359C300.328 96.9141 300.668 97.0166 300.968 97.1436C301.267 97.2673 301.505 97.4365 301.681 97.6514C301.856 97.863 301.944 98.1413 301.944 98.4863C301.944 98.7207 301.892 98.9355 301.788 99.1309C301.684 99.3262 301.534 99.4971 301.339 99.6436C301.144 99.7868 300.909 99.8991 300.636 99.9805C300.366 100.059 300.061 100.098 299.723 100.098C299.231 100.098 298.814 100.01 298.473 99.834C298.134 99.6582 297.877 99.4352 297.701 99.165C297.529 98.8916 297.442 98.6117 297.442 98.3252H298.775C298.782 98.5173 298.831 98.6719 298.922 98.7891C299.016 98.9062 299.135 98.9909 299.278 99.043C299.425 99.0951 299.583 99.1211 299.752 99.1211C299.934 99.1211 300.086 99.0967 300.206 99.0479C300.326 98.9958 300.418 98.9274 300.479 98.8428C300.545 98.7549 300.577 98.654 300.577 98.54Z" fill="#333333"/>
<path d="M234 89.5001C230.003 92.9126 228 95.8601 228 98.3501C228 102.085 230.85 104.5 234 104.5C237.15 104.5 240 102.085 240 98.3501C240 95.8601 237.998 92.9126 234 89.5001ZM230.873 98.5001C231.15 98.5001 231.375 98.6951 231.428 98.9651C231.735 100.63 233.138 101.2 234.158 101.118C234.48 101.103 234.75 101.358 234.75 101.68C234.75 101.98 234.51 102.228 234.21 102.243C232.613 102.34 230.745 101.425 230.318 99.1526C230.305 99.0722 230.309 98.9899 230.331 98.9115C230.353 98.833 230.392 98.7602 230.444 98.6982C230.497 98.6361 230.563 98.5863 230.637 98.5521C230.711 98.5179 230.791 98.5002 230.873 98.5001Z" fill="#2F72F0"/>
</g>
<g filter="url(#filter2_d_0_208)">
<rect x="214" y="52" width="100" height="26" rx="13" fill="white"/>
<path d="M254.317 60.8906V61.6475L251.568 68H250.084L252.833 61.9893H249.293V60.8906H254.317ZM258.326 60.8906L255.719 68.6104H254.674L257.281 60.8906H258.326ZM263.731 66.0518C263.731 66.4977 263.627 66.8737 263.419 67.1797C263.211 67.4824 262.924 67.7119 262.56 67.8682C262.198 68.0212 261.788 68.0977 261.329 68.0977C260.87 68.0977 260.458 68.0212 260.094 67.8682C259.729 67.7119 259.441 67.4824 259.229 67.1797C259.018 66.8737 258.912 66.4977 258.912 66.0518C258.912 65.7523 258.972 65.4821 259.093 65.2412C259.213 64.9971 259.381 64.7887 259.596 64.6162C259.814 64.4404 260.069 64.307 260.362 64.2158C260.655 64.1214 260.974 64.0742 261.319 64.0742C261.782 64.0742 262.195 64.1556 262.56 64.3184C262.924 64.4811 263.211 64.7106 263.419 65.0068C263.627 65.3031 263.731 65.6514 263.731 66.0518ZM262.315 65.959C262.315 65.7409 262.273 65.5537 262.188 65.3975C262.107 65.238 261.992 65.1159 261.842 65.0312C261.692 64.9466 261.518 64.9043 261.319 64.9043C261.121 64.9043 260.947 64.9466 260.797 65.0312C260.647 65.1159 260.53 65.238 260.445 65.3975C260.364 65.5537 260.323 65.7409 260.323 65.959C260.323 66.1738 260.364 66.3594 260.445 66.5156C260.53 66.6719 260.647 66.7923 260.797 66.877C260.95 66.9583 261.127 66.999 261.329 66.999C261.531 66.999 261.705 66.9583 261.852 66.877C262.001 66.7923 262.115 66.6719 262.193 66.5156C262.275 66.3594 262.315 66.1738 262.315 65.959ZM263.58 62.7754C263.58 63.1367 263.484 63.4574 263.292 63.7373C263.1 64.014 262.833 64.2305 262.491 64.3867C262.153 64.543 261.765 64.6211 261.329 64.6211C260.89 64.6211 260.499 64.543 260.157 64.3867C259.815 64.2305 259.549 64.014 259.356 63.7373C259.164 63.4574 259.068 63.1367 259.068 62.7754C259.068 62.3457 259.164 61.9844 259.356 61.6914C259.552 61.3952 259.819 61.1706 260.157 61.0176C260.499 60.8646 260.886 60.7881 261.319 60.7881C261.759 60.7881 262.148 60.8646 262.486 61.0176C262.828 61.1706 263.095 61.3952 263.287 61.6914C263.482 61.9844 263.58 62.3457 263.58 62.7754ZM262.174 62.8389C262.174 62.6468 262.14 62.4808 262.071 62.3408C262.003 62.1976 261.905 62.0869 261.778 62.0088C261.655 61.9307 261.502 61.8916 261.319 61.8916C261.144 61.8916 260.992 61.929 260.865 62.0039C260.742 62.0788 260.646 62.1878 260.577 62.3311C260.512 62.471 260.479 62.6403 260.479 62.8389C260.479 63.0309 260.512 63.2002 260.577 63.3467C260.646 63.4899 260.743 63.6022 260.87 63.6836C260.997 63.765 261.15 63.8057 261.329 63.8057C261.508 63.8057 261.66 63.765 261.783 63.6836C261.91 63.6022 262.006 63.4899 262.071 63.3467C262.14 63.2002 262.174 63.0309 262.174 62.8389ZM272.062 63.7861V64.9287H268.351V63.7861H272.062ZM268.785 60.8906V68H267.32V60.8906H268.785ZM273.106 60.8906V68H271.646V60.8906H273.106ZM274.068 65.4121V65.3096C274.068 64.9222 274.124 64.5658 274.234 64.2402C274.345 63.9115 274.506 63.6266 274.718 63.3857C274.929 63.1449 275.19 62.9577 275.499 62.8242C275.808 62.6875 276.163 62.6191 276.563 62.6191C276.964 62.6191 277.32 62.6875 277.633 62.8242C277.945 62.9577 278.207 63.1449 278.419 63.3857C278.634 63.6266 278.797 63.9115 278.907 64.2402C279.018 64.5658 279.073 64.9222 279.073 65.3096V65.4121C279.073 65.7962 279.018 66.1527 278.907 66.4814C278.797 66.807 278.634 67.0918 278.419 67.3359C278.207 67.5768 277.947 67.764 277.638 67.8975C277.328 68.0309 276.974 68.0977 276.573 68.0977C276.173 68.0977 275.816 68.0309 275.504 67.8975C275.195 67.764 274.933 67.5768 274.718 67.3359C274.506 67.0918 274.345 66.807 274.234 66.4814C274.124 66.1527 274.068 65.7962 274.068 65.4121ZM275.475 65.3096V65.4121C275.475 65.6335 275.494 65.8402 275.533 66.0322C275.572 66.2243 275.634 66.3936 275.719 66.54C275.807 66.6833 275.921 66.7956 276.061 66.877C276.201 66.9583 276.371 66.999 276.573 66.999C276.769 66.999 276.936 66.9583 277.076 66.877C277.216 66.7956 277.328 66.6833 277.413 66.54C277.498 66.3936 277.56 66.2243 277.599 66.0322C277.641 65.8402 277.662 65.6335 277.662 65.4121V65.3096C277.662 65.0947 277.641 64.8929 277.599 64.7041C277.56 64.512 277.496 64.3428 277.408 64.1963C277.324 64.0465 277.211 63.9294 277.071 63.8447C276.931 63.7601 276.762 63.7178 276.563 63.7178C276.365 63.7178 276.196 63.7601 276.056 63.8447C275.919 63.9294 275.807 64.0465 275.719 64.1963C275.634 64.3428 275.572 64.512 275.533 64.7041C275.494 64.8929 275.475 65.0947 275.475 65.3096ZM283.062 66.7354V62.7168H284.469V68H283.146L283.062 66.7354ZM283.219 65.6514L283.634 65.6416C283.634 65.9932 283.593 66.3203 283.512 66.623C283.43 66.9225 283.308 67.1829 283.146 67.4043C282.983 67.6224 282.778 67.7933 282.53 67.917C282.283 68.0374 281.992 68.0977 281.656 68.0977C281.399 68.0977 281.161 68.0618 280.943 67.9902C280.729 67.9154 280.543 67.7998 280.387 67.6436C280.234 67.484 280.113 67.2806 280.025 67.0332C279.941 66.7826 279.898 66.4814 279.898 66.1299V62.7168H281.305V66.1396C281.305 66.2959 281.323 66.4277 281.358 66.5352C281.397 66.6426 281.451 66.7305 281.52 66.7988C281.588 66.8672 281.668 66.916 281.759 66.9453C281.853 66.9746 281.957 66.9893 282.071 66.9893C282.361 66.9893 282.589 66.9307 282.755 66.8135C282.924 66.6963 283.043 66.5368 283.111 66.335C283.183 66.1299 283.219 65.902 283.219 65.6514ZM286.949 63.8691V68H285.543V62.7168H286.866L286.949 63.8691ZM288.541 62.6826L288.517 63.9863C288.448 63.9766 288.365 63.9684 288.268 63.9619C288.173 63.9521 288.087 63.9473 288.009 63.9473C287.81 63.9473 287.638 63.9733 287.491 64.0254C287.348 64.0742 287.228 64.1475 287.13 64.2451C287.035 64.3428 286.964 64.4616 286.915 64.6016C286.869 64.7415 286.843 64.901 286.837 65.0801L286.554 64.9922C286.554 64.6504 286.588 64.3363 286.656 64.0498C286.725 63.7601 286.824 63.5078 286.954 63.293C287.088 63.0781 287.25 62.9121 287.442 62.7949C287.634 62.6777 287.854 62.6191 288.102 62.6191C288.18 62.6191 288.259 62.6257 288.341 62.6387C288.422 62.6484 288.489 62.6631 288.541 62.6826ZM292.062 66.54C292.062 66.4391 292.032 66.348 291.974 66.2666C291.915 66.1852 291.806 66.1104 291.646 66.042C291.49 65.9704 291.264 65.9053 290.968 65.8467C290.701 65.7881 290.452 65.7148 290.221 65.627C289.993 65.5358 289.794 65.4268 289.625 65.2998C289.459 65.1729 289.329 65.0231 289.234 64.8506C289.14 64.6748 289.093 64.4746 289.093 64.25C289.093 64.0286 289.14 63.8203 289.234 63.625C289.332 63.4297 289.47 63.2572 289.649 63.1074C289.832 62.9544 290.053 62.8356 290.313 62.751C290.577 62.6631 290.873 62.6191 291.202 62.6191C291.661 62.6191 292.055 62.6924 292.384 62.8389C292.716 62.9854 292.97 63.1872 293.146 63.4443C293.325 63.6982 293.414 63.988 293.414 64.3135H292.008C292.008 64.1768 291.979 64.0547 291.92 63.9473C291.865 63.8366 291.777 63.7503 291.656 63.6885C291.539 63.6234 291.386 63.5908 291.197 63.5908C291.041 63.5908 290.906 63.6185 290.792 63.6738C290.678 63.7259 290.59 63.7975 290.528 63.8887C290.47 63.9766 290.44 64.0742 290.44 64.1816C290.44 64.263 290.457 64.3363 290.489 64.4014C290.525 64.4632 290.582 64.5202 290.66 64.5723C290.738 64.6243 290.839 64.6732 290.963 64.7188C291.09 64.7611 291.246 64.8001 291.432 64.8359C291.812 64.9141 292.153 65.0166 292.452 65.1436C292.752 65.2673 292.989 65.4365 293.165 65.6514C293.341 65.863 293.429 66.1413 293.429 66.4863C293.429 66.7207 293.377 66.9355 293.272 67.1309C293.168 67.3262 293.019 67.4971 292.823 67.6436C292.628 67.7868 292.394 67.8991 292.12 67.9805C291.85 68.0586 291.546 68.0977 291.207 68.0977C290.715 68.0977 290.299 68.0098 289.957 67.834C289.618 67.6582 289.361 67.4352 289.186 67.165C289.013 66.8916 288.927 66.6117 288.927 66.3252H290.26C290.266 66.5173 290.315 66.6719 290.406 66.7891C290.501 66.9062 290.619 66.9909 290.763 67.043C290.909 67.0951 291.067 67.1211 291.236 67.1211C291.419 67.1211 291.57 67.0967 291.69 67.0479C291.811 66.9958 291.902 66.9274 291.964 66.8428C292.029 66.7549 292.062 66.654 292.062 66.54Z" fill="#333333"/>
<mask id="mask0_0_208" style="mask-type:alpha" maskUnits="userSpaceOnUse" x="227" y="60" width="16" height="11">
<path d="M241.861 66.891H228M228 61V69.3168V61ZM241.861 66.891V69.3168V66.891Z" stroke="white" stroke-width="2" stroke-linecap="round" stroke-linejoin="round"/>
<path d="M234.238 62.3862V66.8911H241.861V63.4258C241.861 63.1501 241.752 62.8857 241.557 62.6907C241.362 62.4958 241.098 62.3862 240.822 62.3862H234.238Z" fill="white" stroke="white" stroke-width="2" stroke-linecap="round" stroke-linejoin="round"/>
<path d="M231.119 64.8121C231.693 64.8121 232.158 64.3467 232.158 63.7725C232.158 63.1984 231.693 62.7329 231.119 62.7329C230.544 62.7329 230.079 63.1984 230.079 63.7725C230.079 64.3467 230.544 64.8121 231.119 64.8121Z" fill="white" stroke="white" stroke-width="2"/>
</mask>
<g mask="url(#mask0_0_208)">
<path d="M226 57H243V74H226V57Z" fill="#F23CB4"/>
</g>
</g>
<g filter="url(#filter3_d_0_208)">
<rect x="214" y="20" width="100" height="26" rx="13" fill="white"/>
<path d="M254.278 34.0518C254.278 34.4977 254.174 34.8737 253.966 35.1797C253.757 35.4824 253.471 35.7119 253.106 35.8682C252.745 36.0212 252.335 36.0977 251.876 36.0977C251.417 36.0977 251.005 36.0212 250.641 35.8682C250.276 35.7119 249.988 35.4824 249.776 35.1797C249.565 34.8737 249.459 34.4977 249.459 34.0518C249.459 33.7523 249.519 33.4821 249.64 33.2412C249.76 32.9971 249.928 32.7887 250.143 32.6162C250.361 32.4404 250.616 32.307 250.909 32.2158C251.202 32.1214 251.521 32.0742 251.866 32.0742C252.328 32.0742 252.742 32.1556 253.106 32.3184C253.471 32.4811 253.757 32.7106 253.966 33.0068C254.174 33.3031 254.278 33.6514 254.278 34.0518ZM252.862 33.959C252.862 33.7409 252.82 33.5537 252.735 33.3975C252.654 33.238 252.538 33.1159 252.389 33.0312C252.239 32.9466 252.065 32.9043 251.866 32.9043C251.668 32.9043 251.493 32.9466 251.344 33.0312C251.194 33.1159 251.077 33.238 250.992 33.3975C250.911 33.5537 250.87 33.7409 250.87 33.959C250.87 34.1738 250.911 34.3594 250.992 34.5156C251.077 34.6719 251.194 34.7923 251.344 34.877C251.497 34.9583 251.674 34.999 251.876 34.999C252.078 34.999 252.252 34.9583 252.398 34.877C252.548 34.7923 252.662 34.6719 252.74 34.5156C252.822 34.3594 252.862 34.1738 252.862 33.959ZM254.127 30.7754C254.127 31.1367 254.031 31.4574 253.839 31.7373C253.647 32.014 253.38 32.2305 253.038 32.3867C252.7 32.543 252.312 32.6211 251.876 32.6211C251.437 32.6211 251.046 32.543 250.704 32.3867C250.362 32.2305 250.095 32.014 249.903 31.7373C249.711 31.4574 249.615 31.1367 249.615 30.7754C249.615 30.3457 249.711 29.9844 249.903 29.6914C250.099 29.3952 250.366 29.1706 250.704 29.0176C251.046 28.8646 251.433 28.7881 251.866 28.7881C252.306 28.7881 252.695 28.8646 253.033 29.0176C253.375 29.1706 253.642 29.3952 253.834 29.6914C254.029 29.9844 254.127 30.3457 254.127 30.7754ZM252.721 30.8389C252.721 30.6468 252.687 30.4808 252.618 30.3408C252.55 30.1976 252.452 30.0869 252.325 30.0088C252.201 29.9307 252.049 29.8916 251.866 29.8916C251.69 29.8916 251.539 29.929 251.412 30.0039C251.288 30.0788 251.192 30.1878 251.124 30.3311C251.059 30.471 251.026 30.6403 251.026 30.8389C251.026 31.0309 251.059 31.2002 251.124 31.3467C251.192 31.4899 251.29 31.6022 251.417 31.6836C251.544 31.765 251.697 31.8057 251.876 31.8057C252.055 31.8057 252.206 31.765 252.33 31.6836C252.457 31.6022 252.553 31.4899 252.618 31.3467C252.687 31.2002 252.721 31.0309 252.721 30.8389ZM260.016 31.8203V33.0508C260.016 33.5846 259.959 34.0452 259.845 34.4326C259.731 34.8167 259.566 35.1325 259.352 35.3799C259.14 35.624 258.888 35.8047 258.595 35.9219C258.302 36.0391 257.976 36.0977 257.618 36.0977C257.332 36.0977 257.065 36.0618 256.817 35.9902C256.57 35.9154 256.347 35.7998 256.148 35.6436C255.953 35.4873 255.784 35.2904 255.641 35.0527C255.501 34.8118 255.393 34.5254 255.318 34.1934C255.243 33.8613 255.206 33.4805 255.206 33.0508V31.8203C255.206 31.2865 255.263 30.8291 255.377 30.4482C255.494 30.0641 255.659 29.75 255.87 29.5059C256.085 29.2617 256.339 29.0827 256.632 28.9688C256.925 28.8516 257.25 28.793 257.608 28.793C257.895 28.793 258.16 28.8304 258.404 28.9053C258.652 28.9769 258.875 29.0892 259.073 29.2422C259.272 29.3952 259.441 29.5921 259.581 29.833C259.721 30.0706 259.828 30.3555 259.903 30.6875C259.978 31.0163 260.016 31.3939 260.016 31.8203ZM258.604 33.2363V31.6299C258.604 31.3727 258.59 31.1481 258.561 30.9561C258.535 30.764 258.494 30.6012 258.438 30.4678C258.383 30.3311 258.315 30.2204 258.233 30.1357C258.152 30.0511 258.059 29.9893 257.955 29.9502C257.851 29.9111 257.735 29.8916 257.608 29.8916C257.449 29.8916 257.307 29.9225 257.184 29.9844C257.063 30.0462 256.961 30.1455 256.876 30.2822C256.791 30.4157 256.726 30.5947 256.681 30.8193C256.638 31.0407 256.617 31.3109 256.617 31.6299V33.2363C256.617 33.4935 256.63 33.7197 256.656 33.915C256.686 34.1104 256.728 34.278 256.783 34.418C256.842 34.5547 256.91 34.667 256.988 34.7549C257.07 34.8395 257.162 34.9014 257.267 34.9404C257.374 34.9795 257.491 34.999 257.618 34.999C257.774 34.999 257.913 34.9681 258.033 34.9062C258.157 34.8411 258.261 34.7402 258.346 34.6035C258.434 34.4635 258.499 34.2812 258.541 34.0566C258.583 33.832 258.604 33.5586 258.604 33.2363ZM261.1 35.3213C261.1 35.113 261.171 34.9388 261.314 34.7988C261.461 34.6589 261.655 34.5889 261.896 34.5889C262.136 34.5889 262.328 34.6589 262.472 34.7988C262.618 34.9388 262.691 35.113 262.691 35.3213C262.691 35.5296 262.618 35.7038 262.472 35.8438C262.328 35.9837 262.136 36.0537 261.896 36.0537C261.655 36.0537 261.461 35.9837 261.314 35.8438C261.171 35.7038 261.1 35.5296 261.1 35.3213ZM265.196 32.7627L264.073 32.4941L264.479 28.8906H268.473V30.0283H265.636L265.46 31.6055C265.554 31.5501 265.698 31.4915 265.89 31.4297C266.082 31.3646 266.297 31.332 266.534 31.332C266.879 31.332 267.185 31.3857 267.452 31.4932C267.719 31.6006 267.945 31.7568 268.131 31.9619C268.32 32.167 268.463 32.4176 268.561 32.7139C268.658 33.0101 268.707 33.3454 268.707 33.7197C268.707 34.0355 268.658 34.3366 268.561 34.623C268.463 34.9062 268.315 35.1602 268.116 35.3848C267.918 35.6061 267.669 35.7803 267.369 35.9072C267.07 36.0342 266.715 36.0977 266.305 36.0977C265.999 36.0977 265.702 36.0521 265.416 35.9609C265.133 35.8698 264.877 35.7347 264.649 35.5557C264.425 35.3766 264.244 35.1602 264.107 34.9062C263.974 34.6491 263.904 34.3561 263.897 34.0273H265.294C265.313 34.2292 265.366 34.4033 265.45 34.5498C265.538 34.693 265.654 34.8037 265.797 34.8818C265.94 34.96 266.108 34.999 266.3 34.999C266.479 34.999 266.632 34.9648 266.759 34.8965C266.886 34.8281 266.988 34.7337 267.066 34.6133C267.145 34.4896 267.201 34.3464 267.237 34.1836C267.276 34.0176 267.296 33.8385 267.296 33.6465C267.296 33.4544 267.273 33.2803 267.228 33.124C267.182 32.9678 267.112 32.8327 267.018 32.7188C266.923 32.6048 266.803 32.5169 266.656 32.4551C266.513 32.3932 266.345 32.3623 266.153 32.3623C265.893 32.3623 265.691 32.403 265.548 32.4844C265.408 32.5658 265.291 32.6585 265.196 32.7627ZM273.57 28.4951V36H272.164V28.4951H273.57ZM276.9 30.7168L274.605 33.334L273.375 34.5791L272.862 33.5635L273.839 32.3232L275.211 30.7168H276.9ZM275.44 36L273.878 33.5586L274.85 32.709L277.062 36H275.44ZM280.753 30.7168H282.027V35.8242C282.027 36.306 281.92 36.7145 281.705 37.0498C281.493 37.3883 281.197 37.6439 280.816 37.8164C280.436 37.9922 279.993 38.0801 279.488 38.0801C279.267 38.0801 279.033 38.0508 278.785 37.9922C278.541 37.9336 278.307 37.8424 278.082 37.7188C277.861 37.5951 277.675 37.4388 277.525 37.25L278.146 36.4199C278.308 36.6087 278.497 36.7552 278.712 36.8594C278.927 36.9668 279.164 37.0205 279.425 37.0205C279.679 37.0205 279.894 36.9733 280.069 36.8789C280.245 36.7878 280.38 36.6527 280.475 36.4736C280.569 36.2979 280.616 36.0846 280.616 35.834V31.9375L280.753 30.7168ZM277.198 33.4219V33.3193C277.198 32.9157 277.247 32.5495 277.345 32.2207C277.446 31.8887 277.587 31.6038 277.77 31.3662C277.955 31.1286 278.18 30.9447 278.443 30.8145C278.707 30.6842 279.005 30.6191 279.337 30.6191C279.688 30.6191 279.983 30.6842 280.221 30.8145C280.458 30.9447 280.654 31.1302 280.807 31.3711C280.96 31.6087 281.078 31.8903 281.163 32.2158C281.251 32.5381 281.319 32.8913 281.368 33.2754V33.5C281.319 33.8678 281.246 34.2096 281.148 34.5254C281.051 34.8411 280.922 35.1178 280.763 35.3555C280.603 35.5898 280.405 35.7721 280.167 35.9023C279.933 36.0326 279.653 36.0977 279.327 36.0977C279.002 36.0977 278.707 36.0309 278.443 35.8975C278.183 35.764 277.96 35.5768 277.774 35.3359C277.589 35.0951 277.446 34.8118 277.345 34.4863C277.247 34.1608 277.198 33.806 277.198 33.4219ZM278.604 33.3193V33.4219C278.604 33.64 278.626 33.8434 278.668 34.0322C278.71 34.221 278.775 34.3887 278.863 34.5352C278.954 34.6784 279.067 34.7907 279.2 34.8721C279.337 34.9502 279.498 34.9893 279.684 34.9893C279.941 34.9893 280.151 34.9355 280.313 34.8281C280.476 34.7174 280.598 34.5661 280.68 34.374C280.761 34.182 280.808 33.9606 280.821 33.71V33.0703C280.815 32.8652 280.787 32.6813 280.738 32.5186C280.689 32.3525 280.621 32.2109 280.533 32.0938C280.445 31.9766 280.331 31.8854 280.191 31.8203C280.051 31.7552 279.885 31.7227 279.693 31.7227C279.508 31.7227 279.347 31.765 279.21 31.8496C279.076 31.931 278.964 32.0433 278.873 32.1865C278.785 32.3298 278.718 32.499 278.673 32.6943C278.627 32.8864 278.604 33.0947 278.604 33.3193ZM285.978 34.54C285.978 34.4391 285.948 34.348 285.89 34.2666C285.831 34.1852 285.722 34.1104 285.562 34.042C285.406 33.9704 285.18 33.9053 284.884 33.8467C284.617 33.7881 284.368 33.7148 284.137 33.627C283.909 33.5358 283.71 33.4268 283.541 33.2998C283.375 33.1729 283.245 33.0231 283.15 32.8506C283.056 32.6748 283.009 32.4746 283.009 32.25C283.009 32.0286 283.056 31.8203 283.15 31.625C283.248 31.4297 283.386 31.2572 283.565 31.1074C283.748 30.9544 283.969 30.8356 284.229 30.751C284.493 30.6631 284.789 30.6191 285.118 30.6191C285.577 30.6191 285.971 30.6924 286.3 30.8389C286.632 30.9854 286.886 31.1872 287.062 31.4443C287.241 31.6982 287.33 31.988 287.33 32.3135H285.924C285.924 32.1768 285.895 32.0547 285.836 31.9473C285.781 31.8366 285.693 31.7503 285.572 31.6885C285.455 31.6234 285.302 31.5908 285.113 31.5908C284.957 31.5908 284.822 31.6185 284.708 31.6738C284.594 31.7259 284.506 31.7975 284.444 31.8887C284.386 31.9766 284.356 32.0742 284.356 32.1816C284.356 32.263 284.373 32.3363 284.405 32.4014C284.441 32.4632 284.498 32.5202 284.576 32.5723C284.654 32.6243 284.755 32.6732 284.879 32.7188C285.006 32.7611 285.162 32.8001 285.348 32.8359C285.729 32.9141 286.069 33.0166 286.368 33.1436C286.668 33.2673 286.905 33.4365 287.081 33.6514C287.257 33.863 287.345 34.1413 287.345 34.4863C287.345 34.7207 287.293 34.9355 287.188 35.1309C287.084 35.3262 286.935 35.4971 286.739 35.6436C286.544 35.7868 286.31 35.8991 286.036 35.9805C285.766 36.0586 285.462 36.0977 285.123 36.0977C284.632 36.0977 284.215 36.0098 283.873 35.834C283.535 35.6582 283.277 35.4352 283.102 35.165C282.929 34.8916 282.843 34.6117 282.843 34.3252H284.176C284.182 34.5173 284.231 34.6719 284.322 34.7891C284.417 34.9062 284.535 34.9909 284.679 35.043C284.825 35.0951 284.983 35.1211 285.152 35.1211C285.335 35.1211 285.486 35.0967 285.606 35.0479C285.727 34.9958 285.818 34.9274 285.88 34.8428C285.945 34.7549 285.978 34.654 285.978 34.54Z" fill="#333333"/>
<g clip-path="url(#clip1_0_208)">
<path fill-rule="evenodd" clip-rule="evenodd" d="M240.079 38.3333C240.058 38.7161 239.891 39.0762 239.612 39.3397C239.333 39.6032 238.965 39.75 238.581 39.75H229.419C229.036 39.75 228.667 39.6032 228.388 39.3397C228.11 39.0762 227.943 38.7161 227.921 38.3333L227.338 27.8333C227.327 27.6296 227.357 27.4258 227.427 27.2342C227.498 27.0427 227.606 26.8675 227.746 26.7193C227.886 26.5711 228.055 26.4531 228.243 26.3724C228.43 26.2917 228.632 26.25 228.836 26.25H239.165C239.369 26.25 239.57 26.2916 239.758 26.3723C239.945 26.4529 240.114 26.571 240.254 26.7192C240.395 26.8674 240.503 27.0426 240.573 27.2342C240.643 27.4257 240.674 27.6296 240.662 27.8333L240.079 38.3333ZM237.842 30.6671C238.149 30.4646 238.226 30.063 237.974 29.8016C237.546 29.3599 237.046 28.9944 236.495 28.7209C235.73 28.3414 234.889 28.1381 234.035 28.1257C233.181 28.1116 232.334 28.2887 231.556 28.644C230.996 28.9001 230.483 29.2496 230.039 29.6775C229.778 29.931 229.841 30.3345 230.141 30.5468L231.758 31.689C232.058 31.9012 232.481 31.8326 232.792 31.6346C232.872 31.5838 232.956 31.5384 233.042 31.4989C233.318 31.3726 233.617 31.3058 233.921 31.3028L235.193 29.8399C235.259 29.7648 235.351 29.7187 235.45 29.7117C235.499 29.7083 235.549 29.7145 235.595 29.7302C235.642 29.7458 235.685 29.7704 235.722 29.8028C235.76 29.8351 235.79 29.8744 235.812 29.9184C235.834 29.9625 235.847 30.0105 235.851 30.0596C235.854 30.1088 235.848 30.1581 235.832 30.2048C235.817 30.2515 235.792 30.2947 235.76 30.3319L234.773 31.4662C234.906 31.5216 235.034 31.5904 235.154 31.6718C235.457 31.8791 235.877 31.9605 236.185 31.758L237.841 30.6667L237.842 30.6671Z" fill="#FE8276"/>
</g>
</g>
</g>
</g>
<path d="M43.0059 34.084L44.7051 27.4688H45.5957L45.4961 29.1738L43.6797 36H42.7539L43.0059 34.084ZM41.7344 27.4688L43.1113 34.0312L43.2344 36H42.25L40.2754 27.4688H41.7344ZM47.5234 34.0137L48.8828 27.4688H50.3477L48.373 36H47.3887L47.5234 34.0137ZM45.9414 27.4688L47.623 34.1016L47.8691 36H46.9434L45.1562 29.1738L45.0625 27.4688H45.9414ZM53.9043 36.1172C53.4355 36.1172 53.0117 36.041 52.6328 35.8887C52.2578 35.7324 51.9375 35.5156 51.6719 35.2383C51.4102 34.9609 51.209 34.6348 51.0684 34.2598C50.9277 33.8848 50.8574 33.4805 50.8574 33.0469V32.8125C50.8574 32.3164 50.9297 31.8672 51.0742 31.4648C51.2188 31.0625 51.4199 30.7188 51.6777 30.4336C51.9355 30.1445 52.2402 29.9238 52.5918 29.7715C52.9434 29.6191 53.3242 29.543 53.7344 29.543C54.1875 29.543 54.584 29.6191 54.9238 29.7715C55.2637 29.9238 55.5449 30.1387 55.7676 30.416C55.9941 30.6895 56.1621 31.0156 56.2715 31.3945C56.3848 31.7734 56.4414 32.1914 56.4414 32.6484V33.252H51.543V32.2383H55.0469V32.127C55.0391 31.873 54.9883 31.6348 54.8945 31.4121C54.8047 31.1895 54.666 31.0098 54.4785 30.873C54.291 30.7363 54.041 30.668 53.7285 30.668C53.4941 30.668 53.2852 30.7188 53.1016 30.8203C52.9219 30.918 52.7715 31.0605 52.6504 31.248C52.5293 31.4355 52.4355 31.6621 52.3691 31.9277C52.3066 32.1895 52.2754 32.4844 52.2754 32.8125V33.0469C52.2754 33.3242 52.3125 33.582 52.3867 33.8203C52.4648 34.0547 52.5781 34.2598 52.7266 34.4355C52.875 34.6113 53.0547 34.75 53.2656 34.8516C53.4766 34.9492 53.7168 34.998 53.9863 34.998C54.3262 34.998 54.6289 34.9297 54.8945 34.793C55.1602 34.6562 55.3906 34.4629 55.5859 34.2129L56.3301 34.9336C56.1934 35.1328 56.0156 35.3242 55.7969 35.5078C55.5781 35.6875 55.3105 35.834 54.9941 35.9473C54.6816 36.0605 54.3184 36.1172 53.9043 36.1172ZM59.0547 27V36H57.6367V27H59.0547ZM62.1133 27V36H60.6953V27H62.1133ZM65.0605 31.0137V36H63.6484V29.6602H64.9785L65.0605 31.0137ZM64.8086 32.5957L64.3516 32.5898C64.3555 32.1406 64.418 31.7285 64.5391 31.3535C64.6641 30.9785 64.8359 30.6562 65.0547 30.3867C65.2773 30.1172 65.543 29.9102 65.8516 29.7656C66.1602 29.6172 66.5039 29.543 66.8828 29.543C67.1875 29.543 67.4629 29.5859 67.709 29.6719C67.959 29.7539 68.1719 29.8887 68.3477 30.0762C68.5273 30.2637 68.6641 30.5078 68.7578 30.8086C68.8516 31.1055 68.8984 31.4707 68.8984 31.9043V36H67.4805V31.8984C67.4805 31.5938 67.4355 31.3535 67.3457 31.1777C67.2598 30.998 67.1328 30.8711 66.9648 30.7969C66.8008 30.7188 66.5957 30.6797 66.3496 30.6797C66.1074 30.6797 65.8906 30.7305 65.6992 30.832C65.5078 30.9336 65.3457 31.0723 65.2129 31.248C65.084 31.4238 64.9844 31.627 64.9141 31.8574C64.8438 32.0879 64.8086 32.334 64.8086 32.5957ZM73.1348 36.1172C72.666 36.1172 72.2422 36.041 71.8633 35.8887C71.4883 35.7324 71.168 35.5156 70.9023 35.2383C70.6406 34.9609 70.4395 34.6348 70.2988 34.2598C70.1582 33.8848 70.0879 33.4805 70.0879 33.0469V32.8125C70.0879 32.3164 70.1602 31.8672 70.3047 31.4648C70.4492 31.0625 70.6504 30.7188 70.9082 30.4336C71.166 30.1445 71.4707 29.9238 71.8223 29.7715C72.1738 29.6191 72.5547 29.543 72.9648 29.543C73.418 29.543 73.8145 29.6191 74.1543 29.7715C74.4941 29.9238 74.7754 30.1387 74.998 30.416C75.2246 30.6895 75.3926 31.0156 75.502 31.3945C75.6152 31.7734 75.6719 32.1914 75.6719 32.6484V33.252H70.7734V32.2383H74.2773V32.127C74.2695 31.873 74.2188 31.6348 74.125 31.4121C74.0352 31.1895 73.8965 31.0098 73.709 30.873C73.5215 30.7363 73.2715 30.668 72.959 30.668C72.7246 30.668 72.5156 30.7188 72.332 30.8203C72.1523 30.918 72.002 31.0605 71.8809 31.248C71.7598 31.4355 71.666 31.6621 71.5996 31.9277C71.5371 32.1895 71.5059 32.4844 71.5059 32.8125V33.0469C71.5059 33.3242 71.543 33.582 71.6172 33.8203C71.6953 34.0547 71.8086 34.2598 71.957 34.4355C72.1055 34.6113 72.2852 34.75 72.4961 34.8516C72.707 34.9492 72.9473 34.998 73.2168 34.998C73.5566 34.998 73.8594 34.9297 74.125 34.793C74.3906 34.6562 74.6211 34.4629 74.8164 34.2129L75.5605 34.9336C75.4238 35.1328 75.2461 35.3242 75.0273 35.5078C74.8086 35.6875 74.541 35.834 74.2246 35.9473C73.9121 36.0605 73.5488 36.1172 73.1348 36.1172ZM80.3301 34.2832C80.3301 34.1426 80.2949 34.0156 80.2246 33.9023C80.1543 33.7852 80.0195 33.6797 79.8203 33.5859C79.625 33.4922 79.3359 33.4062 78.9531 33.3281C78.6172 33.2539 78.3086 33.166 78.0273 33.0645C77.75 32.959 77.5117 32.832 77.3125 32.6836C77.1133 32.5352 76.959 32.3594 76.8496 32.1562C76.7402 31.9531 76.6855 31.7188 76.6855 31.4531C76.6855 31.1953 76.7422 30.9512 76.8555 30.7207C76.9688 30.4902 77.1309 30.2871 77.3418 30.1113C77.5527 29.9355 77.8086 29.7969 78.1094 29.6953C78.4141 29.5938 78.7539 29.543 79.1289 29.543C79.6602 29.543 80.1152 29.6328 80.4941 29.8125C80.877 29.9883 81.1699 30.2285 81.373 30.5332C81.5762 30.834 81.6777 31.1738 81.6777 31.5527H80.2656C80.2656 31.3848 80.2227 31.2285 80.1367 31.084C80.0547 30.9355 79.9297 30.8164 79.7617 30.7266C79.5938 30.6328 79.3828 30.5859 79.1289 30.5859C78.8867 30.5859 78.6855 30.625 78.5254 30.7031C78.3691 30.7773 78.252 30.875 78.1738 30.9961C78.0996 31.1172 78.0625 31.25 78.0625 31.3945C78.0625 31.5 78.082 31.5957 78.1211 31.6816C78.1641 31.7637 78.2344 31.8398 78.332 31.9102C78.4297 31.9766 78.5625 32.0391 78.7305 32.0977C78.9023 32.1562 79.1172 32.2129 79.375 32.2676C79.8594 32.3691 80.2754 32.5 80.623 32.6602C80.9746 32.8164 81.2441 33.0195 81.4316 33.2695C81.6191 33.5156 81.7129 33.8281 81.7129 34.207C81.7129 34.4883 81.6523 34.7461 81.5312 34.9805C81.4141 35.2109 81.2422 35.4121 81.0156 35.584C80.7891 35.752 80.5176 35.8828 80.2012 35.9766C79.8887 36.0703 79.5371 36.1172 79.1465 36.1172C78.5723 36.1172 78.0859 36.0156 77.6875 35.8125C77.2891 35.6055 76.9863 35.3418 76.7793 35.0215C76.5762 34.6973 76.4746 34.3613 76.4746 34.0137H77.8398C77.8555 34.2754 77.9277 34.4844 78.0566 34.6406C78.1895 34.793 78.3535 34.9043 78.5488 34.9746C78.748 35.041 78.9531 35.0742 79.1641 35.0742C79.418 35.0742 79.6309 35.041 79.8027 34.9746C79.9746 34.9043 80.1055 34.8105 80.1953 34.6934C80.2852 34.5723 80.3301 34.4355 80.3301 34.2832ZM86.5059 34.2832C86.5059 34.1426 86.4707 34.0156 86.4004 33.9023C86.3301 33.7852 86.1953 33.6797 85.9961 33.5859C85.8008 33.4922 85.5117 33.4062 85.1289 33.3281C84.793 33.2539 84.4844 33.166 84.2031 33.0645C83.9258 32.959 83.6875 32.832 83.4883 32.6836C83.2891 32.5352 83.1348 32.3594 83.0254 32.1562C82.916 31.9531 82.8613 31.7188 82.8613 31.4531C82.8613 31.1953 82.918 30.9512 83.0312 30.7207C83.1445 30.4902 83.3066 30.2871 83.5176 30.1113C83.7285 29.9355 83.9844 29.7969 84.2852 29.6953C84.5898 29.5938 84.9297 29.543 85.3047 29.543C85.8359 29.543 86.291 29.6328 86.6699 29.8125C87.0527 29.9883 87.3457 30.2285 87.5488 30.5332C87.752 30.834 87.8535 31.1738 87.8535 31.5527H86.4414C86.4414 31.3848 86.3984 31.2285 86.3125 31.084C86.2305 30.9355 86.1055 30.8164 85.9375 30.7266C85.7695 30.6328 85.5586 30.5859 85.3047 30.5859C85.0625 30.5859 84.8613 30.625 84.7012 30.7031C84.5449 30.7773 84.4277 30.875 84.3496 30.9961C84.2754 31.1172 84.2383 31.25 84.2383 31.3945C84.2383 31.5 84.2578 31.5957 84.2969 31.6816C84.3398 31.7637 84.4102 31.8398 84.5078 31.9102C84.6055 31.9766 84.7383 32.0391 84.9062 32.0977C85.0781 32.1562 85.293 32.2129 85.5508 32.2676C86.0352 32.3691 86.4512 32.5 86.7988 32.6602C87.1504 32.8164 87.4199 33.0195 87.6074 33.2695C87.7949 33.5156 87.8887 33.8281 87.8887 34.207C87.8887 34.4883 87.8281 34.7461 87.707 34.9805C87.5898 35.2109 87.418 35.4121 87.1914 35.584C86.9648 35.752 86.6934 35.8828 86.377 35.9766C86.0645 36.0703 85.7129 36.1172 85.3223 36.1172C84.748 36.1172 84.2617 36.0156 83.8633 35.8125C83.4648 35.6055 83.1621 35.3418 82.9551 35.0215C82.752 34.6973 82.6504 34.3613 82.6504 34.0137H84.0156C84.0312 34.2754 84.1035 34.4844 84.2324 34.6406C84.3652 34.793 84.5293 34.9043 84.7246 34.9746C84.9238 35.041 85.1289 35.0742 85.3398 35.0742C85.5938 35.0742 85.8066 35.041 85.9785 34.9746C86.1504 34.9043 86.2812 34.8105 86.3711 34.6934C86.4609 34.5723 86.5059 34.4355 86.5059 34.2832ZM99.0566 31.5V31.9688C99.0566 32.6133 98.9727 33.1914 98.8047 33.7031C98.6367 34.2148 98.3965 34.6504 98.084 35.0098C97.7754 35.3691 97.4043 35.6445 96.9707 35.8359C96.5371 36.0234 96.0566 36.1172 95.5293 36.1172C95.0059 36.1172 94.5273 36.0234 94.0938 35.8359C93.6641 35.6445 93.291 35.3691 92.9746 35.0098C92.6582 34.6504 92.4121 34.2148 92.2363 33.7031C92.0645 33.1914 91.9785 32.6133 91.9785 31.9688V31.5C91.9785 30.8555 92.0645 30.2793 92.2363 29.7715C92.4082 29.2598 92.6504 28.8242 92.9629 28.4648C93.2793 28.1016 93.6523 27.8262 94.082 27.6387C94.5156 27.4473 94.9941 27.3516 95.5176 27.3516C96.0449 27.3516 96.5254 27.4473 96.959 27.6387C97.3926 27.8262 97.7656 28.1016 98.0781 28.4648C98.3906 28.8242 98.6309 29.2598 98.7988 29.7715C98.9707 30.2793 99.0566 30.8555 99.0566 31.5ZM97.5859 31.9688V31.4883C97.5859 31.0117 97.5391 30.5918 97.4453 30.2285C97.3555 29.8613 97.2207 29.5547 97.041 29.3086C96.8652 29.0586 96.6484 28.8711 96.3906 28.7461C96.1328 28.6172 95.8418 28.5527 95.5176 28.5527C95.1934 28.5527 94.9043 28.6172 94.6504 28.7461C94.3965 28.8711 94.1797 29.0586 94 29.3086C93.8242 29.5547 93.6895 29.8613 93.5957 30.2285C93.502 30.5918 93.4551 31.0117 93.4551 31.4883V31.9688C93.4551 32.4453 93.502 32.8672 93.5957 33.2344C93.6895 33.6016 93.8262 33.9121 94.0059 34.166C94.1895 34.416 94.4082 34.6055 94.6621 34.7344C94.916 34.8594 95.2051 34.9219 95.5293 34.9219C95.8574 34.9219 96.1484 34.8594 96.4023 34.7344C96.6562 34.6055 96.8711 34.416 97.0469 34.166C97.2227 33.9121 97.3555 33.6016 97.4453 33.2344C97.5391 32.8672 97.5859 32.4453 97.5859 31.9688ZM102.449 34.8809L104.002 29.6602H105.467L103.264 36H102.35L102.449 34.8809ZM101.26 29.6602L102.842 34.9043L102.918 36H102.004L99.7891 29.6602H101.26ZM109.053 36.1172C108.584 36.1172 108.16 36.041 107.781 35.8887C107.406 35.7324 107.086 35.5156 106.82 35.2383C106.559 34.9609 106.357 34.6348 106.217 34.2598C106.076 33.8848 106.006 33.4805 106.006 33.0469V32.8125C106.006 32.3164 106.078 31.8672 106.223 31.4648C106.367 31.0625 106.568 30.7188 106.826 30.4336C107.084 30.1445 107.389 29.9238 107.74 29.7715C108.092 29.6191 108.473 29.543 108.883 29.543C109.336 29.543 109.732 29.6191 110.072 29.7715C110.412 29.9238 110.693 30.1387 110.916 30.416C111.143 30.6895 111.311 31.0156 111.42 31.3945C111.533 31.7734 111.59 32.1914 111.59 32.6484V33.252H106.691V32.2383H110.195V32.127C110.188 31.873 110.137 31.6348 110.043 31.4121C109.953 31.1895 109.814 31.0098 109.627 30.873C109.439 30.7363 109.189 30.668 108.877 30.668C108.643 30.668 108.434 30.7188 108.25 30.8203C108.07 30.918 107.92 31.0605 107.799 31.248C107.678 31.4355 107.584 31.6621 107.518 31.9277C107.455 32.1895 107.424 32.4844 107.424 32.8125V33.0469C107.424 33.3242 107.461 33.582 107.535 33.8203C107.613 34.0547 107.727 34.2598 107.875 34.4355C108.023 34.6113 108.203 34.75 108.414 34.8516C108.625 34.9492 108.865 34.998 109.135 34.998C109.475 34.998 109.777 34.9297 110.043 34.793C110.309 34.6562 110.539 34.4629 110.734 34.2129L111.479 34.9336C111.342 35.1328 111.164 35.3242 110.945 35.5078C110.727 35.6875 110.459 35.834 110.143 35.9473C109.83 36.0605 109.467 36.1172 109.053 36.1172ZM114.109 30.8672V36H112.697V29.6602H114.045L114.109 30.8672ZM116.049 29.6191L116.037 30.9316C115.951 30.916 115.857 30.9043 115.756 30.8965C115.658 30.8887 115.561 30.8848 115.463 30.8848C115.221 30.8848 115.008 30.9199 114.824 30.9902C114.641 31.0566 114.486 31.1543 114.361 31.2832C114.24 31.4082 114.146 31.5605 114.08 31.7402C114.014 31.9199 113.975 32.1211 113.963 32.3438L113.641 32.3672C113.641 31.9688 113.68 31.5996 113.758 31.2598C113.836 30.9199 113.953 30.6211 114.109 30.3633C114.27 30.1055 114.469 29.9043 114.707 29.7598C114.949 29.6152 115.229 29.543 115.545 29.543C115.631 29.543 115.723 29.5508 115.82 29.5664C115.922 29.582 115.998 29.5996 116.049 29.6191ZM119.102 34.8809L120.654 29.6602H122.119L119.916 36H119.002L119.102 34.8809ZM117.912 29.6602L119.494 34.9043L119.57 36H118.656L116.441 29.6602H117.912ZM124.504 29.6602V36H123.086V29.6602H124.504ZM122.992 27.9961C122.992 27.7812 123.062 27.6035 123.203 27.4629C123.348 27.3184 123.547 27.2461 123.801 27.2461C124.051 27.2461 124.248 27.3184 124.393 27.4629C124.537 27.6035 124.609 27.7812 124.609 27.9961C124.609 28.207 124.537 28.3828 124.393 28.5234C124.248 28.6641 124.051 28.7344 123.801 28.7344C123.547 28.7344 123.348 28.6641 123.203 28.5234C123.062 28.3828 122.992 28.207 122.992 27.9961ZM128.846 36.1172C128.377 36.1172 127.953 36.041 127.574 35.8887C127.199 35.7324 126.879 35.5156 126.613 35.2383C126.352 34.9609 126.15 34.6348 126.01 34.2598C125.869 33.8848 125.799 33.4805 125.799 33.0469V32.8125C125.799 32.3164 125.871 31.8672 126.016 31.4648C126.16 31.0625 126.361 30.7188 126.619 30.4336C126.877 30.1445 127.182 29.9238 127.533 29.7715C127.885 29.6191 128.266 29.543 128.676 29.543C129.129 29.543 129.525 29.6191 129.865 29.7715C130.205 29.9238 130.486 30.1387 130.709 30.416C130.936 30.6895 131.104 31.0156 131.213 31.3945C131.326 31.7734 131.383 32.1914 131.383 32.6484V33.252H126.484V32.2383H129.988V32.127C129.98 31.873 129.93 31.6348 129.836 31.4121C129.746 31.1895 129.607 31.0098 129.42 30.873C129.232 30.7363 128.982 30.668 128.67 30.668C128.436 30.668 128.227 30.7188 128.043 30.8203C127.863 30.918 127.713 31.0605 127.592 31.248C127.471 31.4355 127.377 31.6621 127.311 31.9277C127.248 32.1895 127.217 32.4844 127.217 32.8125V33.0469C127.217 33.3242 127.254 33.582 127.328 33.8203C127.406 34.0547 127.52 34.2598 127.668 34.4355C127.816 34.6113 127.996 34.75 128.207 34.8516C128.418 34.9492 128.658 34.998 128.928 34.998C129.268 34.998 129.57 34.9297 129.836 34.793C130.102 34.6562 130.332 34.4629 130.527 34.2129L131.271 34.9336C131.135 35.1328 130.957 35.3242 130.738 35.5078C130.52 35.6875 130.252 35.834 129.936 35.9473C129.623 36.0605 129.26 36.1172 128.846 36.1172ZM134.207 34.5938L135.672 29.6602H136.574L136.328 31.1367L134.852 36H134.043L134.207 34.5938ZM133.346 29.6602L134.488 34.6172L134.582 36H133.68L131.963 29.6602H133.346ZM137.945 34.5586L139.053 29.6602H140.43L138.719 36H137.816L137.945 34.5586ZM136.727 29.6602L138.174 34.5352L138.355 36H137.547L136.053 31.1309L135.807 29.6602H136.727ZM141.408 35.2969C141.408 35.0781 141.482 34.8945 141.631 34.7461C141.779 34.5938 141.98 34.5176 142.234 34.5176C142.492 34.5176 142.693 34.5938 142.838 34.7461C142.986 34.8945 143.061 35.0781 143.061 35.2969C143.061 35.5156 142.986 35.6992 142.838 35.8477C142.693 35.9961 142.492 36.0703 142.234 36.0703C141.98 36.0703 141.779 35.9961 141.631 35.8477C141.482 35.6992 141.408 35.5156 141.408 35.2969ZM141.414 30.3047C141.414 30.0859 141.488 29.9023 141.637 29.7539C141.785 29.6016 141.986 29.5254 142.24 29.5254C142.498 29.5254 142.699 29.6016 142.844 29.7539C142.992 29.9023 143.066 30.0859 143.066 30.3047C143.066 30.5234 142.992 30.707 142.844 30.8555C142.699 31.0039 142.498 31.0781 142.24 31.0781C141.986 31.0781 141.785 31.0039 141.637 30.8555C141.488 30.707 141.414 30.5234 141.414 30.3047Z" fill="#333333"/>
<path d="M84.7383 74.8633V78.6133H64.2305L64.0742 75.7812L76.3398 56.5625H80.1094L76.0273 63.5547L68.9766 74.8633H84.7383ZM81.1836 56.5625V85H76.4766V56.5625H81.1836ZM106.809 68.3984V73.0469C106.809 75.2734 106.587 77.1745 106.145 78.75C105.715 80.3125 105.09 81.582 104.27 82.5586C103.449 83.5352 102.466 84.2513 101.32 84.707C100.188 85.1628 98.918 85.3906 97.5117 85.3906C96.3919 85.3906 95.3503 85.2474 94.3867 84.9609C93.4362 84.6745 92.5768 84.2253 91.8086 83.6133C91.0404 83.0013 90.3828 82.2135 89.8359 81.25C89.3021 80.2734 88.8854 79.1081 88.5859 77.7539C88.2995 76.3997 88.1562 74.8307 88.1562 73.0469V68.3984C88.1562 66.1589 88.3776 64.2708 88.8203 62.7344C89.263 61.1849 89.8945 59.9284 90.7148 58.9648C91.5352 57.9883 92.5117 57.2786 93.6445 56.8359C94.7904 56.3932 96.0664 56.1719 97.4727 56.1719C98.6055 56.1719 99.6471 56.3151 100.598 56.6016C101.561 56.875 102.421 57.3112 103.176 57.9102C103.944 58.5091 104.595 59.2904 105.129 60.2539C105.676 61.2044 106.092 62.3568 106.379 63.7109C106.665 65.0521 106.809 66.6146 106.809 68.3984ZM102.102 73.7109V67.6953C102.102 66.5625 102.036 65.5664 101.906 64.707C101.776 63.8346 101.581 63.099 101.32 62.5C101.073 61.888 100.76 61.3932 100.383 61.0156C100.005 60.625 99.5755 60.3451 99.0938 60.1758C98.612 59.9935 98.0716 59.9023 97.4727 59.9023C96.7435 59.9023 96.0924 60.0456 95.5195 60.332C94.9466 60.6055 94.4648 61.0482 94.0742 61.6602C93.6836 62.2721 93.3841 63.0794 93.1758 64.082C92.9805 65.0716 92.8828 66.276 92.8828 67.6953V73.7109C92.8828 74.8568 92.9479 75.8659 93.0781 76.7383C93.2083 77.6107 93.4036 78.3594 93.6641 78.9844C93.9245 79.5964 94.237 80.1042 94.6016 80.5078C94.9792 80.8984 95.4089 81.1849 95.8906 81.3672C96.3854 81.5495 96.9258 81.6406 97.5117 81.6406C98.2539 81.6406 98.9115 81.4974 99.4844 81.2109C100.057 80.9245 100.539 80.4688 100.93 79.8438C101.32 79.2057 101.613 78.3789 101.809 77.3633C102.004 76.3477 102.102 75.1302 102.102 73.7109Z" fill="#333333"/>
<g filter="url(#filter4_d_0_208)">
<rect x="116" y="61" width="55" height="17" rx="8.5" fill="white"/>
<path d="M128.039 68.9766V69.3359C128.039 69.763 127.986 70.1458 127.879 70.4844C127.772 70.8229 127.618 71.1107 127.418 71.3477C127.217 71.5846 126.977 71.7656 126.695 71.8906C126.417 72.0156 126.104 72.0781 125.758 72.0781C125.422 72.0781 125.113 72.0156 124.832 71.8906C124.553 71.7656 124.311 71.5846 124.105 71.3477C123.902 71.1107 123.745 70.8229 123.633 70.4844C123.521 70.1458 123.465 69.763 123.465 69.3359V68.9766C123.465 68.5495 123.52 68.168 123.629 67.832C123.741 67.4935 123.898 67.2057 124.102 66.9688C124.305 66.7292 124.546 66.5469 124.824 66.4219C125.105 66.2969 125.414 66.2344 125.75 66.2344C126.096 66.2344 126.409 66.2969 126.688 66.4219C126.969 66.5469 127.21 66.7292 127.41 66.9688C127.613 67.2057 127.768 67.4935 127.875 67.832C127.984 68.168 128.039 68.5495 128.039 68.9766ZM127.293 69.3359V68.9688C127.293 68.6302 127.258 68.3307 127.188 68.0703C127.12 67.8099 127.02 67.5911 126.887 67.4141C126.754 67.237 126.591 67.1029 126.398 67.0117C126.208 66.9206 125.992 66.875 125.75 66.875C125.516 66.875 125.303 66.9206 125.113 67.0117C124.926 67.1029 124.764 67.237 124.629 67.4141C124.496 67.5911 124.393 67.8099 124.32 68.0703C124.247 68.3307 124.211 68.6302 124.211 68.9688V69.3359C124.211 69.6771 124.247 69.9792 124.32 70.2422C124.393 70.5026 124.497 70.7227 124.633 70.9023C124.771 71.0794 124.934 71.2135 125.121 71.3047C125.311 71.3958 125.523 71.4414 125.758 71.4414C126.003 71.4414 126.22 71.3958 126.41 71.3047C126.6 71.2135 126.76 71.0794 126.891 70.9023C127.023 70.7227 127.124 70.5026 127.191 70.2422C127.259 69.9792 127.293 69.6771 127.293 69.3359ZM130.344 71.3477L131.5 67.7734H132.238L130.719 72H130.234L130.344 71.3477ZM129.379 67.7734L130.57 71.3672L130.652 72H130.168L128.637 67.7734H129.379ZM134.633 72.0781C134.339 72.0781 134.072 72.0286 133.832 71.9297C133.595 71.8281 133.391 71.6862 133.219 71.5039C133.049 71.3216 132.919 71.1055 132.828 70.8555C132.737 70.6055 132.691 70.332 132.691 70.0352V69.8711C132.691 69.5273 132.742 69.2214 132.844 68.9531C132.945 68.6823 133.083 68.4531 133.258 68.2656C133.432 68.0781 133.63 67.9362 133.852 67.8398C134.073 67.7435 134.302 67.6953 134.539 67.6953C134.841 67.6953 135.102 67.7474 135.32 67.8516C135.542 67.9557 135.723 68.1016 135.863 68.2891C136.004 68.474 136.108 68.6927 136.176 68.9453C136.243 69.1953 136.277 69.4688 136.277 69.7656V70.0898H133.121V69.5H135.555V69.4453C135.544 69.2578 135.505 69.0755 135.438 68.8984C135.372 68.7214 135.268 68.5755 135.125 68.4609C134.982 68.3464 134.786 68.2891 134.539 68.2891C134.375 68.2891 134.224 68.3242 134.086 68.3945C133.948 68.4622 133.829 68.5638 133.73 68.6992C133.632 68.8346 133.555 69 133.5 69.1953C133.445 69.3906 133.418 69.6159 133.418 69.8711V70.0352C133.418 70.2357 133.445 70.4245 133.5 70.6016C133.557 70.776 133.639 70.9297 133.746 71.0625C133.855 71.1953 133.987 71.2995 134.141 71.375C134.297 71.4505 134.474 71.4883 134.672 71.4883C134.927 71.4883 135.143 71.4362 135.32 71.332C135.497 71.2279 135.652 71.0885 135.785 70.9141L136.223 71.2617C136.132 71.3997 136.016 71.5312 135.875 71.6562C135.734 71.7812 135.561 71.8828 135.355 71.9609C135.152 72.0391 134.911 72.0781 134.633 72.0781ZM137.844 68.4375V72H137.121V67.7734H137.824L137.844 68.4375ZM139.164 67.75L139.16 68.4219C139.1 68.4089 139.043 68.401 138.988 68.3984C138.936 68.3932 138.876 68.3906 138.809 68.3906C138.642 68.3906 138.495 68.4167 138.367 68.4688C138.24 68.5208 138.132 68.5938 138.043 68.6875C137.954 68.7812 137.884 68.8932 137.832 69.0234C137.783 69.151 137.75 69.2917 137.734 69.4453L137.531 69.5625C137.531 69.3073 137.556 69.0677 137.605 68.8438C137.658 68.6198 137.737 68.4219 137.844 68.25C137.951 68.0755 138.086 67.9401 138.25 67.8438C138.417 67.7448 138.615 67.6953 138.844 67.6953C138.896 67.6953 138.956 67.7018 139.023 67.7148C139.091 67.7253 139.138 67.737 139.164 67.75ZM140.973 71.25L142.059 67.7734H142.535L142.441 68.4648L141.336 72H140.871L140.973 71.25ZM140.242 67.7734L141.168 71.2891L141.234 72H140.746L139.52 67.7734H140.242ZM143.574 71.2617L144.457 67.7734H145.176L143.949 72H143.465L143.574 71.2617ZM142.641 67.7734L143.703 71.1914L143.824 72H143.363L142.227 68.457L142.133 67.7734H142.641ZM147.672 72.0781C147.378 72.0781 147.111 72.0286 146.871 71.9297C146.634 71.8281 146.43 71.6862 146.258 71.5039C146.089 71.3216 145.958 71.1055 145.867 70.8555C145.776 70.6055 145.73 70.332 145.73 70.0352V69.8711C145.73 69.5273 145.781 69.2214 145.883 68.9531C145.984 68.6823 146.122 68.4531 146.297 68.2656C146.471 68.0781 146.669 67.9362 146.891 67.8398C147.112 67.7435 147.341 67.6953 147.578 67.6953C147.88 67.6953 148.141 67.7474 148.359 67.8516C148.581 67.9557 148.762 68.1016 148.902 68.2891C149.043 68.474 149.147 68.6927 149.215 68.9453C149.283 69.1953 149.316 69.4688 149.316 69.7656V70.0898H146.16V69.5H148.594V69.4453C148.583 69.2578 148.544 69.0755 148.477 68.8984C148.411 68.7214 148.307 68.5755 148.164 68.4609C148.021 68.3464 147.826 68.2891 147.578 68.2891C147.414 68.2891 147.263 68.3242 147.125 68.3945C146.987 68.4622 146.868 68.5638 146.77 68.6992C146.671 68.8346 146.594 69 146.539 69.1953C146.484 69.3906 146.457 69.6159 146.457 69.8711V70.0352C146.457 70.2357 146.484 70.4245 146.539 70.6016C146.596 70.776 146.678 70.9297 146.785 71.0625C146.895 71.1953 147.026 71.2995 147.18 71.375C147.336 71.4505 147.513 71.4883 147.711 71.4883C147.966 71.4883 148.182 71.4362 148.359 71.332C148.536 71.2279 148.691 71.0885 148.824 70.9141L149.262 71.2617C149.171 71.3997 149.055 71.5312 148.914 71.6562C148.773 71.7812 148.6 71.8828 148.395 71.9609C148.191 72.0391 147.951 72.0781 147.672 72.0781ZM150.945 67.7734V72H150.219V67.7734H150.945ZM150.164 66.6523C150.164 66.5352 150.199 66.4362 150.27 66.3555C150.342 66.2747 150.449 66.2344 150.59 66.2344C150.728 66.2344 150.833 66.2747 150.906 66.3555C150.982 66.4362 151.02 66.5352 151.02 66.6523C151.02 66.7643 150.982 66.8607 150.906 66.9414C150.833 67.0195 150.728 67.0586 150.59 67.0586C150.449 67.0586 150.342 67.0195 150.27 66.9414C150.199 66.8607 150.164 66.7643 150.164 66.6523ZM154.844 67.7734H155.5V71.9102C155.5 72.2826 155.424 72.6003 155.273 72.8633C155.122 73.1263 154.911 73.3255 154.641 73.4609C154.372 73.599 154.062 73.668 153.711 73.668C153.565 73.668 153.393 73.6445 153.195 73.5977C153 73.5534 152.807 73.4766 152.617 73.3672C152.43 73.2604 152.272 73.1159 152.145 72.9336L152.523 72.5039C152.701 72.7174 152.885 72.8659 153.078 72.9492C153.273 73.0326 153.466 73.0742 153.656 73.0742C153.885 73.0742 154.083 73.0312 154.25 72.9453C154.417 72.8594 154.546 72.7318 154.637 72.5625C154.73 72.3958 154.777 72.1901 154.777 71.9453V68.7031L154.844 67.7734ZM151.934 69.9336V69.8516C151.934 69.5286 151.971 69.2357 152.047 68.9727C152.125 68.707 152.236 68.4792 152.379 68.2891C152.525 68.099 152.701 67.9531 152.906 67.8516C153.112 67.7474 153.344 67.6953 153.602 67.6953C153.867 67.6953 154.099 67.7422 154.297 67.8359C154.497 67.9271 154.667 68.0612 154.805 68.2383C154.945 68.4128 155.056 68.6237 155.137 68.8711C155.217 69.1185 155.273 69.3984 155.305 69.7109V70.0703C155.276 70.3802 155.22 70.6589 155.137 70.9062C155.056 71.1536 154.945 71.3646 154.805 71.5391C154.667 71.7135 154.497 71.8477 154.297 71.9414C154.096 72.0326 153.862 72.0781 153.594 72.0781C153.341 72.0781 153.112 72.0247 152.906 71.918C152.703 71.8112 152.529 71.6615 152.383 71.4688C152.237 71.276 152.125 71.0495 152.047 70.7891C151.971 70.526 151.934 70.2409 151.934 69.9336ZM152.656 69.8516V69.9336C152.656 70.1445 152.677 70.3424 152.719 70.5273C152.763 70.7122 152.829 70.875 152.918 71.0156C153.009 71.1562 153.125 71.2669 153.266 71.3477C153.406 71.4258 153.574 71.4648 153.77 71.4648C154.009 71.4648 154.207 71.4141 154.363 71.3125C154.52 71.2109 154.643 71.0768 154.734 70.9102C154.828 70.7435 154.901 70.5625 154.953 70.3672V69.4258C154.924 69.2826 154.88 69.1445 154.82 69.0117C154.763 68.8763 154.688 68.7565 154.594 68.6523C154.503 68.5456 154.389 68.4609 154.254 68.3984C154.118 68.3359 153.96 68.3047 153.777 68.3047C153.579 68.3047 153.409 68.3464 153.266 68.4297C153.125 68.5104 153.009 68.6224 152.918 68.7656C152.829 68.9062 152.763 69.0703 152.719 69.2578C152.677 69.4427 152.656 69.6406 152.656 69.8516ZM157.32 66V72H156.598V66H157.32ZM157.148 69.7266L156.848 69.7148C156.85 69.4258 156.893 69.1589 156.977 68.9141C157.06 68.6667 157.177 68.4518 157.328 68.2695C157.479 68.0872 157.659 67.9466 157.867 67.8477C158.078 67.7461 158.311 67.6953 158.566 67.6953C158.775 67.6953 158.962 67.724 159.129 67.7812C159.296 67.8359 159.438 67.9245 159.555 68.0469C159.674 68.1693 159.766 68.3281 159.828 68.5234C159.891 68.7161 159.922 68.9518 159.922 69.2305V72H159.195V69.2227C159.195 69.0013 159.163 68.8242 159.098 68.6914C159.033 68.556 158.938 68.4583 158.812 68.3984C158.688 68.3359 158.534 68.3047 158.352 68.3047C158.172 68.3047 158.008 68.3424 157.859 68.418C157.714 68.4935 157.587 68.5977 157.48 68.7305C157.376 68.8633 157.294 69.0156 157.234 69.1875C157.177 69.3568 157.148 69.5365 157.148 69.7266ZM162.773 67.7734V68.3281H160.488V67.7734H162.773ZM161.262 66.7461H161.984V70.9531C161.984 71.0964 162.007 71.2044 162.051 71.2773C162.095 71.3503 162.152 71.3984 162.223 71.4219C162.293 71.4453 162.368 71.457 162.449 71.457C162.509 71.457 162.572 71.4518 162.637 71.4414C162.704 71.4284 162.755 71.418 162.789 71.4102L162.793 72C162.736 72.0182 162.66 72.0352 162.566 72.0508C162.475 72.069 162.365 72.0781 162.234 72.0781C162.057 72.0781 161.895 72.043 161.746 71.9727C161.598 71.9023 161.479 71.7852 161.391 71.6211C161.305 71.4544 161.262 71.2305 161.262 70.9492V66.7461Z" fill="#FA725F"/>
</g>
<path d="M49.1523 95.8906L50.998 99.46L52.8486 95.8906H53.918L51.4668 100.344V103H50.5244V100.344L48.0732 95.8906H49.1523ZM54.1328 100.417V100.305C54.1328 99.9238 54.1882 99.5706 54.2988 99.2451C54.4095 98.9163 54.569 98.6315 54.7773 98.3906C54.9857 98.1465 55.238 97.9577 55.5342 97.8242C55.8304 97.6875 56.1624 97.6191 56.5303 97.6191C56.9014 97.6191 57.235 97.6875 57.5312 97.8242C57.8307 97.9577 58.0846 98.1465 58.293 98.3906C58.5046 98.6315 58.6657 98.9163 58.7764 99.2451C58.887 99.5706 58.9424 99.9238 58.9424 100.305V100.417C58.9424 100.798 58.887 101.151 58.7764 101.477C58.6657 101.802 58.5046 102.087 58.293 102.331C58.0846 102.572 57.8324 102.761 57.5361 102.897C57.2432 103.031 56.9111 103.098 56.54 103.098C56.1689 103.098 55.8353 103.031 55.5391 102.897C55.2428 102.761 54.9889 102.572 54.7773 102.331C54.569 102.087 54.4095 101.802 54.2988 101.477C54.1882 101.151 54.1328 100.798 54.1328 100.417ZM55.0361 100.305V100.417C55.0361 100.681 55.0671 100.93 55.1289 101.164C55.1908 101.395 55.2835 101.6 55.4072 101.779C55.5342 101.958 55.6921 102.1 55.8809 102.204C56.0697 102.305 56.2894 102.355 56.54 102.355C56.7874 102.355 57.0039 102.305 57.1895 102.204C57.3783 102.1 57.5345 101.958 57.6582 101.779C57.7819 101.6 57.8747 101.395 57.9365 101.164C58.0016 100.93 58.0342 100.681 58.0342 100.417V100.305C58.0342 100.044 58.0016 99.7985 57.9365 99.5674C57.8747 99.333 57.7803 99.1263 57.6533 98.9473C57.5296 98.765 57.3734 98.6217 57.1846 98.5176C56.999 98.4134 56.7809 98.3613 56.5303 98.3613C56.2829 98.3613 56.0648 98.4134 55.876 98.5176C55.6904 98.6217 55.5342 98.765 55.4072 98.9473C55.2835 99.1263 55.1908 99.333 55.1289 99.5674C55.0671 99.7985 55.0361 100.044 55.0361 100.305ZM63.3076 101.779V97.7168H64.2158V103H63.3516L63.3076 101.779ZM63.4785 100.666L63.8545 100.656C63.8545 101.008 63.8171 101.333 63.7422 101.633C63.6706 101.929 63.5534 102.186 63.3906 102.404C63.2279 102.622 63.0146 102.793 62.751 102.917C62.4873 103.037 62.1667 103.098 61.7891 103.098C61.5319 103.098 61.2959 103.06 61.0811 102.985C60.8695 102.91 60.6872 102.795 60.5342 102.639C60.3812 102.482 60.2624 102.279 60.1777 102.028C60.0964 101.778 60.0557 101.477 60.0557 101.125V97.7168H60.959V101.135C60.959 101.372 60.985 101.569 61.0371 101.726C61.0924 101.879 61.1657 102.001 61.2568 102.092C61.3512 102.18 61.4554 102.242 61.5693 102.277C61.6865 102.313 61.807 102.331 61.9307 102.331C62.3148 102.331 62.6191 102.258 62.8438 102.111C63.0684 101.962 63.2295 101.761 63.3271 101.511C63.4281 101.257 63.4785 100.975 63.4785 100.666ZM66.4961 98.5469V103H65.5928V97.7168H66.4717L66.4961 98.5469ZM68.1465 97.6875L68.1416 98.5273C68.0667 98.5111 67.9951 98.5013 67.9268 98.498C67.8617 98.4915 67.7868 98.4883 67.7021 98.4883C67.4938 98.4883 67.3099 98.5208 67.1504 98.5859C66.9909 98.651 66.8558 98.7422 66.7451 98.8594C66.6344 98.9766 66.5465 99.1165 66.4814 99.2793C66.4196 99.4388 66.3789 99.6146 66.3594 99.8066L66.1055 99.9531C66.1055 99.6341 66.1364 99.3346 66.1982 99.0547C66.2633 98.7747 66.3626 98.5273 66.4961 98.3125C66.6296 98.0944 66.7988 97.9251 67.0039 97.8047C67.2122 97.681 67.4596 97.6191 67.7461 97.6191C67.8112 97.6191 67.8861 97.6273 67.9707 97.6436C68.0553 97.6566 68.1139 97.6712 68.1465 97.6875ZM73.5762 102.355C73.791 102.355 73.9896 102.312 74.1719 102.224C74.3542 102.136 74.5039 102.015 74.6211 101.862C74.7383 101.706 74.805 101.529 74.8213 101.33H75.6807C75.6644 101.643 75.5586 101.934 75.3633 102.204C75.1712 102.471 74.9189 102.688 74.6064 102.854C74.2939 103.016 73.9505 103.098 73.5762 103.098C73.179 103.098 72.8324 103.028 72.5361 102.888C72.2432 102.748 71.999 102.556 71.8037 102.312C71.6117 102.067 71.4668 101.787 71.3691 101.472C71.2747 101.153 71.2275 100.816 71.2275 100.461V100.256C71.2275 99.901 71.2747 99.5658 71.3691 99.25C71.4668 98.931 71.6117 98.6494 71.8037 98.4053C71.999 98.1611 72.2432 97.9691 72.5361 97.8291C72.8324 97.6891 73.179 97.6191 73.5762 97.6191C73.9896 97.6191 74.3509 97.7038 74.6602 97.873C74.9694 98.0391 75.2119 98.2669 75.3877 98.5566C75.5667 98.8431 75.6644 99.1686 75.6807 99.5332H74.8213C74.805 99.3151 74.7432 99.1182 74.6357 98.9424C74.5316 98.7666 74.3883 98.6266 74.2061 98.5225C74.027 98.415 73.8171 98.3613 73.5762 98.3613C73.2995 98.3613 73.0667 98.4167 72.8779 98.5273C72.6924 98.6348 72.5443 98.7812 72.4336 98.9668C72.3262 99.1491 72.248 99.3525 72.1992 99.5771C72.1536 99.7985 72.1309 100.025 72.1309 100.256V100.461C72.1309 100.692 72.1536 100.92 72.1992 101.145C72.2448 101.369 72.3213 101.573 72.4287 101.755C72.5394 101.937 72.6875 102.084 72.873 102.194C73.0618 102.302 73.2962 102.355 73.5762 102.355ZM79.9287 101.779V97.7168H80.8369V103H79.9727L79.9287 101.779ZM80.0996 100.666L80.4756 100.656C80.4756 101.008 80.4382 101.333 80.3633 101.633C80.2917 101.929 80.1745 102.186 80.0117 102.404C79.849 102.622 79.6357 102.793 79.3721 102.917C79.1084 103.037 78.7878 103.098 78.4102 103.098C78.153 103.098 77.917 103.06 77.7021 102.985C77.4906 102.91 77.3083 102.795 77.1553 102.639C77.0023 102.482 76.8835 102.279 76.7988 102.028C76.7174 101.778 76.6768 101.477 76.6768 101.125V97.7168H77.5801V101.135C77.5801 101.372 77.6061 101.569 77.6582 101.726C77.7135 101.879 77.7868 102.001 77.8779 102.092C77.9723 102.18 78.0765 102.242 78.1904 102.277C78.3076 102.313 78.4281 102.331 78.5518 102.331C78.9359 102.331 79.2402 102.258 79.4648 102.111C79.6895 101.962 79.8506 101.761 79.9482 101.511C80.0492 101.257 80.0996 100.975 80.0996 100.666ZM83.1172 98.5469V103H82.2139V97.7168H83.0928L83.1172 98.5469ZM84.7676 97.6875L84.7627 98.5273C84.6878 98.5111 84.6162 98.5013 84.5479 98.498C84.4827 98.4915 84.4079 98.4883 84.3232 98.4883C84.1149 98.4883 83.931 98.5208 83.7715 98.5859C83.612 98.651 83.4769 98.7422 83.3662 98.8594C83.2555 98.9766 83.1676 99.1165 83.1025 99.2793C83.0407 99.4388 83 99.6146 82.9805 99.8066L82.7266 99.9531C82.7266 99.6341 82.7575 99.3346 82.8193 99.0547C82.8844 98.7747 82.9837 98.5273 83.1172 98.3125C83.2507 98.0944 83.4199 97.9251 83.625 97.8047C83.8333 97.681 84.0807 97.6191 84.3672 97.6191C84.4323 97.6191 84.5072 97.6273 84.5918 97.6436C84.6764 97.6566 84.735 97.6712 84.7676 97.6875ZM86.5059 98.5469V103H85.6025V97.7168H86.4814L86.5059 98.5469ZM88.1562 97.6875L88.1514 98.5273C88.0765 98.5111 88.0049 98.5013 87.9365 98.498C87.8714 98.4915 87.7965 98.4883 87.7119 98.4883C87.5036 98.4883 87.3197 98.5208 87.1602 98.5859C87.0007 98.651 86.8656 98.7422 86.7549 98.8594C86.6442 98.9766 86.5563 99.1165 86.4912 99.2793C86.4294 99.4388 86.3887 99.6146 86.3691 99.8066L86.1152 99.9531C86.1152 99.6341 86.1462 99.3346 86.208 99.0547C86.2731 98.7747 86.3724 98.5273 86.5059 98.3125C86.6393 98.0944 86.8086 97.9251 87.0137 97.8047C87.222 97.681 87.4694 97.6191 87.7559 97.6191C87.821 97.6191 87.8958 97.6273 87.9805 97.6436C88.0651 97.6566 88.1237 97.6712 88.1562 97.6875ZM91.0859 103.098C90.7181 103.098 90.3844 103.036 90.085 102.912C89.7887 102.785 89.5332 102.608 89.3184 102.38C89.1068 102.152 88.944 101.882 88.8301 101.569C88.7161 101.257 88.6592 100.915 88.6592 100.544V100.339C88.6592 99.9092 88.7227 99.5267 88.8496 99.1914C88.9766 98.8529 89.1491 98.5664 89.3672 98.332C89.5853 98.0977 89.8327 97.9202 90.1094 97.7998C90.3861 97.6794 90.6725 97.6191 90.9688 97.6191C91.3464 97.6191 91.6719 97.6842 91.9453 97.8145C92.222 97.9447 92.4482 98.127 92.624 98.3613C92.7998 98.5924 92.93 98.8659 93.0146 99.1816C93.0993 99.4941 93.1416 99.8359 93.1416 100.207V100.612H89.1963V99.875H92.2383V99.8066C92.2253 99.5723 92.1764 99.3444 92.0918 99.123C92.0104 98.9017 91.8802 98.7194 91.7012 98.5762C91.5221 98.4329 91.278 98.3613 90.9688 98.3613C90.7637 98.3613 90.5749 98.4053 90.4023 98.4932C90.2298 98.5778 90.0817 98.7048 89.958 98.874C89.8343 99.0433 89.7383 99.25 89.6699 99.4941C89.6016 99.7383 89.5674 100.02 89.5674 100.339V100.544C89.5674 100.795 89.6016 101.031 89.6699 101.252C89.7415 101.47 89.8441 101.662 89.9775 101.828C90.1143 101.994 90.2786 102.124 90.4707 102.219C90.666 102.313 90.8874 102.36 91.1348 102.36C91.4538 102.36 91.724 102.295 91.9453 102.165C92.1667 102.035 92.3604 101.861 92.5264 101.643L93.0732 102.077C92.9593 102.25 92.8145 102.414 92.6387 102.57C92.4629 102.727 92.2464 102.854 91.9893 102.951C91.7354 103.049 91.4342 103.098 91.0859 103.098ZM95.0996 98.8447V103H94.1963V97.7168H95.0508L95.0996 98.8447ZM94.8848 100.158L94.5088 100.144C94.512 99.7822 94.5658 99.4486 94.6699 99.1426C94.7741 98.8333 94.9206 98.5648 95.1094 98.3369C95.2982 98.109 95.5228 97.9333 95.7832 97.8096C96.0469 97.6826 96.3382 97.6191 96.6572 97.6191C96.9176 97.6191 97.152 97.6549 97.3604 97.7266C97.5687 97.7949 97.7461 97.9056 97.8926 98.0586C98.0423 98.2116 98.1562 98.4102 98.2344 98.6543C98.3125 98.8952 98.3516 99.1898 98.3516 99.5381V103H97.4434V99.5283C97.4434 99.2516 97.4027 99.0303 97.3213 98.8643C97.2399 98.695 97.1211 98.5729 96.9648 98.498C96.8086 98.4199 96.6165 98.3809 96.3887 98.3809C96.1641 98.3809 95.959 98.4281 95.7734 98.5225C95.5911 98.6169 95.4333 98.7471 95.2998 98.9131C95.1696 99.0791 95.0671 99.2695 94.9922 99.4844C94.9206 99.696 94.8848 99.9206 94.8848 100.158ZM101.936 97.7168V98.4102H99.0791V97.7168H101.936ZM100.046 96.4326H100.949V101.691C100.949 101.87 100.977 102.006 101.032 102.097C101.088 102.188 101.159 102.248 101.247 102.277C101.335 102.307 101.429 102.321 101.53 102.321C101.605 102.321 101.683 102.315 101.765 102.302C101.849 102.285 101.913 102.272 101.955 102.263L101.96 103C101.888 103.023 101.794 103.044 101.677 103.063C101.563 103.086 101.424 103.098 101.262 103.098C101.04 103.098 100.837 103.054 100.651 102.966C100.466 102.878 100.318 102.731 100.207 102.526C100.1 102.318 100.046 102.038 100.046 101.687V96.4326ZM108.146 99.6748H106.345L106.335 98.918H107.971C108.241 98.918 108.477 98.8724 108.679 98.7812C108.881 98.6901 109.037 98.5599 109.147 98.3906C109.261 98.2181 109.318 98.013 109.318 97.7754C109.318 97.515 109.268 97.3034 109.167 97.1406C109.069 96.9746 108.918 96.8542 108.713 96.7793C108.511 96.7012 108.254 96.6621 107.941 96.6621H106.555V103H105.612V95.8906H107.941C108.306 95.8906 108.632 95.9281 108.918 96.0029C109.204 96.0745 109.447 96.1885 109.646 96.3447C109.847 96.4977 110 96.693 110.104 96.9307C110.209 97.1683 110.261 97.4531 110.261 97.7852C110.261 98.0781 110.186 98.3434 110.036 98.5811C109.886 98.8154 109.678 99.0075 109.411 99.1572C109.147 99.307 108.838 99.403 108.483 99.4453L108.146 99.6748ZM108.103 103H105.974L106.506 102.233H108.103C108.402 102.233 108.656 102.181 108.864 102.077C109.076 101.973 109.237 101.826 109.348 101.638C109.458 101.446 109.514 101.219 109.514 100.959C109.514 100.695 109.466 100.467 109.372 100.275C109.278 100.083 109.13 99.9352 108.928 99.8311C108.726 99.7269 108.465 99.6748 108.146 99.6748H106.804L106.813 98.918H108.649L108.85 99.1914C109.191 99.2207 109.481 99.3184 109.719 99.4844C109.956 99.6471 110.137 99.8555 110.261 100.109C110.388 100.363 110.451 100.643 110.451 100.949C110.451 101.392 110.354 101.766 110.158 102.072C109.966 102.375 109.694 102.606 109.343 102.766C108.991 102.922 108.578 103 108.103 103ZM112.141 95.8906H113.054L115.383 101.687L117.707 95.8906H118.625L115.734 103H115.021L112.141 95.8906ZM111.843 95.8906H112.648L112.78 100.227V103H111.843V95.8906ZM118.112 95.8906H118.918V103H117.98V100.227L118.112 95.8906ZM121.584 95.8906V103H120.642V95.8906H121.584Z" fill="#777777"/>
<defs>
<filter id="filter0_d_0_208" x="0" y="0" width="350" height="134" filterUnits="userSpaceOnUse" color-interpolation-filters="sRGB">
<feFlood flood-opacity="0" result="BackgroundImageFix"/>
<feColorMatrix in="SourceAlpha" type="matrix" values="0 0 0 0 0 0 0 0 0 0 0 0 0 0 0 0 0 0 127 0" result="hardAlpha"/>
<feOffset dy="2"/>
<feGaussianBlur stdDeviation="5"/>
<feComposite in2="hardAlpha" operator="out"/>
<feColorMatrix type="matrix" values="0 0 0 0 0 0 0 0 0 0 0 0 0 0 0 0 0 0 0.16 0"/>
<feBlend mode="normal" in2="BackgroundImageFix" result="effect1_dropShadow_0_208"/>
<feBlend mode="normal" in="SourceGraphic" in2="effect1_dropShadow_0_208" result="shape"/>
</filter>
<filter id="filter1_d_0_208" x="204" y="78" width="120" height="46" filterUnits="userSpaceOnUse" color-interpolation-filters="sRGB">
<feFlood flood-opacity="0" result="BackgroundImageFix"/>
<feColorMatrix in="SourceAlpha" type="matrix" values="0 0 0 0 0 0 0 0 0 0 0 0 0 0 0 0 0 0 127 0" result="hardAlpha"/>
<feOffset dy="4"/>
<feGaussianBlur stdDeviation="5"/>
<feComposite in2="hardAlpha" operator="out"/>
<feColorMatrix type="matrix" values="0 0 0 0 0 0 0 0 0 0 0 0 0 0 0 0 0 0 0.07 0"/>
<feBlend mode="normal" in2="BackgroundImageFix" result="effect1_dropShadow_0_208"/>
<feBlend mode="normal" in="SourceGraphic" in2="effect1_dropShadow_0_208" result="shape"/>
</filter>
<filter id="filter2_d_0_208" x="204" y="46" width="120" height="46" filterUnits="userSpaceOnUse" color-interpolation-filters="sRGB">
<feFlood flood-opacity="0" result="BackgroundImageFix"/>
<feColorMatrix in="SourceAlpha" type="matrix" values="0 0 0 0 0 0 0 0 0 0 0 0 0 0 0 0 0 0 127 0" result="hardAlpha"/>
<feOffset dy="4"/>
<feGaussianBlur stdDeviation="5"/>
<feComposite in2="hardAlpha" operator="out"/>
<feColorMatrix type="matrix" values="0 0 0 0 0 0 0 0 0 0 0 0 0 0 0 0 0 0 0.07 0"/>
<feBlend mode="normal" in2="BackgroundImageFix" result="effect1_dropShadow_0_208"/>
<feBlend mode="normal" in="SourceGraphic" in2="effect1_dropShadow_0_208" result="shape"/>
</filter>
<filter id="filter3_d_0_208" x="204" y="14" width="120" height="46" filterUnits="userSpaceOnUse" color-interpolation-filters="sRGB">
<feFlood flood-opacity="0" result="BackgroundImageFix"/>
<feColorMatrix in="SourceAlpha" type="matrix" values="0 0 0 0 0 0 0 0 0 0 0 0 0 0 0 0 0 0 127 0" result="hardAlpha"/>
<feOffset dy="4"/>
<feGaussianBlur stdDeviation="5"/>
<feComposite in2="hardAlpha" operator="out"/>
<feColorMatrix type="matrix" values="0 0 0 0 0 0 0 0 0 0 0 0 0 0 0 0 0 0 0.07 0"/>
<feBlend mode="normal" in2="BackgroundImageFix" result="effect1_dropShadow_0_208"/>
<feBlend mode="normal" in="SourceGraphic" in2="effect1_dropShadow_0_208" result="shape"/>
</filter>
<filter id="filter4_d_0_208" x="106" y="55" width="75" height="37" filterUnits="userSpaceOnUse" color-interpolation-filters="sRGB">
<feFlood flood-opacity="0" result="BackgroundImageFix"/>
<feColorMatrix in="SourceAlpha" type="matrix" values="0 0 0 0 0 0 0 0 0 0 0 0 0 0 0 0 0 0 127 0" result="hardAlpha"/>
<feOffset dy="4"/>
<feGaussianBlur stdDeviation="5"/>
<feComposite in2="hardAlpha" operator="out"/>
<feColorMatrix type="matrix" values="0 0 0 0 0 0 0 0 0 0 0 0 0 0 0 0 0 0 0.1 0"/>
<feBlend mode="normal" in2="BackgroundImageFix" result="effect1_dropShadow_0_208"/>
<feBlend mode="normal" in="SourceGraphic" in2="effect1_dropShadow_0_208" result="shape"/>
</filter>
<clipPath id="clip0_0_208">
<rect x="10" y="8" width="330" height="114" rx="10" fill="white"/>
</clipPath>
<clipPath id="clip1_0_208">
<rect x="225" y="24" width="18" height="18" rx="9" fill="white"/>
</clipPath>
</defs>
</svg>
